{"glyphs":{"0":{"ha":999,"x_min":153,"x_max":844,"o":"m 493 947 q 675 918 606 947 q 782 830 744 889 q 832 681 819 771 q 844 469 844 590 q 822 243 844 335 q 753 95 799 151 q 639 15 707 39 q 481 -10 571 -10 q 296 28 363 -10 q 198 131 229 65 q 160 286 167 196 q 153 482 153 376 q 171 667 153 582 q 229 815 189 753 q 334 912 269 876 q 493 947 399 947 m 492 99 q 614 123 568 99 q 685 194 660 147 q 717 311 710 242 q 725 472 725 381 q 722 603 725 538 q 697 720 718 668 q 628 806 675 772 q 494 839 581 839 q 374 813 418 839 q 308 738 331 786 q 280 621 286 689 q 274 469 274 553 q 278 313 274 382 q 305 196 283 243 q 370 124 326 149 q 492 99 414 99 z "},"1":{"ha":817,"x_min":247,"x_max":526,"o":"m 413 0 l 413 749 q 404 774 413 764 q 383 789 396 783 q 353 797 369 794 q 322 799 338 799 q 275 794 300 799 q 261 792 268 793 q 247 792 254 792 l 247 875 l 526 929 l 526 0 l 413 0 z "},"2":{"ha":853,"x_min":93,"x_max":722,"o":"m 714 0 l 99 0 l 99 11 q 97 32 97 17 q 109 128 97 76 q 133 225 121 179 q 173 313 149 276 q 229 376 197 349 q 299 424 261 403 q 378 465 336 444 q 454 506 415 485 q 532 554 493 526 q 571 604 557 572 q 585 672 585 636 q 567 747 585 714 q 520 804 549 781 q 455 841 492 828 q 381 854 418 854 q 315 844 346 854 q 258 817 283 833 q 215 783 233 801 q 189 749 197 764 q 175 758 189 749 q 144 778 161 767 q 113 799 128 789 q 93 811 97 810 q 143 873 111 846 q 215 918 175 900 q 303 946 256 936 q 399 956 350 956 q 519 939 464 956 q 613 888 574 922 q 676 803 653 854 q 699 686 699 753 q 678 575 699 622 q 624 492 658 528 q 542 428 589 456 q 444 374 496 400 q 369 333 406 354 q 303 281 332 311 q 253 206 274 250 q 228 99 233 163 l 722 99 l 714 0 z "},"3":{"ha":783,"x_min":71,"x_max":697,"o":"m 538 482 q 656 398 614 454 q 697 258 697 342 q 669 139 697 189 q 594 56 640 89 q 491 8 549 24 q 375 -8 433 -8 q 295 -3 346 -8 q 194 14 244 1 q 108 49 144 26 q 71 108 71 72 q 81 149 71 128 q 106 186 90 169 q 161 140 131 161 q 226 106 192 119 q 295 84 260 92 q 365 76 331 76 q 447 88 407 76 q 516 123 486 100 q 564 180 546 146 q 582 258 582 214 q 554 349 582 314 q 484 402 526 383 q 392 428 442 421 q 299 435 343 435 l 322 532 q 411 536 367 532 q 491 556 456 540 q 548 602 526 571 q 569 689 569 633 q 517 817 569 775 q 383 858 464 858 q 315 851 349 858 q 252 828 281 843 q 203 790 224 813 q 175 735 182 767 l 92 793 q 133 868 104 839 q 201 915 163 897 q 285 940 240 933 q 376 947 331 947 q 490 935 435 947 q 589 897 546 924 q 658 824 632 869 q 683 710 683 778 q 647 567 683 631 q 538 482 610 504 z "},"4":{"ha":928,"x_min":96,"x_max":831,"o":"m 96 271 q 101 306 96 286 q 121 349 106 325 l 535 929 l 590 929 q 649 907 624 929 q 675 838 675 885 l 675 319 l 782 319 q 831 278 831 319 l 831 221 l 675 221 l 675 0 l 561 0 l 561 221 l 113 221 q 102 236 108 224 q 96 271 96 249 m 561 319 l 561 808 l 226 319 l 561 319 z "},"5":{"ha":843,"x_min":104,"x_max":721,"o":"m 413 578 q 536 558 479 578 q 634 501 593 539 q 698 410 675 464 q 721 286 721 356 q 696 158 721 215 q 626 60 671 100 q 520 -2 581 19 q 389 -24 460 -24 q 316 -16 364 -24 q 222 8 268 -8 q 140 49 175 24 q 104 110 104 74 q 115 147 104 128 q 154 189 126 167 q 264 100 199 138 q 400 63 329 63 q 482 79 444 63 q 546 126 519 96 q 587 197 572 156 q 601 285 601 238 q 548 429 601 376 q 390 482 494 482 q 303 473 349 482 q 210 449 258 464 q 178 443 194 443 q 124 513 124 443 l 124 521 l 164 928 l 638 928 q 675 922 663 928 q 688 894 688 917 l 688 829 l 268 829 l 240 547 q 322 569 276 561 q 413 578 367 578 z "},"6":{"ha":872,"x_min":92,"x_max":757,"o":"m 410 565 q 553 553 489 565 q 662 508 617 540 q 732 422 707 476 q 757 281 757 367 q 669 48 757 121 q 424 -25 582 -25 q 243 9 310 -25 q 143 101 176 43 q 101 239 110 160 q 92 410 92 318 q 103 592 92 504 q 138 753 115 679 q 188 840 154 804 q 263 897 221 875 q 353 927 306 918 q 447 936 401 936 q 621 895 551 936 q 719 783 690 854 l 618 735 q 549 815 603 789 q 425 842 494 842 q 322 819 360 842 q 263 760 283 797 q 233 672 242 722 q 219 565 225 622 l 410 565 m 210 467 q 210 444 210 463 q 212 405 211 426 q 213 365 213 383 q 214 340 214 346 q 221 226 214 276 q 249 140 228 175 q 310 85 271 104 q 417 67 350 67 q 581 115 521 67 q 642 268 642 164 q 625 376 642 335 q 576 439 608 417 q 498 469 544 461 q 392 476 451 476 q 301 474 347 476 q 210 467 254 471 z "},"7":{"ha":894,"x_min":124,"x_max":747,"o":"m 425 224 q 383 115 397 174 q 369 -1 369 57 l 249 -1 l 251 32 q 269 148 258 93 q 313 256 281 203 l 622 829 l 124 829 l 132 928 l 732 928 q 747 881 747 911 q 735 818 747 851 q 708 757 724 785 l 425 224 z "},"8":{"ha":846,"x_min":90,"x_max":768,"o":"m 560 486 q 644 455 606 472 q 710 412 682 438 q 753 349 738 386 q 768 260 768 313 q 738 134 768 185 q 658 51 708 83 q 544 6 608 19 q 413 -8 481 -8 q 295 3 353 -8 q 192 42 238 14 q 118 118 146 71 q 90 236 90 165 q 138 391 90 329 q 271 485 186 453 q 210 526 240 503 q 158 577 181 549 q 122 641 136 606 q 108 721 108 676 q 138 829 108 786 q 213 898 167 872 q 316 935 258 924 q 429 946 374 946 q 538 935 483 946 q 638 900 593 925 q 711 833 683 875 q 739 725 739 790 q 725 645 739 681 q 687 581 711 610 q 630 530 663 553 q 560 486 597 507 m 625 715 q 610 783 625 756 q 568 826 594 810 q 508 851 542 843 q 439 858 475 858 q 363 851 401 858 q 294 824 325 843 q 242 774 263 806 q 222 697 222 743 q 243 617 222 650 q 297 564 264 585 q 372 532 331 543 q 457 517 414 521 q 522 544 492 526 q 576 588 553 563 q 612 646 599 614 q 625 715 625 678 m 367 440 q 303 413 333 431 q 251 369 274 394 q 215 314 228 344 q 201 249 201 283 q 225 169 201 201 q 284 119 249 138 q 361 92 319 100 q 440 83 403 83 q 517 92 479 83 q 585 119 556 100 q 634 166 615 138 q 653 235 653 194 q 623 322 653 286 q 549 383 593 358 q 456 421 506 407 q 367 440 406 435 z "},"9":{"ha":860,"x_min":97,"x_max":763,"o":"m 446 347 q 303 359 368 347 q 193 403 239 371 q 122 490 147 435 q 97 629 97 544 q 122 771 97 713 q 190 866 146 829 q 296 919 233 903 q 435 936 358 936 q 611 904 546 936 q 710 817 676 872 q 753 685 743 761 q 763 519 763 608 q 751 322 763 419 q 703 147 740 224 q 598 22 667 69 q 413 -25 529 -25 q 341 -22 388 -25 q 249 -8 294 -18 q 169 19 203 1 q 138 67 136 38 q 153 112 139 86 q 185 157 168 138 q 278 93 222 114 q 392 72 333 72 q 503 93 451 72 q 585 157 556 114 q 613 215 603 182 q 629 276 624 247 q 637 326 635 306 q 639 347 639 347 l 446 347 m 642 607 q 630 710 639 665 q 599 784 621 754 q 540 829 576 814 q 443 844 503 844 q 277 795 338 844 q 217 640 217 746 q 233 535 217 575 q 283 472 250 494 q 363 442 315 450 q 471 435 410 435 q 558 438 515 435 q 646 444 601 440 l 642 607 z "},"\u0000":{"ha":0,"x_min":0,"x_max":0,"o":""},"\r":{"ha":347,"x_min":0,"x_max":0,"o":""}," ":{"ha":528,"x_min":0,"x_max":0,"o":""},"ሀ":{"ha":847,"x_min":117,"x_max":731,"o":"m 117 358 l 117 992 l 242 992 l 242 358 q 260 233 242 282 q 308 158 279 185 q 375 121 338 131 q 450 111 413 111 q 504 116 476 113 q 554 142 532 119 q 591 214 576 164 q 606 358 606 264 l 606 992 l 731 992 l 731 358 q 717 215 731 281 q 670 101 703 149 q 583 26 638 53 q 450 -1 529 -1 q 349 14 407 -1 q 240 70 292 29 q 152 181 188 111 q 117 358 117 250 z "},"ሁ":{"ha":1106,"x_min":122,"x_max":1019,"o":"m 247 993 l 247 360 q 265 235 247 283 q 313 159 283 186 q 380 122 343 132 q 454 113 417 113 q 508 117 481 114 q 559 143 536 121 q 597 215 582 165 q 611 360 611 265 l 611 993 l 736 993 l 736 599 l 782 599 q 909 592 849 599 q 1019 567 969 585 l 996 447 q 915 478 967 467 q 782 489 864 489 l 736 489 l 736 360 q 722 216 736 282 q 675 102 708 150 q 588 27 642 54 q 454 0 533 0 q 353 15 411 0 q 244 72 296 31 q 158 182 193 113 q 122 360 122 251 l 122 993 l 247 993 z "},"ሂ":{"ha":1107,"x_min":204,"x_max":893,"o":"m 329 990 l 329 785 q 348 660 329 708 q 397 584 367 611 q 464 547 426 557 q 539 538 501 538 q 591 540 572 538 q 620 547 610 543 q 634 553 631 550 q 638 557 638 557 q 681 785 672 667 l 693 990 l 818 990 l 806 785 q 790 667 799 718 q 769 576 781 615 l 671 249 q 653 188 660 213 q 647 147 647 163 q 663 119 647 126 q 717 113 678 113 q 735 111 724 111 q 760 111 746 111 q 832 113 793 111 q 893 118 871 115 l 892 4 q 786 2 843 4 q 681 0 729 0 q 556 26 596 0 q 515 113 515 53 q 532 206 515 151 l 600 435 q 563 430 581 432 q 526 428 544 428 q 397 454 456 428 q 294 528 338 481 q 228 640 251 575 q 204 785 204 706 l 204 990 l 329 990 z "},"ሃ":{"ha":778,"x_min":86,"x_max":700,"o":"m 86 990 l 211 990 l 211 785 q 230 660 211 708 q 278 584 249 611 q 344 547 307 557 q 419 538 382 538 q 472 540 453 538 q 502 547 492 543 q 516 553 513 550 q 519 557 519 557 q 526 583 521 564 q 539 633 532 603 q 553 701 546 663 q 563 785 560 740 l 575 990 l 700 990 l 688 785 q 672 670 681 719 q 651 583 664 621 l 490 0 l 363 0 l 485 436 q 455 429 468 432 q 419 425 442 426 q 319 440 376 425 q 209 497 261 456 q 122 607 157 538 q 86 785 86 676 l 86 990 z "},"ሄ":{"ha":1143,"x_min":194,"x_max":971,"o":"m 319 990 l 319 785 q 338 660 319 708 q 386 584 357 611 q 453 547 415 557 q 528 538 490 538 q 581 540 561 538 q 610 547 600 543 q 624 553 621 550 q 628 557 628 557 q 636 583 631 564 q 649 633 642 603 q 662 701 656 663 q 671 785 668 740 l 683 990 l 808 990 l 796 785 q 781 670 789 719 q 760 583 772 621 l 688 324 l 733 324 q 816 320 774 324 q 893 302 858 317 q 949 260 928 288 q 971 183 971 232 q 946 97 971 132 q 883 40 921 61 q 801 9 846 18 q 717 0 757 0 q 645 6 686 0 q 570 26 604 11 q 517 68 536 42 q 510 136 497 94 l 593 436 q 563 429 576 432 q 528 425 550 426 q 427 440 485 425 q 317 497 369 456 q 230 607 265 538 q 194 785 194 676 l 194 990 l 319 990 m 735 83 q 771 88 751 83 q 808 101 790 92 q 836 128 825 111 q 847 168 847 144 q 833 210 847 196 q 797 231 818 225 q 753 239 776 238 q 711 240 729 240 l 665 240 l 633 132 q 637 108 626 118 q 665 93 647 99 q 703 85 683 88 q 735 83 724 83 z "},"ህ":{"ha":1072,"x_min":128,"x_max":942,"o":"m 128 993 l 253 993 l 257 789 q 281 738 258 750 q 338 725 304 725 l 453 725 l 453 360 q 471 235 453 283 q 519 159 489 186 q 585 122 549 132 q 660 113 622 113 q 714 117 686 114 q 765 143 742 121 q 802 215 788 165 q 817 360 817 265 l 817 993 l 942 993 l 942 360 q 928 216 942 282 q 881 102 914 150 q 793 27 847 54 q 660 0 739 0 q 559 15 617 0 q 450 72 501 31 q 363 182 399 113 q 328 360 328 251 l 328 639 q 254 645 290 639 q 191 668 218 651 q 147 714 164 685 q 131 789 131 743 l 128 993 z "},"ሆ":{"ha":1147,"x_min":124,"x_max":1042,"o":"m 124 993 l 249 993 l 249 360 q 267 235 249 283 q 315 159 285 186 q 381 122 344 132 q 456 113 418 113 q 510 117 482 114 q 560 143 538 121 q 598 215 583 165 q 613 360 613 265 l 613 864 q 627 925 613 900 q 667 966 642 950 q 727 989 693 982 q 800 996 761 996 q 892 985 847 996 q 969 950 936 974 q 1022 888 1003 926 q 1039 794 1042 849 q 1020 722 1038 747 q 974 685 1003 697 q 906 672 946 674 q 821 669 867 669 l 738 669 l 738 360 q 724 216 738 282 q 676 102 710 150 q 589 27 643 54 q 456 0 535 0 q 355 15 413 0 q 246 72 297 31 q 159 182 194 113 q 124 360 124 251 l 124 993 m 738 865 l 738 751 l 757 751 l 781 751 q 826 753 803 751 q 870 761 850 754 q 903 782 890 768 q 915 821 915 796 q 885 885 915 858 q 814 911 856 911 q 761 899 785 911 q 738 865 738 886 z "},"ሇ":{"ha":1418,"x_min":118,"x_max":1317,"o":"m 354 599 l 400 599 l 400 993 l 525 993 l 525 360 q 543 235 525 283 q 591 159 561 186 q 658 122 621 132 q 732 113 694 113 q 786 117 758 114 q 837 143 814 121 q 874 215 860 165 q 889 360 889 265 l 889 864 q 903 926 889 900 q 944 967 918 951 q 1003 989 969 982 q 1075 996 1038 996 q 1165 985 1121 996 q 1243 951 1210 975 q 1297 890 1276 928 q 1314 799 1317 853 q 1296 727 1313 753 q 1252 688 1279 701 q 1189 672 1225 675 q 1111 669 1153 669 l 1014 669 l 1014 360 q 1000 216 1014 282 q 953 102 986 150 q 865 27 919 54 q 732 0 811 0 q 631 15 689 0 q 522 72 574 31 q 435 182 471 113 q 400 360 400 251 l 400 489 l 354 489 q 220 478 271 489 q 140 447 169 467 l 118 567 q 227 592 167 585 q 354 599 288 599 m 1189 824 q 1161 886 1189 861 q 1092 911 1133 911 q 1038 899 1063 911 q 1014 865 1014 886 l 1014 751 q 1065 752 1035 753 q 1122 757 1094 751 q 1169 777 1150 763 q 1189 824 1189 792 z "},"ለ":{"ha":890,"x_min":101,"x_max":794,"o":"m 143 431 q 241 641 157 560 q 472 750 325 722 l 408 992 l 533 992 l 794 0 l 669 0 l 494 668 q 399 631 438 653 q 334 582 360 608 q 294 529 308 556 q 274 480 281 503 q 265 440 267 457 q 263 418 264 424 l 222 0 l 101 0 l 143 431 z "},"ሉ":{"ha":1040,"x_min":88,"x_max":953,"o":"m 88 0 l 129 431 q 227 641 143 560 q 457 750 311 722 l 394 992 l 519 992 l 649 524 l 717 524 q 844 516 783 524 q 953 490 904 508 l 932 372 q 851 403 901 392 q 717 414 800 414 l 672 414 l 781 0 l 656 0 l 479 668 q 383 631 422 654 q 319 583 344 608 q 279 530 293 557 q 259 480 265 503 q 251 440 253 457 q 249 418 250 424 l 210 0 l 88 0 z "},"ሊ":{"ha":1189,"x_min":139,"x_max":1060,"o":"m 1060 6 q 990 3 1025 6 q 918 0 954 0 q 747 44 808 0 q 657 194 686 88 l 533 668 q 401 608 447 646 q 332 530 354 569 q 306 458 310 490 q 300 418 301 426 l 261 0 l 139 0 l 182 431 q 280 641 196 560 q 511 750 364 722 l 449 992 l 572 992 l 771 235 q 796 172 782 196 q 829 133 810 147 q 876 115 849 119 q 940 111 903 111 q 1003 113 971 111 q 1056 118 1035 115 l 1060 6 z "},"ላ":{"ha":861,"x_min":83,"x_max":751,"o":"m 628 0 l 451 668 q 320 608 367 646 q 251 530 274 569 q 225 458 229 490 q 219 418 221 426 l 204 271 l 83 271 l 100 431 q 199 641 114 560 q 431 750 283 722 l 367 992 l 492 992 l 751 0 l 628 0 z "},"ሌ":{"ha":1167,"x_min":93,"x_max":1061,"o":"m 810 325 q 896 321 851 325 q 977 301 940 317 q 1038 256 1014 286 q 1061 172 1061 225 q 1033 81 1061 114 q 961 29 1004 47 q 867 6 918 11 q 772 1 817 1 q 716 11 739 6 q 677 29 693 17 q 651 63 661 42 q 629 122 640 85 l 486 668 q 390 631 429 654 q 324 583 350 608 q 285 530 299 557 q 265 480 271 503 q 257 440 258 457 q 254 418 256 424 l 214 0 l 93 0 l 135 431 q 233 641 149 560 q 464 750 317 722 l 400 992 l 525 992 l 701 325 l 810 325 m 828 82 q 902 109 869 82 q 935 176 935 136 q 922 213 935 200 q 892 233 910 226 q 853 240 874 239 q 817 242 833 242 l 722 242 l 751 131 q 778 94 756 107 q 828 82 801 82 z "},"ል":{"ha":942,"x_min":83,"x_max":850,"o":"m 493 674 q 348 615 399 654 q 274 535 297 576 q 245 461 250 494 q 239 418 240 428 l 231 326 l 279 326 q 364 322 321 326 q 442 303 407 318 q 499 260 476 289 q 521 181 521 231 q 496 92 521 126 q 433 37 471 57 q 349 9 394 17 q 261 1 303 1 q 194 3 228 1 q 135 17 161 6 q 97 53 110 29 q 89 122 83 78 l 119 431 q 223 646 135 564 q 465 751 311 728 l 386 992 l 513 992 l 850 0 l 724 0 l 493 674 m 222 243 l 210 122 q 230 89 210 96 q 271 82 250 82 q 314 88 292 82 q 354 106 336 94 q 384 135 372 118 q 396 176 396 153 q 383 214 396 200 q 353 234 371 228 q 313 242 335 240 q 275 243 292 243 l 222 243 z "},"ሎ":{"ha":1250,"x_min":83,"x_max":1151,"o":"m 125 431 q 223 641 139 560 q 454 750 307 722 l 390 992 l 515 992 l 618 601 l 989 601 q 1106 568 1064 601 q 1151 472 1147 535 q 1136 374 1151 418 q 1092 298 1121 329 q 1022 250 1063 267 q 933 233 982 233 q 811 290 844 239 q 778 438 778 340 l 778 518 l 640 518 l 778 0 l 650 0 l 476 668 q 344 608 390 646 q 275 530 297 569 q 249 458 253 490 q 244 418 246 426 l 204 0 l 83 0 l 125 431 m 876 439 q 878 403 876 424 q 888 363 881 382 q 908 329 894 343 q 944 315 921 315 q 981 326 965 315 q 1008 356 997 338 q 1024 396 1018 374 q 1029 439 1029 418 q 1017 492 1029 467 q 971 518 1006 518 l 875 518 l 876 439 z "},"ሏ":{"ha":1006,"x_min":49,"x_max":965,"o":"m 49 271 l 65 431 q 163 641 79 560 q 394 750 247 722 l 331 992 l 458 992 l 690 110 l 726 110 q 854 103 793 110 q 965 76 915 96 l 949 -42 q 867 -11 918 -22 q 731 0 815 0 l 564 0 q 424 -11 481 0 q 336 -40 367 -22 l 311 78 q 426 103 360 96 q 560 110 492 110 l 565 110 l 417 668 q 321 631 360 654 q 256 583 282 608 q 217 531 231 557 q 196 481 203 504 q 187 441 189 458 q 185 418 185 424 l 171 271 l 49 271 z "},"ሐ":{"ha":1114,"x_min":108,"x_max":1006,"o":"m 108 297 q 143 475 108 406 q 228 585 178 544 q 334 642 278 626 q 433 657 390 657 q 494 651 468 657 l 494 990 l 619 990 l 619 651 q 679 657 643 657 q 778 642 722 657 q 885 585 835 626 q 971 475 936 544 q 1006 297 1006 406 l 1006 0 l 881 0 l 881 297 q 863 422 881 374 q 817 498 846 471 q 753 535 789 525 q 679 544 717 544 q 649 542 664 543 q 619 538 635 542 l 619 0 l 494 0 l 494 538 q 464 542 479 542 q 433 544 449 543 q 360 535 396 544 q 296 498 324 525 q 251 422 268 471 q 233 297 233 374 l 233 0 l 108 0 l 108 297 z "},"ሑ":{"ha":1375,"x_min":107,"x_max":1289,"o":"m 107 0 l 107 297 q 142 475 107 406 q 226 585 176 544 q 333 642 276 626 q 433 657 390 657 q 493 651 469 657 l 493 990 l 618 990 l 618 651 q 678 657 642 657 q 777 640 721 657 q 884 585 833 624 q 970 485 935 547 q 1006 331 1006 422 l 1053 331 q 1180 323 1119 331 q 1289 297 1240 315 l 1267 179 q 1186 210 1238 199 q 1053 222 1135 222 l 1006 222 l 1006 0 l 881 0 l 881 297 q 863 422 881 374 q 817 498 846 471 q 751 535 788 525 q 678 544 715 544 q 647 542 661 543 q 618 538 632 542 l 618 0 l 493 0 l 493 538 q 465 542 479 542 q 433 544 450 543 q 360 535 396 544 q 295 498 324 525 q 249 422 267 471 q 232 297 232 374 l 232 0 l 107 0 z "},"ሒ":{"ha":1390,"x_min":111,"x_max":1257,"o":"m 438 657 q 500 651 472 657 l 500 990 l 625 990 l 625 651 q 685 657 649 657 q 784 642 728 657 q 890 585 840 626 q 975 475 940 544 q 1010 297 1010 406 l 1010 217 q 1018 155 1010 176 q 1043 123 1026 133 q 1085 111 1060 113 q 1143 110 1110 110 q 1204 112 1172 110 q 1257 117 1236 114 l 1257 4 q 1178 2 1217 4 q 1104 0 1140 0 q 1003 10 1044 0 q 935 43 961 19 q 897 105 908 67 q 885 200 885 143 l 885 297 q 867 422 885 374 q 822 498 850 471 q 758 535 794 525 q 685 544 722 544 q 654 542 669 543 q 625 538 639 542 l 625 0 l 500 0 l 500 538 q 469 542 485 542 q 438 544 454 543 q 364 535 400 544 q 299 498 328 525 q 253 422 271 471 q 236 297 236 374 l 236 0 l 111 0 l 111 297 q 146 475 111 406 q 231 585 181 544 q 338 642 281 626 q 438 657 394 657 z "},"ሓ":{"ha":1072,"x_min":78,"x_max":976,"o":"m 410 657 q 436 656 422 657 q 465 651 450 654 l 465 990 l 590 990 l 590 651 q 618 656 604 654 q 644 657 632 657 q 748 642 690 657 q 856 585 806 626 q 942 475 907 544 q 976 297 976 406 l 976 0 l 851 0 l 851 297 q 834 422 851 374 q 788 498 817 471 q 724 535 760 525 q 650 544 688 544 q 619 542 633 543 q 590 538 604 542 l 590 203 l 465 203 l 465 538 q 435 543 450 542 q 407 544 421 544 q 331 535 368 544 q 266 498 294 525 q 220 422 238 471 q 203 297 203 374 l 203 203 l 78 203 l 78 297 q 113 475 78 406 q 199 585 147 544 q 307 642 250 626 q 410 657 364 657 z "},"ሔ":{"ha":1386,"x_min":96,"x_max":1286,"o":"m 422 657 q 454 656 439 657 q 483 651 469 654 l 483 990 l 608 990 l 608 651 q 668 657 632 657 q 768 642 713 657 q 874 589 824 626 q 958 487 924 551 q 994 324 993 422 l 1053 324 q 1144 318 1101 324 q 1218 297 1186 313 q 1268 253 1250 282 q 1286 176 1286 224 q 1265 92 1286 126 q 1210 38 1244 58 q 1131 8 1175 17 q 1039 0 1086 0 q 976 5 1007 0 q 922 24 946 10 q 884 63 899 38 q 869 129 869 88 l 869 301 q 852 424 869 376 q 806 499 835 472 q 742 535 778 525 q 668 544 706 544 q 638 542 653 543 q 608 538 624 542 l 608 0 l 483 0 l 483 538 q 453 542 469 542 q 422 544 438 543 q 349 535 385 544 q 284 498 313 525 q 238 422 256 471 q 221 297 221 374 l 221 0 l 96 0 l 96 297 q 131 475 96 406 q 216 585 165 544 q 323 642 267 626 q 422 657 379 657 m 994 240 l 994 128 q 1017 95 994 108 q 1067 82 1039 82 q 1133 108 1106 82 q 1161 172 1161 133 q 1150 209 1161 196 q 1122 229 1139 222 q 1086 238 1106 236 q 1050 240 1067 240 l 994 240 z "},"ሕ":{"ha":1101,"x_min":92,"x_max":993,"o":"m 92 0 l 92 297 q 126 475 92 406 q 213 585 161 544 q 321 642 264 626 q 421 657 378 657 q 481 651 457 657 l 481 796 l 378 796 q 311 808 343 796 q 256 841 279 819 q 218 892 232 863 q 204 956 204 921 l 201 1051 l 326 1051 l 328 956 q 354 906 331 919 q 410 893 378 893 l 606 893 l 606 651 q 635 656 619 654 q 665 657 650 657 q 766 642 710 657 q 873 585 822 626 q 958 475 924 544 q 993 297 993 406 l 993 0 l 868 0 l 868 297 q 851 422 868 374 q 804 498 833 471 q 739 535 775 525 q 665 544 703 544 q 635 542 650 543 q 606 538 621 542 l 606 0 l 481 0 l 481 538 q 451 542 465 542 q 421 544 436 543 q 347 535 383 544 q 281 498 310 525 q 235 422 253 471 q 217 297 217 374 l 217 0 l 92 0 z "},"ሖ":{"ha":1075,"x_min":74,"x_max":972,"o":"m 74 297 q 108 475 74 406 q 194 585 143 544 q 301 642 244 626 q 404 657 358 657 q 431 656 417 657 q 460 651 444 654 l 460 990 l 585 990 l 585 651 q 613 656 599 654 q 639 657 626 657 q 706 651 669 657 q 779 628 742 644 q 851 585 817 613 q 913 519 886 558 q 956 424 940 479 q 972 297 972 369 l 972 203 l 847 203 l 847 297 q 829 422 847 374 q 782 498 811 471 q 715 535 753 525 q 638 544 678 544 q 613 543 622 544 q 585 538 603 542 l 585 203 l 460 203 l 460 538 q 429 542 444 542 q 399 544 414 543 q 325 535 361 544 q 261 498 289 525 q 216 422 233 471 q 199 297 199 374 l 199 0 l 74 0 l 74 297 z "},"ሗ":{"ha":1372,"x_min":99,"x_max":1264,"o":"m 431 657 q 457 656 443 657 q 485 651 471 654 l 485 990 l 610 990 l 610 651 q 639 656 625 654 q 665 657 653 657 q 768 642 711 657 q 876 585 825 626 q 963 475 928 544 q 997 297 997 406 l 997 110 l 1025 110 q 1153 103 1092 110 q 1264 76 1214 96 l 1243 -43 q 1161 -12 1213 -24 q 1025 0 1110 0 l 858 0 q 718 -11 775 0 q 631 -42 661 -22 l 608 78 q 725 103 660 96 q 858 110 790 110 l 872 110 l 872 297 q 855 422 872 374 q 809 498 838 471 q 744 535 781 525 q 671 544 708 544 q 640 542 656 543 q 610 538 625 542 l 610 203 l 485 203 l 485 538 q 456 543 469 542 q 428 544 442 544 q 352 535 389 544 q 287 498 315 525 q 241 422 258 471 q 224 297 224 374 l 224 203 l 99 203 l 99 297 q 133 475 99 406 q 219 585 168 544 q 328 642 271 626 q 431 657 385 657 z "},"መ":{"ha":1347,"x_min":111,"x_max":1228,"o":"m 392 992 l 971 992 q 1061 978 1015 992 q 1144 925 1107 964 q 1204 816 1181 886 q 1228 633 1228 746 l 1228 476 q 1204 292 1228 363 q 1144 182 1181 221 q 1061 130 1107 143 q 971 117 1015 117 q 863 140 903 117 q 803 203 824 163 q 775 301 782 244 q 768 426 768 358 l 768 879 l 608 879 l 608 311 q 599 186 607 243 q 567 88 590 129 q 501 23 543 46 q 392 0 460 0 q 299 13 349 0 q 208 65 250 26 q 139 174 167 104 q 111 358 111 244 l 111 633 q 139 816 111 746 q 208 925 167 886 q 299 978 250 964 q 392 992 349 992 m 236 633 l 236 358 q 247 235 236 283 q 278 160 258 188 q 326 123 297 133 q 388 113 354 113 l 392 113 q 431 119 414 113 q 459 151 447 126 q 477 226 471 176 q 483 358 483 275 l 483 633 q 482 775 483 725 q 472 848 481 825 q 445 875 464 871 q 392 879 426 879 q 328 869 357 879 q 279 831 300 858 q 247 756 258 804 q 236 633 236 708 m 893 633 l 893 476 q 897 344 893 393 q 911 269 901 294 q 935 236 921 243 q 971 229 950 229 q 1032 239 1007 229 q 1073 276 1057 249 q 1096 351 1089 303 q 1103 476 1103 400 l 1103 633 q 1096 756 1103 708 q 1073 831 1089 804 q 1031 869 1057 858 q 968 879 1006 879 l 951 879 q 917 874 929 879 q 900 845 906 869 q 894 772 894 821 q 893 633 893 722 z "},"ሙ":{"ha":1594,"x_min":122,"x_max":1522,"o":"m 122 358 l 122 633 q 150 816 122 746 q 219 925 178 886 q 311 978 261 964 q 404 992 361 992 l 983 992 q 1073 978 1028 992 q 1155 925 1118 964 q 1215 816 1192 886 q 1239 633 1239 746 l 1239 613 l 1285 613 q 1412 605 1351 613 q 1522 579 1472 597 l 1501 461 q 1419 492 1471 481 q 1285 503 1368 503 l 1239 503 l 1239 476 q 1215 292 1239 363 q 1155 182 1192 221 q 1073 130 1118 143 q 983 117 1028 117 q 875 140 915 117 q 814 203 835 163 q 787 301 793 244 q 781 426 781 358 l 781 879 l 621 879 l 621 311 q 611 186 619 243 q 579 88 603 129 q 514 23 556 46 q 404 0 472 0 q 311 13 361 0 q 219 65 261 26 q 150 174 178 104 q 122 358 122 244 m 247 633 l 247 358 q 258 234 247 282 q 290 159 269 186 q 340 122 311 132 q 404 113 369 113 q 444 119 426 113 q 472 151 461 126 q 490 226 483 176 q 496 358 496 275 l 496 633 q 494 775 496 725 q 485 848 493 825 q 458 875 476 871 q 404 879 439 879 q 340 869 369 879 q 290 833 311 860 q 258 758 269 806 q 247 633 247 710 m 906 633 l 906 476 q 910 344 906 393 q 923 269 914 294 q 947 236 932 243 q 983 229 963 229 q 1044 239 1019 229 q 1084 276 1068 249 q 1107 351 1100 303 q 1114 476 1114 400 l 1114 633 q 1107 758 1114 710 q 1084 833 1100 806 q 1044 869 1068 860 q 983 879 1019 879 l 964 879 q 930 874 942 879 q 913 845 918 869 q 906 772 907 821 q 906 633 906 722 z "},"ሚ":{"ha":1597,"x_min":167,"x_max":1369,"o":"m 1135 218 q 1122 160 1125 182 q 1126 128 1118 139 q 1156 113 1133 117 q 1219 110 1178 110 q 1303 112 1261 110 q 1369 117 1346 114 l 1367 4 q 1258 2 1318 4 q 1150 0 1199 0 q 1024 24 1063 0 q 986 103 986 49 q 1007 206 986 143 l 1074 432 q 1050 428 1060 429 q 1026 426 1040 426 q 912 453 953 426 q 851 528 871 481 q 826 642 831 576 q 822 786 822 708 l 822 879 l 664 879 l 663 621 q 653 496 661 553 q 621 398 644 439 q 556 334 597 357 q 446 311 514 311 q 356 324 404 311 q 265 372 307 336 q 195 471 224 407 q 167 639 167 535 q 196 820 168 751 q 265 927 224 889 q 354 978 306 965 q 446 992 403 992 l 1026 992 q 1128 980 1082 992 q 1208 942 1175 968 q 1260 876 1242 917 q 1279 778 1279 836 q 1274 714 1279 747 q 1260 642 1269 681 l 1135 218 m 451 424 q 488 432 472 425 q 516 463 504 439 q 533 535 528 488 q 539 667 539 583 q 538 790 539 746 q 527 853 536 833 q 499 876 518 872 q 446 879 481 879 q 384 870 413 879 q 335 835 356 861 q 303 765 315 810 q 292 649 292 719 q 303 538 292 582 q 333 469 314 494 q 381 433 353 443 q 442 424 408 424 l 451 424 m 1026 539 q 1075 546 1053 539 q 1115 571 1097 553 l 1150 690 q 1161 775 1161 743 q 1149 835 1161 814 q 1115 867 1136 857 q 1067 878 1094 876 q 1008 879 1039 879 q 978 876 990 879 q 960 859 967 872 q 950 817 953 846 q 947 739 947 789 q 953 633 949 672 q 968 573 958 593 q 992 547 978 553 q 1026 539 1006 540 z "},"ማ":{"ha":1304,"x_min":86,"x_max":1199,"o":"m 947 992 q 1050 980 1004 992 q 1129 942 1096 968 q 1181 875 1163 917 q 1199 775 1199 833 q 1194 714 1199 747 q 1179 642 1190 681 l 1014 0 l 890 0 l 1003 435 q 975 428 986 431 q 947 426 964 426 q 831 453 872 426 q 771 528 790 481 q 748 642 751 576 q 744 786 744 708 l 744 879 l 583 879 l 583 629 q 576 501 583 560 q 544 401 568 443 q 479 335 521 358 q 368 311 438 311 q 277 324 326 311 q 185 372 228 336 q 115 471 143 407 q 86 639 86 535 q 115 820 88 751 q 185 927 143 889 q 276 978 226 965 q 368 992 325 992 l 947 992 m 371 424 q 408 432 392 425 q 435 463 424 439 q 452 535 446 488 q 458 667 458 583 q 456 790 458 746 q 445 853 454 833 q 418 876 436 872 q 368 879 400 879 q 305 870 333 879 q 256 835 276 861 q 224 765 236 810 q 211 649 213 719 q 224 538 213 582 q 254 469 235 494 q 301 433 274 443 q 361 424 328 424 l 371 424 m 947 539 q 999 547 975 539 q 1042 576 1024 556 l 1069 690 q 1078 738 1076 717 q 1081 774 1081 758 q 1068 834 1081 813 q 1035 865 1056 856 q 987 877 1014 875 q 929 879 960 879 q 899 876 911 879 q 881 859 888 872 q 872 817 875 846 q 869 739 869 789 q 876 633 871 672 q 890 573 881 593 q 913 547 899 553 q 947 539 928 540 z "},"ሜ":{"ha":1633,"x_min":150,"x_max":1447,"o":"m 1203 310 q 1295 307 1251 310 q 1373 291 1339 304 q 1427 251 1407 278 q 1447 176 1447 225 q 1423 90 1447 124 q 1360 35 1399 56 q 1276 7 1322 15 q 1185 -1 1229 -1 q 1115 3 1153 -1 q 1045 23 1076 8 q 997 64 1014 38 q 990 135 979 90 l 1067 435 q 1011 426 1033 426 q 895 453 936 426 q 835 528 854 481 q 811 642 815 576 q 807 786 807 708 l 807 879 l 647 879 l 647 639 q 640 507 647 567 q 609 403 632 447 q 544 335 586 360 q 432 311 501 311 q 341 324 390 311 q 249 372 292 336 q 178 471 207 407 q 150 639 150 535 q 179 820 151 751 q 249 927 207 889 q 340 978 290 965 q 432 992 389 992 l 1011 992 q 1204 933 1146 992 q 1263 775 1263 874 q 1243 642 1263 717 l 1158 310 l 1203 310 m 424 422 q 465 429 447 422 q 496 461 483 436 q 515 535 508 486 q 522 667 522 583 q 520 790 522 746 q 509 853 518 833 q 482 876 500 872 q 432 879 464 879 q 369 870 397 879 q 319 835 340 861 q 287 765 299 810 q 275 649 275 719 q 287 534 275 578 q 319 465 299 490 q 366 431 339 440 q 424 422 393 422 m 1011 539 q 1063 547 1039 539 q 1104 576 1086 556 l 1133 690 q 1142 738 1140 717 q 1144 774 1144 758 q 1132 834 1144 813 q 1099 865 1119 856 q 1051 877 1078 875 q 993 879 1024 879 q 963 876 975 879 q 944 859 951 872 q 935 817 938 846 q 932 739 932 789 q 938 633 933 672 q 952 573 943 593 q 976 547 961 553 q 1011 539 990 540 m 1113 138 q 1116 110 1108 121 q 1138 92 1124 99 q 1170 84 1153 86 q 1201 82 1188 82 q 1245 88 1224 82 q 1284 104 1267 93 q 1312 135 1301 115 q 1322 181 1322 154 q 1312 206 1322 197 q 1284 219 1301 215 q 1245 225 1267 224 q 1203 226 1224 226 l 1138 226 l 1113 138 z "},"ም":{"ha":1299,"x_min":72,"x_max":1194,"o":"m 354 992 l 933 992 q 1051 972 1001 992 q 1132 915 1100 951 q 1179 831 1164 879 q 1194 726 1194 783 q 1181 608 1194 663 q 1135 513 1167 553 q 1054 449 1104 472 q 933 426 1004 426 q 817 453 858 426 q 757 528 776 481 q 733 642 738 576 q 729 786 729 708 l 729 879 l 569 879 l 569 649 q 569 601 569 632 q 566 539 568 571 q 558 478 564 507 q 544 435 553 450 l 343 0 l 211 0 l 357 311 l 336 311 q 248 324 294 311 q 163 372 201 336 q 98 472 124 407 q 72 640 72 536 q 101 820 74 751 q 171 927 129 889 q 262 978 213 965 q 354 992 311 992 m 331 424 q 396 441 372 424 q 430 485 419 458 q 442 544 440 513 q 444 604 444 576 l 444 665 q 442 789 444 746 q 431 852 440 832 q 404 876 422 872 q 354 879 386 879 q 291 870 319 879 q 242 835 263 861 q 209 765 221 810 q 197 649 197 719 q 208 538 197 582 q 237 469 219 494 q 278 433 254 443 q 331 424 303 424 m 854 739 q 860 633 856 672 q 874 573 865 593 q 898 547 883 553 q 933 539 913 540 q 1006 551 979 539 q 1047 587 1033 564 q 1063 642 1060 610 q 1067 713 1067 674 q 1058 804 1067 771 q 1031 853 1049 838 q 990 874 1014 869 q 933 879 965 878 l 890 879 q 874 872 881 878 q 863 851 867 865 q 856 809 858 836 q 854 739 854 782 z "},"ሞ":{"ha":1303,"x_min":76,"x_max":1197,"o":"m 357 992 l 936 992 q 1053 971 1004 992 q 1135 913 1103 950 q 1182 825 1167 876 q 1197 713 1197 774 q 1183 602 1197 654 q 1137 511 1168 550 q 1056 449 1106 472 q 936 426 1006 426 q 820 453 861 426 q 760 528 779 481 q 736 642 740 576 q 732 786 732 708 l 732 879 l 572 879 l 572 0 l 447 0 l 447 331 q 424 322 433 325 q 406 316 414 318 q 388 313 397 314 q 365 311 379 313 q 354 310 360 311 q 342 310 349 310 q 250 325 297 310 q 165 378 203 340 q 101 478 126 415 q 76 636 76 540 q 104 820 76 750 q 174 928 132 890 q 265 979 215 967 q 357 992 314 992 m 201 649 q 213 538 201 582 q 243 469 224 494 q 289 434 263 444 q 349 424 315 424 q 396 433 376 424 q 428 479 415 443 q 442 550 438 506 q 447 665 447 594 q 445 789 447 746 q 434 852 443 832 q 407 876 425 872 q 357 879 389 879 q 295 870 324 879 q 246 835 267 861 q 213 765 225 810 q 201 649 201 719 m 936 539 q 1009 551 982 539 q 1049 587 1036 564 q 1067 642 1063 610 q 1071 713 1071 674 q 1062 804 1071 771 q 1035 853 1053 838 q 993 874 1018 869 q 936 879 968 878 l 892 879 q 876 872 882 878 q 866 851 869 865 q 860 809 863 836 q 857 739 858 782 q 864 633 858 672 q 879 573 869 593 q 903 547 889 553 q 936 539 917 540 z "},"ሟ":{"ha":1646,"x_min":179,"x_max":1393,"o":"m 179 640 q 208 820 181 751 q 278 927 236 889 q 367 978 319 965 q 458 992 415 992 l 1039 992 q 1093 989 1064 992 q 1151 978 1122 986 q 1206 954 1179 969 q 1251 913 1232 939 q 1290 809 1281 874 q 1272 643 1299 744 l 1129 110 l 1151 110 q 1281 103 1219 110 q 1393 76 1342 96 l 1369 -43 q 1288 -12 1340 -24 q 1151 0 1236 0 l 974 0 q 839 -12 890 0 q 757 -42 788 -24 l 735 76 q 847 103 786 96 q 974 110 907 110 l 1004 110 l 1093 435 q 1065 428 1076 431 q 1039 426 1054 426 q 924 453 965 426 q 863 528 883 481 q 839 642 843 576 q 835 786 835 708 l 835 879 l 675 879 l 675 671 q 671 527 676 593 q 643 413 665 461 q 577 338 621 365 q 458 311 533 311 q 368 324 417 311 q 278 372 319 336 q 208 472 236 408 q 179 640 179 536 m 304 649 q 316 534 304 578 q 349 466 328 490 q 397 433 369 442 q 458 424 425 424 q 497 431 479 424 q 526 463 514 438 q 544 536 538 488 q 550 667 550 585 q 548 790 550 746 q 537 853 546 833 q 509 876 528 872 q 458 879 490 879 q 397 870 425 879 q 349 835 369 861 q 316 765 328 810 q 304 649 304 719 m 1039 539 q 1089 547 1065 539 q 1129 576 1113 556 l 1160 692 q 1168 792 1174 756 q 1144 849 1163 829 q 1099 874 1126 868 q 1039 879 1071 879 l 1021 879 q 991 876 1003 879 q 973 859 979 872 q 964 817 967 846 q 960 739 961 789 q 966 633 961 672 q 981 573 971 593 q 1005 547 990 553 q 1039 539 1019 540 z "},"ሠ":{"ha":1188,"x_min":118,"x_max":1079,"o":"m 118 358 l 118 990 l 243 990 l 243 358 q 249 263 243 307 q 272 185 254 218 q 326 132 290 151 q 419 113 361 113 q 465 117 444 113 q 502 144 486 121 q 527 218 518 168 q 536 358 536 268 l 536 990 l 661 990 l 661 526 q 672 388 661 438 q 702 315 683 338 q 746 287 721 292 q 797 282 771 282 q 864 292 835 282 q 913 328 893 301 q 944 403 933 356 q 954 526 954 450 l 954 990 l 1079 990 l 1079 526 q 1051 349 1079 418 q 982 238 1024 279 q 891 182 940 197 q 797 167 842 167 q 644 208 701 171 q 622 123 638 161 q 580 58 607 85 q 512 15 553 31 q 413 0 471 0 q 317 15 369 0 q 222 71 265 31 q 148 181 178 111 q 118 358 118 250 z "},"ሡ":{"ha":1460,"x_min":117,"x_max":1361,"o":"m 117 990 l 242 990 l 242 358 q 247 263 242 307 q 271 185 253 218 q 324 132 289 151 q 418 113 360 113 q 465 117 443 113 q 501 144 486 121 q 526 218 517 168 q 535 358 535 268 l 535 990 l 660 990 l 660 526 q 671 388 660 438 q 701 315 682 338 q 744 287 719 292 q 796 282 769 282 q 863 292 833 282 q 912 328 892 301 q 942 403 932 356 q 953 526 953 450 l 953 990 l 1078 990 l 1078 714 l 1125 714 q 1252 706 1192 714 q 1361 679 1313 699 l 1339 563 q 1259 593 1310 582 q 1125 604 1208 604 l 1078 604 l 1078 526 q 1050 349 1078 418 q 981 238 1022 279 q 890 182 939 197 q 796 167 840 167 q 646 208 700 171 q 623 123 639 161 q 580 58 607 85 q 511 15 553 31 q 411 0 469 0 q 317 15 368 0 q 221 71 265 31 q 147 181 176 111 q 117 358 117 250 l 117 990 z "},"ሢ":{"ha":1400,"x_min":163,"x_max":1222,"o":"m 163 990 l 288 990 l 288 656 q 293 560 288 604 q 317 482 299 515 q 371 430 336 449 q 464 411 406 411 q 510 415 489 411 q 547 443 532 419 q 572 516 563 467 q 581 656 581 565 l 581 990 l 706 990 l 706 825 q 717 681 706 731 q 748 608 729 631 q 792 583 767 586 q 842 578 817 579 q 910 588 881 578 q 959 624 939 597 q 989 700 979 651 q 999 825 999 749 l 999 990 l 1124 990 l 1124 825 q 1117 735 1124 778 q 1101 660 1111 692 l 969 218 q 957 158 957 179 q 967 126 957 136 q 999 113 978 115 q 1051 111 1021 111 l 1064 111 q 1107 112 1085 111 q 1151 113 1129 113 q 1192 115 1174 114 q 1222 118 1210 117 l 1219 4 q 1165 3 1196 4 q 1103 2 1135 3 q 1042 1 1072 1 q 988 0 1011 0 q 885 13 921 0 q 834 51 849 25 q 824 115 819 76 q 843 206 828 154 l 925 482 q 883 469 901 474 q 842 465 864 465 q 756 476 793 465 q 692 507 719 488 q 668 422 683 460 q 626 356 653 383 q 557 313 599 328 q 457 297 515 297 q 362 313 414 297 q 266 368 310 328 q 192 478 222 408 q 163 656 163 547 l 163 990 z "},"ሣ":{"ha":1124,"x_min":89,"x_max":1050,"o":"m 89 990 l 214 990 l 214 656 q 219 560 214 604 q 244 482 225 515 q 297 430 263 449 q 390 411 332 411 q 435 415 414 411 q 472 443 457 419 q 497 516 488 467 q 506 656 506 565 l 506 990 l 631 990 l 631 825 q 642 681 631 731 q 673 608 654 631 q 717 583 692 586 q 768 578 742 579 q 835 588 806 578 q 884 624 864 597 q 915 700 904 651 q 925 825 925 749 l 925 990 l 1050 990 l 1050 825 q 1044 735 1050 772 q 1024 654 1038 699 l 829 0 l 707 0 l 849 482 q 804 469 825 474 q 768 465 783 465 q 681 476 719 465 q 615 507 643 488 q 593 422 608 460 q 551 356 578 383 q 483 313 524 328 q 383 297 442 297 q 288 313 340 297 q 192 368 236 328 q 119 478 149 408 q 89 656 89 547 l 89 990 z "},"ሤ":{"ha":1432,"x_min":164,"x_max":1272,"o":"m 289 990 l 289 656 q 294 560 289 604 q 319 482 300 515 q 372 430 338 449 q 465 411 407 411 q 512 415 490 411 q 549 443 533 419 q 574 516 565 467 q 583 656 583 565 l 583 990 l 708 990 l 708 825 q 720 681 708 731 q 751 608 732 631 q 794 583 769 586 q 844 578 818 579 q 910 588 882 578 q 959 624 939 597 q 990 700 979 651 q 1000 825 1000 749 l 1000 990 l 1125 990 l 1125 825 q 1122 749 1125 781 q 1108 686 1118 718 l 1003 321 l 1047 321 q 1128 317 1088 321 q 1200 301 1168 314 q 1252 260 1232 288 q 1272 183 1272 232 q 1250 98 1272 133 q 1192 40 1228 63 q 1113 8 1157 18 q 1022 -1 1068 -1 q 958 3 996 -1 q 888 22 921 7 q 835 63 854 36 q 826 135 815 90 l 928 482 q 882 469 904 474 q 844 465 860 465 q 758 476 794 465 q 693 507 721 488 q 670 422 686 460 q 627 356 654 383 q 558 313 600 328 q 458 297 517 297 q 364 313 415 297 q 268 368 313 328 q 194 478 224 408 q 164 656 164 547 l 164 990 l 289 990 m 1024 83 q 1069 88 1047 83 q 1109 102 1092 92 q 1138 129 1126 113 q 1149 169 1149 146 q 1138 207 1149 193 q 1110 228 1126 221 q 1073 236 1093 235 q 1035 238 1053 238 l 981 238 l 950 132 q 951 106 944 115 q 970 92 958 97 q 997 85 982 86 q 1024 83 1013 83 z "},"ሥ":{"ha":1351,"x_min":86,"x_max":1225,"o":"m 265 601 q 263 628 264 615 q 263 656 263 642 l 263 990 l 388 990 l 388 656 q 393 560 388 604 q 417 482 399 515 q 472 430 436 449 q 565 411 507 411 q 611 415 590 411 q 648 443 632 419 q 673 516 664 467 q 682 656 682 565 l 682 990 l 807 990 l 807 825 q 818 681 807 731 q 848 608 829 631 q 892 583 867 586 q 943 578 917 579 q 1010 588 981 578 q 1059 624 1039 597 q 1090 700 1079 651 q 1100 825 1100 749 l 1100 990 l 1225 990 l 1225 825 q 1197 647 1225 717 q 1128 537 1169 578 q 1037 481 1086 496 q 943 465 988 465 q 856 476 894 465 q 790 507 818 488 q 768 422 783 460 q 726 356 753 383 q 658 313 699 328 q 558 297 617 297 q 501 301 531 297 q 442 318 471 306 q 385 353 413 331 q 333 410 357 375 l 210 1 l 86 1 l 265 601 z "},"ሦ":{"ha":1164,"x_min":89,"x_max":1050,"o":"m 89 656 l 89 990 l 214 990 l 214 656 q 219 560 214 604 q 244 482 225 515 q 297 430 263 449 q 390 411 332 411 q 435 415 414 411 q 472 443 457 419 q 497 516 488 467 q 506 656 506 565 l 506 990 l 631 990 l 631 825 q 642 681 631 731 q 673 608 654 631 q 717 583 692 586 q 768 578 742 579 q 835 588 806 578 q 884 624 864 597 q 915 700 904 651 q 925 825 925 749 l 925 990 l 1050 990 l 1050 825 q 1022 647 1050 717 q 953 537 994 578 q 862 481 911 496 q 768 465 813 465 q 685 476 719 465 q 622 507 650 488 q 617 474 619 489 q 608 443 614 458 l 464 0 l 340 0 l 436 301 q 410 299 424 300 q 383 297 396 297 q 288 313 340 297 q 192 368 236 328 q 119 478 149 408 q 89 656 89 547 z "},"ሧ":{"ha":1496,"x_min":186,"x_max":1222,"o":"m 186 656 l 186 990 l 311 990 l 311 656 q 317 560 311 604 q 341 482 322 515 q 394 430 360 449 q 488 411 429 411 q 533 416 513 411 q 569 444 554 421 q 594 517 585 467 q 603 656 603 567 l 603 990 l 728 990 l 728 825 q 740 681 728 731 q 770 608 751 631 q 814 583 789 586 q 865 578 839 579 q 932 588 903 578 q 981 624 961 597 q 1010 700 1000 651 q 1021 825 1021 749 l 1021 990 l 1146 990 l 1146 825 q 1142 751 1146 785 q 1131 686 1139 718 l 957 110 l 982 110 q 1110 103 1049 110 q 1222 76 1171 96 l 1197 -43 q 1115 -12 1167 -24 q 979 0 1064 0 l 804 0 q 669 -12 721 0 q 588 -42 618 -24 l 569 76 q 678 103 618 96 q 806 110 739 110 l 835 110 l 946 479 q 901 468 922 471 q 860 465 879 465 q 778 476 815 465 q 713 507 740 488 q 690 421 706 460 q 648 354 675 382 q 579 311 621 326 q 479 296 538 296 q 385 311 436 296 q 290 367 333 326 q 216 478 246 408 q 186 656 186 547 z "},"ረ":{"ha":764,"x_min":60,"x_max":685,"o":"m 685 113 l 685 0 l 292 0 q 199 19 242 0 q 126 71 157 38 q 77 149 94 104 q 60 244 60 193 q 82 354 60 304 q 138 450 104 404 q 210 538 171 496 q 282 623 249 581 q 338 710 315 665 q 360 804 360 754 l 358 990 l 485 990 l 485 804 q 463 679 485 735 q 408 577 440 624 q 336 490 375 531 q 265 411 297 450 q 210 334 232 372 q 188 251 188 296 q 225 153 188 193 q 321 113 263 113 l 685 113 z "},"ሩ":{"ha":846,"x_min":94,"x_max":747,"o":"m 94 464 q 117 581 94 535 q 172 661 139 628 q 245 719 206 694 q 318 767 285 743 q 374 822 351 792 q 396 896 396 851 l 396 990 l 524 990 q 523 977 524 990 q 522 947 522 964 q 520 915 521 931 q 519 896 519 900 q 497 791 519 832 q 442 722 475 750 q 371 672 410 693 q 299 626 332 651 q 244 566 267 600 q 222 478 222 532 q 233 427 222 451 q 260 385 243 403 q 302 356 278 367 q 356 344 326 344 l 747 344 l 747 231 l 543 231 l 543 -1 l 418 -1 l 418 231 l 328 231 q 235 249 278 231 q 162 301 193 268 q 113 376 131 333 q 94 464 94 418 z "},"ሪ":{"ha":782,"x_min":61,"x_max":699,"o":"m 699 390 l 699 232 q 681 142 699 185 q 631 68 663 100 q 558 18 600 36 q 467 0 515 0 l 294 0 q 202 19 244 0 q 128 71 160 38 q 79 149 97 104 q 61 244 61 193 q 83 353 61 303 q 139 449 106 404 q 211 537 172 494 q 283 622 250 579 q 339 709 317 664 q 361 804 361 754 l 361 990 l 489 990 l 486 804 q 464 681 486 736 q 408 580 442 626 q 337 493 375 533 q 265 415 299 453 q 210 338 232 376 q 188 254 188 299 q 226 153 188 194 q 324 113 265 113 l 450 113 q 541 153 508 113 q 574 249 574 193 l 574 390 l 699 390 z "},"ራ":{"ha":1010,"x_min":85,"x_max":890,"o":"m 763 410 q 824 406 790 410 q 890 394 857 401 l 890 285 q 819 295 856 293 q 751 297 783 297 q 653 278 693 297 q 590 226 614 260 q 556 148 567 193 q 546 51 546 103 q 532 15 547 31 q 497 0 517 0 l 318 0 q 226 19 268 0 q 152 71 183 38 q 103 149 121 104 q 85 244 85 193 q 107 353 85 303 q 163 449 129 404 q 235 537 196 494 q 307 622 274 579 q 363 709 340 664 q 385 804 385 754 l 385 990 l 510 990 l 510 804 q 488 679 510 735 q 433 577 465 624 q 361 490 400 531 q 290 411 322 450 q 235 334 257 372 q 213 251 213 296 q 223 197 213 222 q 251 153 233 172 q 293 124 268 135 q 347 113 318 113 l 424 113 q 471 259 433 201 q 558 350 508 317 q 663 397 608 383 q 763 410 718 410 z "},"ሬ":{"ha":901,"x_min":54,"x_max":839,"o":"m 632 392 q 783 337 726 392 q 839 190 839 282 q 833 119 839 154 q 813 58 828 85 q 770 16 797 32 q 699 0 743 0 l 288 0 q 195 19 238 0 q 122 71 153 38 q 72 149 90 104 q 54 243 54 193 q 76 351 54 301 q 132 447 99 401 q 204 535 165 492 q 276 621 243 578 q 332 709 310 664 q 354 804 354 754 l 354 990 l 481 990 l 479 804 q 457 679 479 735 q 402 577 435 624 q 331 490 369 531 q 259 411 292 450 q 204 334 226 372 q 182 251 182 296 q 192 197 182 222 q 220 153 203 172 q 263 124 238 135 q 317 113 288 113 l 429 113 l 428 201 q 444 283 428 247 q 488 343 460 319 q 552 379 515 367 q 632 392 589 392 m 658 83 q 701 115 688 83 q 715 186 715 146 q 711 228 715 207 q 697 267 707 250 q 672 297 688 285 q 632 308 656 308 q 567 281 596 308 q 539 200 539 254 l 539 154 q 553 97 539 110 q 596 83 567 83 l 658 83 z "},"ር":{"ha":819,"x_min":115,"x_max":688,"o":"m 688 114 l 688 1 q 662 1 685 1 q 606 0 639 0 q 535 0 572 0 q 464 0 497 0 q 408 0 431 0 q 383 0 386 0 q 252 28 304 0 q 169 106 200 57 q 127 219 139 154 q 115 358 115 285 l 115 633 q 137 760 115 706 q 192 855 158 815 q 270 921 226 894 q 358 963 314 947 q 442 985 401 979 q 513 992 483 992 q 614 976 571 992 q 688 933 657 961 l 619 840 q 569 873 597 868 q 513 879 540 878 q 428 869 475 879 q 339 833 381 860 q 269 758 297 806 q 240 633 240 710 l 240 358 q 253 217 240 267 q 285 145 265 168 q 331 118 306 122 q 383 114 357 114 l 688 114 z "},"ሮ":{"ha":907,"x_min":85,"x_max":819,"o":"m 676 992 q 788 949 757 992 q 819 824 819 906 q 615 603 819 603 q 465 646 511 603 q 418 799 418 689 l 418 875 q 342 860 379 871 q 275 822 304 849 q 228 749 246 794 q 210 633 210 704 l 210 358 q 222 217 210 267 q 255 145 235 168 q 301 118 275 122 q 353 114 326 114 l 657 114 l 657 1 q 631 1 654 1 q 575 0 608 0 q 504 0 542 0 q 433 0 467 0 q 378 0 400 0 q 353 0 356 0 q 222 28 274 0 q 139 106 169 57 q 97 219 108 154 q 85 358 85 285 l 85 633 q 106 760 85 706 q 162 855 128 815 q 240 921 196 894 q 327 963 283 947 q 412 985 371 979 q 482 992 453 992 l 676 992 m 604 686 q 649 698 632 686 q 677 729 667 710 q 692 774 688 749 q 696 826 696 800 q 687 883 696 857 q 642 908 678 908 l 581 908 q 551 895 561 908 q 535 864 540 882 q 530 826 531 846 q 529 792 529 806 q 531 754 529 774 q 542 720 533 735 q 565 696 550 706 q 604 686 579 686 z "},"ሯ":{"ha":1019,"x_min":94,"x_max":900,"o":"m 94 242 q 117 351 94 300 q 172 447 139 401 q 245 536 206 493 q 318 622 285 579 q 374 710 351 665 q 396 804 396 754 l 394 881 l 371 881 q 240 888 301 881 q 129 915 179 896 l 153 1033 q 233 1002 181 1014 q 371 990 285 990 l 549 990 q 683 1001 632 990 q 764 1032 733 1013 l 786 914 q 675 888 735 896 q 549 881 615 881 l 521 881 l 521 804 q 499 681 521 736 q 444 578 476 625 q 372 492 411 532 q 301 413 333 451 q 246 336 268 375 q 224 253 224 297 q 260 153 224 194 q 356 113 297 113 l 432 113 q 481 259 443 201 q 569 351 519 317 q 674 398 619 385 q 774 411 729 411 q 835 407 801 411 q 900 396 868 403 l 900 285 q 828 295 864 293 q 763 297 793 297 q 663 278 703 297 q 599 226 624 260 q 565 149 575 193 q 556 51 556 104 q 541 15 556 31 q 504 0 526 0 l 326 0 q 234 19 276 0 q 160 70 192 38 q 112 147 129 103 q 94 242 94 192 z "},"ሰ":{"ha":790,"x_min":97,"x_max":685,"o":"m 97 490 q 117 633 97 574 q 171 734 138 693 q 245 799 204 775 q 328 836 286 824 l 328 1053 l 453 1053 l 453 850 q 572 817 526 846 q 642 742 617 789 q 676 630 667 694 q 685 490 685 565 l 685 0 l 560 0 l 560 490 q 550 632 560 582 q 524 706 540 682 q 484 733 507 729 q 436 738 461 738 q 270 671 318 738 q 222 490 222 604 l 222 0 l 97 0 l 97 490 z "},"ሱ":{"ha":1089,"x_min":101,"x_max":974,"o":"m 101 0 l 101 490 q 122 633 101 574 q 175 734 142 693 q 250 799 208 775 q 333 836 292 824 l 333 1053 l 458 1053 l 458 850 q 576 821 531 846 q 646 753 621 796 q 681 653 671 711 q 690 522 690 594 l 736 522 q 863 515 803 522 q 974 488 922 507 l 950 372 q 869 401 921 390 q 736 413 818 413 l 690 413 l 690 0 l 565 0 l 565 490 q 556 632 565 582 q 528 706 546 682 q 488 733 511 729 q 440 738 465 738 q 340 720 381 738 q 274 670 299 703 q 238 592 249 638 q 226 490 226 547 l 226 0 l 101 0 z "},"ሲ":{"ha":1132,"x_min":143,"x_max":979,"o":"m 732 236 q 739 173 732 197 q 761 135 746 149 q 801 116 776 121 q 864 111 826 111 q 924 113 892 111 q 979 119 957 115 l 979 4 q 901 2 939 4 q 828 0 863 0 q 724 10 767 0 q 656 45 682 21 q 619 109 631 69 q 607 207 607 149 l 607 490 q 597 632 607 582 q 571 706 588 682 q 532 733 554 729 q 485 738 510 738 q 317 671 367 738 q 268 490 268 604 l 268 0 l 143 0 l 143 490 q 164 633 143 574 q 218 734 185 693 q 293 799 251 775 q 376 836 335 824 l 376 1053 l 501 1053 l 501 850 q 620 817 575 846 q 690 742 665 789 q 724 630 715 694 q 732 490 732 565 l 732 236 z "},"ሳ":{"ha":803,"x_min":101,"x_max":689,"o":"m 457 850 q 576 817 531 846 q 646 742 621 789 q 680 630 671 694 q 689 490 689 565 l 689 0 l 564 0 l 564 490 q 554 632 564 582 q 527 706 544 682 q 488 733 510 729 q 440 738 465 738 q 340 720 381 738 q 274 670 299 703 q 238 592 249 638 q 226 490 226 547 l 226 313 l 101 313 l 101 490 q 122 633 101 574 q 175 734 142 693 q 249 799 208 775 q 332 836 290 824 l 332 1053 l 457 1053 l 457 850 z "},"ሴ":{"ha":1115,"x_min":126,"x_max":1008,"o":"m 126 490 q 147 633 126 574 q 201 734 168 693 q 275 799 233 775 q 358 836 317 824 l 358 1053 l 483 1053 l 483 850 q 603 817 558 846 q 673 742 649 789 q 706 630 697 694 q 714 490 714 565 l 714 324 l 772 324 q 856 319 814 324 q 932 301 899 315 q 987 256 965 286 q 1008 176 1008 226 q 988 92 1008 126 q 933 38 967 58 q 858 8 900 17 q 775 -1 817 -1 q 707 3 740 -1 q 647 21 674 7 q 605 60 621 35 q 589 129 589 86 l 589 490 q 579 632 589 582 q 553 706 569 682 q 514 733 536 729 q 467 738 492 738 q 300 671 349 738 q 251 490 251 604 l 251 0 l 126 0 l 126 490 m 714 128 q 735 95 714 107 q 783 83 756 83 q 853 107 822 83 q 883 171 883 131 q 872 208 883 194 q 844 228 861 221 q 808 238 828 236 q 771 240 788 240 l 714 240 l 714 128 z "},"ስ":{"ha":796,"x_min":97,"x_max":685,"o":"m 97 0 l 97 490 q 117 633 97 574 q 168 734 136 693 q 241 799 200 775 q 324 836 282 824 l 192 1053 l 332 1053 l 458 850 q 576 817 532 846 q 645 742 621 789 q 677 630 669 694 q 685 490 685 565 l 685 0 l 560 0 l 560 490 q 550 632 560 582 q 524 706 540 682 q 484 733 507 729 q 436 738 461 738 q 270 671 318 738 q 222 490 222 604 l 222 0 l 97 0 z "},"ሶ":{"ha":783,"x_min":104,"x_max":692,"o":"m 460 850 q 578 817 533 846 q 649 742 624 789 q 683 630 674 694 q 692 490 692 565 l 692 313 l 567 313 l 567 490 q 557 632 567 582 q 531 706 547 682 q 491 733 514 729 q 443 738 468 738 q 277 671 325 738 q 229 490 229 604 l 229 0 l 104 0 l 104 490 q 124 633 104 574 q 177 734 144 693 q 251 799 210 775 q 335 836 293 824 l 335 1053 l 460 1053 l 460 850 z "},"ሷ":{"ha":1025,"x_min":78,"x_max":935,"o":"m 310 838 l 310 1053 l 435 1053 l 435 850 q 555 818 510 846 q 624 742 600 790 q 657 630 649 694 q 665 490 665 565 l 665 110 l 693 110 q 822 103 761 110 q 935 76 883 96 l 911 -43 q 830 -12 882 -24 q 693 0 778 0 l 515 0 q 381 -11 432 0 q 299 -42 329 -22 l 278 76 q 388 103 328 96 q 515 110 449 110 l 540 110 l 540 490 q 531 632 540 582 q 504 706 521 682 q 465 733 488 729 q 418 738 443 738 q 251 671 299 738 q 203 490 203 604 l 203 313 l 78 313 l 78 490 q 99 633 78 574 q 152 735 119 693 q 226 801 185 776 q 310 838 268 825 z "},"ሸ":{"ha":899,"x_min":107,"x_max":764,"o":"m 107 975 l 128 1093 q 210 1062 158 1074 q 346 1050 261 1050 l 526 1050 q 660 1062 608 1050 q 740 1092 711 1074 l 764 975 q 653 948 713 956 q 526 940 593 940 l 497 940 l 497 850 q 616 817 571 846 q 686 742 661 789 q 719 630 711 694 q 728 490 728 565 l 728 0 l 603 0 l 603 490 q 593 632 603 582 q 567 706 583 682 q 528 733 550 729 q 481 738 506 738 q 313 671 363 738 q 264 490 264 604 l 264 0 l 139 0 l 139 490 q 160 633 139 574 q 214 734 181 693 q 289 799 247 775 q 372 836 331 824 l 372 940 l 346 940 q 218 948 279 940 q 107 975 157 956 z "},"ሹ":{"ha":1107,"x_min":86,"x_max":990,"o":"m 86 975 l 110 1093 q 191 1062 139 1074 q 328 1050 243 1050 l 506 1050 q 640 1062 589 1050 q 722 1092 692 1074 l 743 975 q 633 948 693 956 q 506 940 572 940 l 478 940 l 478 850 q 595 819 550 846 q 665 746 640 792 q 699 638 690 700 q 710 503 708 576 l 754 503 q 881 496 821 503 q 990 471 942 489 l 969 353 q 888 382 939 371 q 754 393 838 393 l 710 393 l 710 0 l 585 0 l 585 490 q 575 632 585 582 q 548 706 565 682 q 508 733 531 729 q 460 738 485 738 q 294 671 342 738 q 246 490 246 604 l 246 0 l 121 0 l 121 490 q 141 633 121 574 q 194 734 161 693 q 269 799 228 775 q 353 836 311 824 l 353 940 l 328 940 q 198 948 260 940 q 86 975 136 956 z "},"ሺ":{"ha":1221,"x_min":175,"x_max":1069,"o":"m 175 975 l 199 1093 q 280 1062 228 1074 q 417 1050 332 1050 l 594 1050 q 729 1062 678 1050 q 811 1092 781 1074 l 833 975 q 722 948 782 956 q 594 940 661 940 l 568 940 l 568 850 q 687 817 642 846 q 757 742 732 789 q 791 630 782 694 q 800 490 800 565 l 800 232 q 807 166 800 190 q 829 129 814 142 q 869 113 844 117 q 931 110 894 110 q 1006 112 965 110 q 1069 118 1046 114 l 1069 4 q 1026 3 1050 4 q 980 2 1003 3 q 935 1 957 1 q 897 0 914 0 q 726 48 776 0 q 675 207 675 96 l 675 490 q 665 632 675 582 q 639 706 656 682 q 599 733 622 729 q 551 738 576 738 q 385 671 433 738 q 336 490 336 604 l 336 0 l 211 0 l 211 490 q 231 633 211 574 q 285 734 251 693 q 360 799 318 775 q 443 836 401 824 l 443 940 l 417 940 q 288 948 349 940 q 175 975 226 956 z "},"ሻ":{"ha":982,"x_min":165,"x_max":822,"o":"m 165 975 l 186 1093 q 268 1062 217 1074 q 404 1050 319 1050 l 585 1050 q 718 1062 667 1050 q 799 1092 769 1074 l 822 975 q 711 948 771 956 q 585 940 651 940 l 556 940 l 556 850 q 674 817 629 846 q 744 742 719 789 q 778 630 769 694 q 786 490 786 565 l 786 0 l 661 0 l 661 490 q 651 632 661 582 q 625 706 642 682 q 586 733 608 729 q 539 738 564 738 q 372 671 421 738 q 322 490 322 604 l 322 313 l 197 313 l 197 490 q 218 633 197 574 q 272 734 239 693 q 347 799 306 775 q 431 836 389 824 l 431 940 l 404 940 q 276 948 338 940 q 165 975 215 956 z "},"ሼ":{"ha":1139,"x_min":104,"x_max":1028,"o":"m 104 978 l 128 1093 q 208 1062 156 1074 q 346 1050 261 1050 l 524 1050 q 658 1062 607 1050 q 739 1092 710 1074 l 761 978 q 651 951 711 958 q 524 943 590 943 l 496 943 l 496 850 q 615 817 569 846 q 685 742 660 789 q 718 630 710 694 q 726 490 726 565 l 726 324 l 785 324 q 868 319 825 324 q 947 301 911 315 q 1005 256 982 286 q 1028 176 1028 226 q 1005 92 1028 126 q 946 38 982 58 q 866 8 910 17 q 782 -1 822 -1 q 715 3 747 -1 q 657 21 682 7 q 617 60 632 35 q 601 129 601 86 l 601 490 q 592 632 601 582 q 565 706 582 682 q 526 733 549 729 q 478 738 503 738 q 312 671 360 738 q 264 490 264 604 l 264 0 l 139 0 l 139 490 q 159 633 139 574 q 213 734 179 693 q 288 799 246 775 q 371 836 329 824 l 371 943 l 346 943 q 215 951 276 943 q 104 978 154 958 m 726 129 q 750 96 726 108 q 803 83 774 83 q 873 107 843 83 q 903 171 903 131 q 890 210 903 196 q 860 231 878 224 q 820 239 842 238 q 782 240 799 240 l 726 240 l 726 129 z "},"ሽ":{"ha":944,"x_min":101,"x_max":786,"o":"m 129 1093 q 214 1062 160 1074 q 353 1050 268 1050 l 519 1050 q 657 1062 603 1050 q 739 1092 711 1074 l 767 975 q 656 948 717 956 q 529 940 596 940 l 497 940 l 558 850 q 676 817 632 846 q 745 742 721 789 q 778 630 769 694 q 786 490 786 565 l 786 0 l 661 0 l 661 490 q 651 632 661 582 q 625 706 642 682 q 585 733 608 729 q 538 738 563 738 q 371 671 419 738 q 322 490 322 604 l 322 0 l 197 0 l 197 490 q 217 633 197 574 q 269 734 238 693 q 342 799 301 775 q 425 836 383 824 l 360 940 l 342 940 q 214 948 275 940 q 101 975 153 956 l 129 1093 z "},"ሾ":{"ha":921,"x_min":138,"x_max":793,"o":"m 138 975 l 160 1093 q 241 1062 189 1074 q 378 1050 293 1050 l 556 1050 q 690 1062 639 1050 q 772 1092 742 1074 l 793 975 q 683 948 743 956 q 556 940 622 940 l 528 940 l 528 850 q 647 817 601 846 q 718 742 693 789 q 752 630 743 694 q 761 490 761 565 l 761 313 l 636 313 l 636 490 q 626 632 636 582 q 599 706 617 682 q 559 733 582 729 q 511 738 536 738 q 345 671 393 738 q 297 490 297 604 l 297 0 l 172 0 l 172 490 q 192 633 172 574 q 245 734 213 693 q 319 799 278 775 q 403 836 361 824 l 403 940 l 378 940 q 249 948 310 940 q 138 975 189 956 z "},"ሿ":{"ha":1103,"x_min":129,"x_max":1017,"o":"m 129 975 l 151 1093 q 233 1062 182 1074 q 369 1050 285 1050 l 549 1050 q 683 1062 632 1050 q 763 1092 733 1074 l 785 975 q 676 948 736 956 q 549 940 615 940 l 519 940 l 519 850 q 638 817 593 846 q 708 742 683 789 q 742 630 733 694 q 751 490 751 565 l 751 108 l 778 108 q 906 101 844 108 q 1017 75 967 93 l 996 -43 q 914 -12 965 -24 q 778 -1 863 -1 l 610 -1 q 476 -12 528 -1 q 396 -42 425 -24 l 372 75 q 483 101 424 94 q 610 108 543 108 l 626 108 l 626 490 q 617 632 626 582 q 590 706 607 682 q 551 733 574 729 q 503 738 528 738 q 337 671 385 738 q 289 490 289 604 l 289 313 l 164 313 l 164 490 q 184 633 164 574 q 237 734 204 693 q 311 799 269 775 q 394 836 353 824 l 394 940 l 369 940 q 242 948 303 940 q 129 975 181 956 z "},"ቀ":{"ha":1022,"x_min":96,"x_max":901,"o":"m 96 532 q 113 629 96 586 q 160 702 131 672 q 232 748 190 732 q 324 764 274 764 q 438 739 386 764 l 438 993 l 563 993 l 563 742 q 669 764 611 764 q 764 748 721 764 q 838 703 807 732 q 885 631 868 674 q 901 533 901 588 q 871 415 901 458 q 792 348 840 371 q 683 319 743 325 q 563 313 622 313 l 563 0 l 438 0 l 438 313 q 317 319 378 313 q 206 348 256 325 q 126 414 157 371 q 96 532 96 457 m 221 538 q 248 465 224 490 q 308 429 272 439 q 383 419 343 419 q 412 420 399 419 q 438 422 425 421 l 438 600 q 424 624 433 614 q 401 641 414 635 q 376 651 389 647 q 356 654 364 654 q 256 627 290 654 q 221 538 221 600 m 563 607 l 563 422 q 588 420 575 421 q 614 419 600 419 q 674 425 644 419 q 726 444 703 431 q 763 483 749 458 q 776 543 776 507 q 741 626 776 601 q 644 654 706 651 q 600 643 626 654 q 563 607 574 632 z "},"ቁ":{"ha":1003,"x_min":90,"x_max":894,"o":"m 90 613 q 108 709 90 667 q 155 781 125 751 q 226 826 185 811 q 318 842 268 842 q 432 817 381 842 l 432 993 l 557 993 l 557 817 q 667 843 606 843 q 756 827 714 843 q 828 781 797 811 q 876 708 858 751 q 894 610 894 664 q 864 493 894 536 q 785 427 833 450 q 676 397 736 404 q 557 390 615 390 l 557 265 l 619 265 q 745 258 686 265 q 856 232 804 250 l 833 117 q 752 145 803 135 q 619 156 701 156 l 557 156 l 557 0 l 432 0 l 432 390 q 312 397 372 390 q 202 427 251 404 q 122 494 153 450 q 90 613 90 538 m 379 499 q 406 499 393 499 q 432 500 419 499 l 432 676 q 397 718 424 706 q 350 731 371 731 l 347 731 q 243 703 282 731 q 204 615 204 676 q 222 555 206 578 q 262 519 238 532 q 317 503 286 507 q 379 499 347 499 m 610 499 q 669 503 639 499 q 723 519 699 507 q 764 555 747 532 q 782 615 781 578 q 742 704 782 678 q 636 731 701 731 l 633 731 q 592 719 617 731 q 557 685 568 708 l 557 500 q 581 499 568 500 q 610 499 593 499 z "},"ቂ":{"ha":906,"x_min":93,"x_max":897,"o":"m 321 764 q 435 739 383 764 l 435 993 l 560 993 l 560 742 q 665 764 608 764 q 756 749 714 764 q 830 704 799 733 q 879 635 861 675 q 897 544 897 594 q 867 421 897 467 q 790 351 838 375 q 681 319 742 326 q 560 313 621 313 l 560 217 q 566 156 560 178 q 587 124 572 135 q 624 112 601 114 q 676 110 646 110 q 747 110 711 110 q 817 117 782 111 l 817 4 q 731 2 776 4 q 650 0 685 0 q 485 42 536 0 q 435 194 435 85 l 435 313 q 314 319 375 313 q 204 349 253 326 q 124 416 156 372 q 93 535 93 460 q 110 631 93 589 q 158 703 128 674 q 229 748 188 732 q 321 764 271 764 m 218 538 q 235 477 219 500 q 274 442 250 454 q 328 425 299 429 q 389 421 358 421 q 412 421 400 421 q 435 422 424 421 l 435 600 q 421 624 431 614 q 399 641 411 635 q 374 651 386 647 q 353 654 361 654 q 253 627 288 654 q 218 538 218 600 m 560 422 q 581 421 571 421 q 603 421 592 421 q 664 425 635 421 q 717 442 693 429 q 756 477 740 454 q 772 538 771 500 q 739 626 772 599 q 642 654 706 654 q 597 643 624 654 q 560 607 571 632 l 560 422 z "},"ቃ":{"ha":950,"x_min":57,"x_max":863,"o":"m 57 533 q 74 631 57 588 q 122 703 92 674 q 195 749 153 733 q 288 764 238 764 q 396 742 347 764 l 396 993 l 521 993 l 521 739 q 636 764 574 764 q 800 703 738 764 q 863 533 863 642 q 832 415 863 458 q 752 349 801 371 q 642 320 703 326 q 521 314 582 314 l 521 272 q 445 62 521 125 q 229 -1 369 -1 q 167 1 196 -1 q 118 6 138 3 l 124 115 q 183 110 151 113 q 242 107 214 107 q 322 117 292 107 q 369 149 353 128 q 390 203 385 171 q 396 276 396 235 l 396 314 q 276 320 336 314 q 167 349 215 326 q 88 415 118 372 q 57 533 57 458 m 521 599 l 521 424 q 550 422 536 422 q 578 422 564 422 q 639 427 610 422 q 690 444 668 432 q 725 479 713 457 q 738 536 738 501 q 726 592 738 569 q 698 627 715 614 q 659 647 681 640 q 617 653 638 653 q 557 640 585 653 q 521 599 529 628 m 182 539 q 202 474 185 497 q 247 438 219 450 q 310 424 275 426 q 381 422 344 422 l 396 422 l 396 607 q 381 628 390 619 q 359 642 371 638 q 336 650 347 647 q 317 653 325 653 q 217 627 253 653 q 182 539 182 601 z "},"ቄ":{"ha":872,"x_min":50,"x_max":857,"o":"m 279 893 q 393 868 342 893 l 393 1051 l 518 1051 l 518 869 q 629 894 568 894 q 719 878 678 894 q 792 833 761 863 q 840 759 822 803 q 857 661 857 715 q 826 543 857 586 q 747 478 796 500 q 637 449 697 456 q 518 443 576 443 l 518 324 l 569 324 q 655 319 611 324 q 733 301 699 315 q 790 258 768 286 q 813 179 813 229 q 788 93 813 128 q 728 38 764 58 q 648 8 692 17 q 564 0 604 0 q 499 4 529 0 q 444 22 468 8 q 407 62 421 36 q 393 129 393 88 l 393 443 q 272 449 333 443 q 162 476 211 454 q 81 542 113 499 q 50 661 50 586 q 67 760 50 717 q 115 833 85 803 q 188 878 146 863 q 279 893 231 893 m 175 668 q 189 608 175 631 q 226 572 203 585 q 281 556 250 560 q 343 551 311 551 q 369 551 357 551 q 393 553 382 551 l 393 729 q 379 753 389 743 q 357 770 369 764 q 332 780 344 776 q 310 783 319 783 q 213 756 250 781 q 175 668 175 731 m 518 553 l 547 553 q 615 556 582 553 q 674 569 649 558 q 716 603 700 581 q 732 667 732 626 q 695 755 732 729 q 599 783 658 781 q 555 773 581 783 q 518 738 529 763 l 518 553 m 518 240 l 518 129 q 540 96 518 107 q 588 85 561 85 q 658 109 628 85 q 689 172 689 133 q 676 210 689 196 q 645 231 664 224 q 605 239 626 238 q 567 240 583 240 l 518 240 z "},"ቅ":{"ha":971,"x_min":83,"x_max":890,"o":"m 83 442 q 101 540 83 497 q 149 613 118 583 q 222 658 179 643 q 313 674 264 674 q 426 649 375 674 l 426 838 l 375 838 q 247 882 293 838 q 199 1014 201 926 l 199 1058 l 324 1058 l 324 1006 q 342 947 326 967 q 408 928 357 928 l 551 928 l 551 650 q 664 674 606 674 q 754 658 713 674 q 826 614 796 643 q 874 544 857 585 q 890 454 890 504 q 860 326 890 371 q 781 258 829 281 q 672 231 732 236 q 551 222 611 225 l 551 0 l 426 0 l 426 222 q 305 228 367 222 q 194 257 243 235 q 115 323 146 279 q 83 442 83 367 m 378 331 q 403 331 390 331 q 426 332 415 331 l 426 510 q 413 534 422 524 q 390 551 403 544 q 365 560 378 557 q 343 564 353 564 q 247 533 285 560 q 208 449 208 507 q 223 388 208 411 q 262 352 238 365 q 317 335 286 339 q 378 331 347 331 m 551 517 l 551 332 l 586 332 q 650 335 618 332 q 708 349 682 338 q 749 384 733 361 q 765 449 765 407 q 728 533 765 507 q 632 564 690 560 q 589 553 614 564 q 551 517 564 543 z "},"ቆ":{"ha":989,"x_min":79,"x_max":886,"o":"m 79 368 q 97 467 79 424 q 145 541 114 511 q 218 587 176 571 q 308 603 260 603 q 419 579 368 603 l 419 657 q 411 707 419 685 q 392 751 403 729 q 373 799 382 774 q 364 858 364 824 q 380 930 364 903 q 422 972 396 957 q 481 991 447 986 q 551 996 515 996 q 635 986 593 996 q 713 956 678 976 q 769 901 747 935 q 790 822 790 868 q 765 742 790 772 q 702 696 740 711 q 620 676 664 681 q 539 671 576 671 q 544 624 543 647 q 544 578 544 601 q 658 603 597 603 q 749 587 707 603 q 821 541 790 571 q 869 468 851 511 q 886 369 886 425 q 856 251 886 294 q 776 185 825 207 q 666 158 726 164 q 546 151 606 151 l 546 0 l 422 0 l 422 151 q 301 157 363 151 q 191 185 240 163 q 110 250 142 207 q 79 368 79 293 m 544 439 l 546 261 q 567 260 557 261 q 589 260 578 260 q 650 264 619 260 q 706 281 681 268 q 746 316 731 293 q 761 376 761 339 q 728 459 764 428 q 635 490 693 490 q 581 478 608 490 q 544 439 554 467 m 204 376 q 219 316 204 339 q 260 281 235 293 q 315 264 285 268 q 376 260 346 260 q 398 260 388 260 q 419 261 408 261 l 419 443 q 383 478 410 467 q 332 490 356 490 q 238 460 274 490 q 204 376 201 429 m 521 754 l 543 754 q 595 757 567 754 q 643 774 624 760 q 662 799 657 785 q 665 828 667 813 q 654 859 663 844 q 635 883 646 874 q 574 908 608 908 q 522 893 546 908 q 490 854 497 878 q 494 805 482 828 q 521 754 507 782 z "},"ቇ":{"ha":879,"x_min":72,"x_max":879,"o":"m 414 208 q 294 215 354 208 q 184 242 233 221 q 103 308 135 264 q 72 426 72 351 q 90 525 72 482 q 138 598 107 568 q 211 644 169 628 q 301 660 253 660 q 413 636 361 660 l 413 714 q 404 763 413 742 q 385 807 396 785 q 366 854 375 829 q 357 914 357 879 q 373 986 357 958 q 415 1028 389 1014 q 474 1048 440 1043 q 544 1053 508 1053 q 628 1043 586 1053 q 706 1013 671 1033 q 762 958 740 992 q 783 879 783 925 q 758 799 783 829 q 695 753 733 768 q 613 733 657 738 q 532 728 569 728 q 537 681 536 704 q 538 635 538 658 q 651 660 590 660 q 742 644 700 660 q 814 598 783 628 q 862 525 844 568 q 879 426 879 482 q 849 308 879 351 q 769 242 818 264 q 659 215 719 221 q 539 208 599 208 l 539 1 l 540 0 l 392 0 q 257 -11 308 0 q 175 -42 206 -22 l 153 78 q 265 103 204 96 q 392 110 325 110 l 414 110 l 414 208 m 539 318 q 561 317 550 318 q 589 317 572 317 q 647 321 617 317 q 700 338 676 325 q 739 373 724 350 q 754 433 754 396 q 720 519 754 490 q 636 547 686 547 q 576 535 604 547 q 538 496 547 522 l 539 318 m 413 500 q 374 535 403 524 q 313 547 344 547 q 231 520 265 547 q 197 433 197 493 q 213 373 197 396 q 252 338 228 350 q 306 321 276 325 q 364 317 336 317 q 392 317 381 317 q 414 318 403 318 l 413 500 m 565 965 q 508 946 535 965 q 481 893 481 926 q 492 854 481 874 q 514 811 503 835 l 536 811 q 574 813 553 811 q 615 820 596 814 q 646 840 633 826 q 658 875 658 853 q 630 938 658 911 q 565 965 601 965 z "},"ቈ":{"ha":1075,"x_min":86,"x_max":983,"o":"m 314 867 q 428 843 376 867 l 428 1051 l 553 1051 l 553 843 q 606 861 578 856 q 661 867 633 867 q 753 851 711 867 q 826 806 794 836 q 874 733 857 776 q 892 635 892 690 q 861 517 892 561 q 782 451 831 474 q 673 422 733 428 q 553 415 613 415 l 553 344 l 813 344 q 935 312 886 344 q 983 207 983 279 q 965 129 983 164 q 915 70 946 94 q 842 33 883 46 q 758 21 801 21 q 690 33 715 24 q 650 62 664 42 q 633 114 636 82 q 629 194 629 146 l 629 261 l 553 261 l 553 0 l 428 0 l 428 415 q 309 422 369 415 q 199 451 249 428 q 117 518 149 474 q 86 638 86 563 q 148 804 86 742 q 314 867 210 867 m 365 526 q 397 527 381 526 q 428 529 413 528 l 428 706 q 390 744 418 732 q 344 756 363 756 q 249 728 283 756 q 213 642 214 701 q 230 583 217 606 q 263 547 243 560 q 310 531 283 535 q 365 526 336 526 m 553 529 q 578 528 565 528 q 604 528 590 528 q 662 532 633 528 q 713 549 690 536 q 751 583 736 561 q 767 642 765 606 q 735 725 767 694 q 633 756 704 756 q 589 744 615 756 q 553 706 563 732 l 553 529 m 721 182 q 734 128 721 153 q 779 103 747 103 q 813 113 799 103 q 838 138 828 122 q 853 171 849 153 q 858 204 858 189 q 847 244 858 228 q 813 261 836 261 l 721 261 l 721 182 z "},"ቐ":{"ha":875,"x_min":61,"x_max":868,"o":"m 290 764 q 404 739 353 764 l 404 883 l 378 883 q 250 891 311 883 q 139 917 189 899 l 161 1035 q 242 1004 190 1015 q 378 993 293 993 l 558 993 q 691 1004 640 993 q 772 1033 742 1015 l 794 917 q 685 890 746 897 q 558 883 625 883 l 529 883 l 529 739 q 640 764 579 764 q 731 748 689 764 q 803 702 772 732 q 851 628 833 672 q 868 531 868 585 q 838 413 868 457 q 758 347 807 369 q 649 319 710 325 q 529 313 589 313 l 529 0 l 404 0 l 404 313 q 283 319 344 313 q 173 347 222 325 q 92 413 124 369 q 61 532 61 457 q 78 629 61 586 q 126 702 96 672 q 199 748 157 732 q 290 764 240 764 m 186 539 q 200 480 186 503 q 238 443 214 457 q 291 424 261 429 q 351 419 321 419 q 379 420 367 419 q 404 422 392 421 l 404 600 q 370 640 397 628 q 324 653 343 653 l 321 653 q 222 625 258 653 q 186 539 186 597 m 582 419 q 642 424 613 419 q 693 442 671 429 q 728 478 715 456 q 742 536 742 501 q 706 624 742 594 q 610 653 671 653 l 607 653 q 564 642 588 653 q 529 607 540 631 l 529 422 q 553 420 540 421 q 582 419 567 419 z "},"ቑ":{"ha":933,"x_min":96,"x_max":900,"o":"m 96 614 q 113 710 96 668 q 160 781 131 753 q 232 825 190 810 q 324 840 274 840 q 438 817 383 840 l 438 942 l 411 942 q 282 949 343 942 q 169 976 221 957 l 193 1093 q 274 1063 222 1074 q 411 1051 326 1051 l 589 1051 q 724 1063 672 1051 q 806 1092 775 1074 l 828 974 q 716 949 776 956 q 589 942 656 942 l 563 942 l 563 817 q 615 835 588 829 q 671 840 643 840 q 761 825 719 840 q 833 781 803 810 q 882 708 864 751 q 900 610 900 665 q 869 493 900 536 q 790 427 839 450 q 681 397 742 404 q 563 390 621 390 l 563 265 l 625 265 q 753 258 693 265 q 864 232 813 250 l 842 114 q 760 144 811 133 q 625 156 708 156 l 563 156 l 563 0 l 438 0 l 438 390 q 317 397 378 390 q 207 427 256 404 q 127 494 158 450 q 96 614 96 539 m 388 499 q 413 499 400 499 q 438 500 425 499 l 438 675 q 403 717 429 704 q 356 729 376 729 l 353 729 q 256 697 290 729 q 221 615 221 665 q 238 555 224 578 q 276 519 253 532 q 328 503 299 507 q 388 499 357 499 m 613 499 q 672 503 643 499 q 723 519 700 507 q 760 555 746 532 q 775 615 774 578 q 740 698 775 667 q 642 729 704 729 l 639 729 q 598 718 622 729 q 563 683 574 707 l 563 500 q 588 499 575 499 q 613 499 600 499 z "},"ቒ":{"ha":954,"x_min":51,"x_max":857,"o":"m 279 764 q 393 739 342 764 l 393 883 l 367 883 q 238 891 299 883 q 128 917 178 899 l 149 1035 q 231 1004 179 1015 q 367 993 282 993 l 547 993 q 680 1004 629 993 q 761 1033 731 1015 l 783 917 q 674 890 735 897 q 547 883 613 883 l 518 883 l 518 739 q 631 764 568 764 q 794 701 731 764 q 857 531 857 639 q 826 412 857 456 q 747 347 796 368 q 638 319 699 325 q 518 313 578 313 l 518 217 q 524 156 518 178 q 543 124 529 135 q 579 112 557 114 q 635 110 601 110 q 681 110 656 110 q 728 113 706 111 q 771 115 751 114 q 803 118 790 117 l 803 4 q 757 3 783 4 q 703 2 731 3 q 651 1 676 1 q 608 0 625 0 q 444 42 494 0 q 393 194 393 85 l 393 313 q 272 319 333 313 q 163 347 211 325 q 83 413 114 369 q 51 532 51 457 q 69 629 51 586 q 116 702 86 672 q 188 748 146 732 q 279 764 229 764 m 176 536 q 194 478 179 501 q 231 442 208 456 q 283 424 254 429 q 340 419 311 419 q 367 420 354 419 q 393 422 381 421 l 393 600 q 380 624 389 614 q 359 640 371 633 q 335 649 347 646 q 314 653 324 653 l 311 653 q 212 621 247 653 q 176 536 176 589 m 518 607 l 518 422 q 544 420 531 421 q 571 419 557 419 q 631 425 601 419 q 682 444 660 431 q 718 480 704 457 q 732 536 732 503 q 697 622 732 590 q 600 653 661 653 l 597 653 q 553 642 578 653 q 518 607 529 631 z "},"ቓ":{"ha":931,"x_min":60,"x_max":864,"o":"m 286 765 q 397 742 346 765 l 397 881 l 372 881 q 244 888 306 881 q 132 915 183 896 l 154 1033 q 236 1002 185 1014 q 372 990 288 990 l 551 990 q 685 1002 635 990 q 765 1032 736 1014 l 788 915 q 678 888 739 896 q 551 881 618 881 l 522 881 l 522 742 q 633 765 574 765 q 724 750 682 765 q 797 705 765 735 q 846 632 828 675 q 864 533 864 589 q 833 416 864 460 q 752 349 801 372 q 642 320 703 326 q 522 314 582 314 l 522 272 q 447 61 522 125 q 229 -3 371 -3 q 164 0 196 -3 q 101 6 132 3 l 107 114 q 197 112 160 114 q 254 110 235 110 q 324 123 296 110 q 368 159 351 136 q 391 213 385 182 q 397 276 397 243 l 397 314 q 278 321 338 314 q 169 351 218 328 q 90 418 121 374 q 60 536 60 463 q 77 633 60 590 q 124 705 94 675 q 196 750 154 735 q 286 765 238 765 m 522 600 l 522 424 q 549 422 536 422 q 576 422 563 422 q 635 426 607 422 q 687 443 664 431 q 724 478 710 456 q 739 538 738 500 q 704 622 739 590 q 606 654 669 654 l 603 654 q 581 651 593 654 q 556 642 568 649 q 535 625 544 635 q 522 600 526 615 m 185 538 q 201 477 188 500 q 238 442 215 454 q 288 426 260 431 q 347 422 317 422 q 372 422 360 422 q 397 424 385 422 l 397 608 q 363 643 386 632 q 319 654 339 654 l 317 654 q 219 622 253 654 q 185 538 185 589 z "},"ቔ":{"ha":985,"x_min":94,"x_max":901,"o":"m 324 865 q 438 840 386 865 l 438 942 l 419 942 q 292 949 353 942 q 181 976 231 957 l 203 1096 q 284 1064 232 1076 q 419 1051 336 1051 l 588 1051 q 722 1063 671 1051 q 803 1093 774 1074 l 825 974 q 715 949 775 956 q 588 942 654 942 l 563 942 l 563 842 q 674 867 613 867 q 764 851 722 867 q 836 805 806 835 q 884 731 867 775 q 901 633 901 688 q 871 515 901 558 q 791 450 840 472 q 681 422 742 428 q 563 415 621 415 l 563 324 l 614 324 q 699 319 656 324 q 778 301 743 315 q 835 258 813 286 q 857 179 857 229 q 833 93 857 128 q 772 38 808 58 q 692 8 736 17 q 608 0 649 0 q 543 4 574 0 q 489 22 513 8 q 451 62 465 36 q 438 129 438 88 l 438 415 q 317 421 378 415 q 206 449 256 426 q 126 515 157 471 q 94 633 94 558 q 112 732 94 689 q 160 805 129 775 q 233 850 190 835 q 324 865 275 865 m 388 524 q 414 524 401 524 q 438 525 426 524 l 438 701 q 424 726 433 715 q 401 742 414 736 q 376 752 389 749 q 354 756 364 756 q 257 728 294 753 q 219 640 219 703 q 233 580 219 603 q 271 544 247 557 q 325 528 294 532 q 388 524 356 524 m 592 525 q 660 528 626 525 q 719 542 693 531 q 760 576 744 553 q 776 639 776 599 q 740 727 776 701 q 643 756 703 753 q 599 745 625 756 q 563 710 574 735 l 563 525 l 592 525 m 563 129 q 585 97 563 110 q 635 85 607 85 q 703 109 674 85 q 733 172 733 133 q 721 210 733 196 q 690 231 708 224 q 649 239 671 238 q 611 240 628 240 l 563 240 l 563 129 z "},"ቕ":{"ha":1174,"x_min":76,"x_max":1015,"o":"m 100 1110 q 180 1078 128 1090 q 318 1065 232 1065 l 483 1065 q 617 1076 567 1065 q 699 1107 668 1088 l 721 990 q 610 963 669 971 q 483 956 550 956 l 449 956 l 449 954 q 467 896 451 915 q 533 876 482 876 l 676 876 l 676 650 q 789 674 731 674 q 879 658 838 674 q 951 614 921 643 q 999 544 982 585 q 1015 454 1015 504 q 997 360 1015 403 q 947 288 979 318 q 872 241 915 257 q 775 225 828 225 q 760 225 772 225 q 733 224 749 225 q 703 223 718 224 q 676 222 688 222 l 676 0 l 551 0 l 551 222 q 526 223 542 222 q 494 224 510 224 q 465 224 478 224 q 450 225 453 225 q 354 241 399 225 q 277 287 310 257 q 226 359 244 317 q 208 454 208 401 q 226 545 208 504 q 274 615 243 586 q 347 658 304 643 q 438 674 389 674 q 551 649 500 674 l 551 786 l 500 786 q 375 828 421 786 q 324 956 329 871 l 318 956 q 188 963 249 956 q 76 990 126 971 l 100 1110 m 503 331 q 528 331 515 331 q 551 332 540 331 l 551 510 q 538 534 547 524 q 515 551 528 544 q 490 560 503 557 q 468 564 478 564 q 371 539 408 564 q 333 449 333 514 q 348 388 333 411 q 387 352 363 365 q 442 335 411 339 q 503 331 472 331 m 676 517 l 676 332 l 711 332 q 775 335 743 332 q 833 349 807 338 q 874 384 858 361 q 890 449 890 407 q 853 535 892 506 q 757 564 814 564 q 714 553 739 564 q 676 517 689 543 z "},"ቖ":{"ha":1081,"x_min":135,"x_max":942,"o":"m 135 374 q 152 474 135 431 q 201 545 169 517 q 274 588 232 574 q 363 603 315 603 q 475 579 424 603 l 475 657 q 467 706 475 685 q 448 750 458 728 q 428 797 438 772 q 419 857 419 822 q 422 884 419 872 q 426 907 424 896 q 293 936 351 914 l 317 1056 q 397 1024 344 1036 q 535 1011 449 1011 l 700 1011 q 834 1022 783 1011 q 915 1053 885 1033 l 938 936 q 881 919 910 925 q 819 908 851 913 q 846 822 846 871 q 821 742 846 772 q 758 696 796 711 q 676 676 719 681 q 594 671 632 671 q 599 624 599 647 q 600 578 600 601 q 717 603 653 603 q 806 589 765 603 q 876 547 846 575 q 924 476 907 518 q 942 378 942 435 q 911 255 942 300 q 832 187 881 210 q 722 158 783 164 q 601 151 661 151 l 601 0 l 478 0 l 478 151 q 357 157 418 151 q 247 185 296 163 q 166 253 197 208 q 135 374 135 297 m 601 261 q 624 260 613 261 q 651 260 635 260 q 709 264 679 260 q 763 281 739 268 q 801 316 786 293 q 817 376 817 339 q 783 462 818 433 q 699 490 749 490 q 638 478 667 490 q 600 439 610 465 l 601 261 m 260 376 q 275 316 260 339 q 315 281 290 293 q 368 264 339 268 q 425 260 397 260 q 453 260 442 260 q 475 261 464 261 l 475 443 q 436 478 465 467 q 372 490 407 490 q 294 466 328 490 q 260 376 261 442 m 592 901 q 558 876 572 893 q 543 836 543 860 q 554 797 543 817 q 576 754 565 778 l 599 754 q 637 756 615 754 q 677 763 658 757 q 708 783 696 769 q 721 818 721 796 q 692 881 721 854 q 628 908 664 908 q 592 901 613 908 z "},"ቘ":{"ha":1106,"x_min":99,"x_max":996,"o":"m 99 638 q 160 804 99 742 q 326 867 222 867 q 440 843 389 867 l 440 942 l 422 942 q 294 949 356 942 q 183 976 233 957 l 206 1096 q 287 1064 235 1076 q 422 1051 339 1051 l 590 1051 q 725 1063 674 1051 q 806 1093 776 1074 l 828 974 q 717 949 778 956 q 590 942 657 942 l 565 942 l 565 843 q 618 861 590 856 q 674 867 646 867 q 765 851 724 867 q 838 806 807 836 q 887 733 869 776 q 904 635 904 690 q 874 517 904 561 q 794 451 843 474 q 685 422 746 428 q 565 415 625 415 l 565 344 l 825 344 q 892 336 861 344 q 947 311 924 328 q 983 268 969 294 q 996 206 996 242 q 976 126 996 161 q 925 68 957 92 q 853 33 893 44 q 771 21 813 21 q 702 33 728 24 q 663 62 676 42 q 645 114 649 82 q 642 194 642 146 l 642 261 l 565 261 l 565 0 l 440 0 l 440 415 q 322 422 382 415 q 211 451 261 428 q 130 518 161 474 q 99 638 99 563 m 378 526 q 409 527 393 526 q 440 529 425 528 l 440 706 q 403 744 431 732 q 357 756 375 756 q 261 727 297 751 q 225 642 225 703 q 242 583 229 606 q 276 547 256 560 q 322 531 296 535 q 378 526 349 526 m 565 529 q 590 528 578 528 q 617 528 603 528 q 674 532 646 528 q 726 549 703 536 q 763 583 749 561 q 779 642 778 606 q 744 722 779 694 q 646 756 710 750 q 601 744 628 756 q 565 706 575 732 l 565 529 m 792 103 q 826 113 811 103 q 851 138 840 122 q 866 171 861 153 q 871 204 871 189 q 860 244 871 228 q 825 261 849 261 l 733 261 l 733 182 q 747 128 733 153 q 792 103 760 103 z "},"ቚ":{"ha":1353,"x_min":54,"x_max":1269,"o":"m 64 583 q 90 661 69 628 q 142 718 111 694 q 212 753 174 742 q 289 765 250 765 q 401 739 350 765 l 401 942 l 369 942 q 242 949 303 942 q 131 976 181 957 l 153 1096 q 234 1064 182 1076 q 369 1051 286 1051 l 538 1051 q 672 1063 621 1051 q 753 1093 724 1074 l 775 974 q 665 949 725 956 q 538 942 604 942 l 526 942 l 526 742 q 635 764 575 764 q 714 753 675 764 q 784 719 753 742 q 836 663 815 696 q 863 585 857 629 l 986 585 l 986 696 l 1078 696 l 1078 471 q 1180 460 1131 468 q 1269 438 1229 453 l 1247 333 q 1167 363 1218 351 q 1032 375 1115 375 l 986 375 l 986 492 l 860 492 q 812 392 846 428 q 732 338 778 356 q 633 317 686 321 q 526 313 581 313 l 526 0 l 401 0 l 401 313 q 269 322 335 313 q 156 359 204 331 q 81 441 107 388 q 64 583 54 494 m 186 538 q 201 480 186 503 q 238 443 215 457 q 291 424 261 429 q 350 419 321 419 q 376 420 364 419 q 401 422 389 421 l 401 600 q 389 624 399 614 q 367 641 379 635 q 342 651 356 647 q 319 654 329 654 q 219 623 256 654 q 186 538 183 592 m 526 422 q 550 420 538 421 q 575 419 563 419 q 635 424 606 419 q 688 442 664 429 q 726 478 711 456 q 740 538 740 501 q 708 621 746 590 q 608 654 669 651 q 564 643 590 654 q 526 607 538 632 l 526 422 z "},"በ":{"ha":865,"x_min":139,"x_max":726,"o":"m 139 0 l 139 633 q 174 811 139 742 q 261 922 210 881 q 370 978 313 963 q 471 993 428 993 q 600 966 550 993 q 678 891 650 939 q 717 777 707 843 q 726 633 726 711 l 726 0 l 601 0 l 601 633 q 591 778 601 728 q 563 850 581 828 q 521 876 544 872 q 471 881 497 879 q 397 871 433 881 q 330 834 360 861 q 282 758 300 807 q 264 633 264 710 l 264 0 l 139 0 z "},"ቡ":{"ha":1101,"x_min":115,"x_max":988,"o":"m 450 993 q 578 966 529 993 q 656 891 628 939 q 694 777 683 843 q 704 633 704 711 l 704 524 l 750 524 q 876 516 817 524 q 988 490 936 508 l 965 372 q 884 403 935 392 q 750 414 833 414 l 704 414 l 704 0 l 579 0 l 579 633 q 569 778 579 728 q 540 850 558 828 q 499 876 522 872 q 450 881 475 879 q 375 871 413 881 q 308 834 338 861 q 259 758 278 807 q 240 633 240 710 l 240 0 l 115 0 l 115 633 q 151 811 115 742 q 238 922 186 881 q 348 978 290 963 q 450 993 406 993 z "},"ቢ":{"ha":1133,"x_min":160,"x_max":996,"o":"m 749 235 q 756 170 749 194 q 778 133 763 146 q 818 115 793 119 q 879 111 843 111 q 942 113 908 111 q 996 118 975 115 l 996 6 q 917 3 956 6 q 840 0 878 0 q 673 47 722 0 q 624 207 624 93 l 624 633 q 613 778 624 728 q 585 850 603 828 q 544 876 568 872 q 494 881 521 879 q 419 871 457 881 q 352 834 382 861 q 303 758 322 807 q 285 633 285 710 l 285 0 l 160 0 l 160 633 q 196 811 160 742 q 283 922 232 881 q 393 978 335 963 q 494 993 451 993 q 623 966 574 993 q 701 891 672 939 q 739 777 729 843 q 749 633 749 711 l 749 235 z "},"ባ":{"ha":819,"x_min":97,"x_max":685,"o":"m 429 993 q 558 966 508 993 q 637 891 608 939 q 675 777 665 843 q 685 633 685 711 l 685 0 l 560 0 l 560 633 q 549 778 560 728 q 521 850 539 828 q 479 876 503 872 q 429 881 456 879 q 355 871 392 881 q 288 834 318 861 q 240 758 258 807 q 222 633 222 710 l 222 313 l 97 313 l 97 633 q 133 811 97 742 q 219 922 168 881 q 328 978 271 963 q 429 993 386 993 z "},"ቤ":{"ha":1128,"x_min":122,"x_max":1014,"o":"m 456 993 q 584 966 535 993 q 662 891 633 939 q 700 777 690 843 q 710 633 710 711 l 710 325 l 768 325 q 853 321 810 325 q 933 301 897 317 q 991 257 968 286 q 1014 178 1014 228 q 990 92 1014 126 q 927 38 965 58 q 843 8 889 17 q 753 0 797 0 q 694 5 724 0 q 640 23 664 10 q 600 62 615 36 q 585 129 585 88 l 585 633 q 574 778 585 728 q 547 850 564 828 q 506 876 529 872 q 456 881 482 879 q 381 871 418 881 q 314 834 343 861 q 266 758 285 807 q 247 633 247 710 l 247 0 l 122 0 l 122 633 q 158 811 122 742 q 246 922 194 881 q 355 978 297 963 q 456 993 413 993 m 710 242 l 710 131 q 733 97 710 110 q 788 85 757 85 q 824 90 806 85 q 856 106 842 94 q 880 134 871 117 q 889 176 889 151 q 881 211 889 199 q 860 231 874 224 q 829 240 847 238 q 790 242 811 242 l 710 242 z "},"ብ":{"ha":1104,"x_min":97,"x_max":967,"o":"m 333 524 l 379 524 l 379 633 q 415 811 379 742 q 501 922 450 881 q 610 978 553 963 q 713 993 668 993 q 841 966 792 993 q 919 891 890 939 q 957 777 947 843 q 967 633 967 711 l 967 0 l 842 0 l 842 633 q 831 778 842 728 q 803 850 821 828 q 763 876 786 872 q 713 881 739 879 q 638 871 675 881 q 571 834 600 861 q 523 758 542 807 q 504 633 504 710 l 504 0 l 379 0 l 379 414 l 333 414 q 199 403 250 414 q 119 372 149 392 l 97 490 q 206 516 146 508 q 333 524 267 524 z "},"ቦ":{"ha":838,"x_min":128,"x_max":718,"o":"m 461 993 q 591 966 540 993 q 669 891 642 939 q 708 777 697 843 q 718 633 718 711 l 718 313 l 593 313 l 593 633 q 582 778 593 728 q 553 850 571 828 q 511 876 535 872 q 461 881 488 879 q 386 871 424 881 q 319 834 349 861 q 272 758 290 807 q 253 633 253 710 l 253 0 l 128 0 l 128 633 q 164 811 128 742 q 251 922 200 881 q 360 978 303 963 q 461 993 418 993 z "},"ቧ":{"ha":1051,"x_min":89,"x_max":940,"o":"m 421 974 q 551 947 500 974 q 629 872 601 919 q 667 758 657 824 q 678 615 678 693 l 678 90 l 701 90 q 830 82 769 90 q 940 54 890 74 l 919 -61 q 838 -31 889 -42 q 701 -19 786 -19 l 524 -19 q 391 -31 442 -19 q 310 -60 340 -42 l 288 56 q 397 83 336 75 q 524 90 458 90 l 553 90 l 553 615 q 542 756 553 707 q 515 829 532 806 q 474 857 497 853 q 425 861 450 861 q 326 844 367 861 q 261 794 286 826 q 225 716 236 761 q 214 615 214 671 l 214 294 l 89 294 l 89 615 q 124 793 89 724 q 211 903 160 863 q 320 958 263 943 q 421 974 378 974 z "},"ቨ":{"ha":913,"x_min":138,"x_max":782,"o":"m 167 0 l 167 490 q 202 668 167 599 q 289 778 238 738 q 398 835 340 819 q 499 850 456 850 q 628 823 578 850 q 706 748 678 796 q 744 634 735 700 q 754 490 754 568 l 754 0 l 629 0 l 629 490 q 619 635 629 585 q 590 707 608 685 q 549 733 572 729 q 499 738 525 736 q 424 728 461 738 q 358 691 388 718 q 310 615 328 664 q 292 490 292 567 l 292 0 l 167 0 m 161 1093 q 241 1062 189 1074 q 379 1050 293 1050 l 544 1050 q 678 1061 628 1050 q 760 1092 729 1072 l 782 975 q 671 948 731 956 q 544 940 611 940 l 379 940 q 249 948 310 940 q 138 975 188 956 l 161 1093 z "},"ቩ":{"ha":1090,"x_min":103,"x_max":1001,"o":"m 131 490 q 166 668 131 599 q 253 778 201 738 q 362 835 304 819 q 463 850 419 850 q 590 824 540 850 q 668 751 640 797 q 707 642 696 706 q 718 503 718 578 l 765 503 q 892 496 832 503 q 1001 471 953 489 l 981 353 q 899 382 950 371 q 765 393 849 393 l 718 393 l 718 0 l 593 0 l 593 490 q 583 635 593 585 q 554 707 572 685 q 513 733 536 729 q 463 738 489 736 q 388 728 425 738 q 322 691 351 718 q 274 615 292 664 q 256 490 256 567 l 256 0 l 131 0 l 131 490 m 103 975 l 125 1093 q 207 1062 156 1074 q 343 1050 258 1050 l 510 1050 q 643 1061 592 1050 q 724 1092 694 1072 l 746 975 q 637 948 697 956 q 510 940 576 940 l 343 940 q 215 948 276 940 q 103 975 153 956 z "},"ቪ":{"ha":1188,"x_min":167,"x_max":1029,"o":"m 782 214 q 790 156 782 176 q 814 124 799 135 q 853 111 829 114 q 907 108 876 108 q 973 110 939 108 q 1029 114 1007 111 l 1029 4 q 951 2 989 4 q 879 0 914 0 q 776 10 818 0 q 707 45 733 21 q 669 109 681 69 q 657 207 657 149 l 657 490 q 647 635 657 585 q 619 707 636 685 q 578 733 601 729 q 528 738 554 736 q 453 728 490 738 q 386 691 415 718 q 338 615 357 664 q 319 490 319 567 l 319 0 l 194 0 l 194 490 q 231 668 194 599 q 318 778 267 738 q 427 835 369 819 q 528 850 485 850 q 656 823 607 850 q 734 748 706 796 q 772 634 763 700 q 782 490 782 568 l 782 214 m 407 940 q 279 948 340 940 q 167 975 218 956 l 189 1093 q 271 1062 219 1074 q 407 1050 322 1050 l 574 1050 q 708 1061 657 1050 q 788 1092 760 1072 l 811 975 q 701 948 761 956 q 574 940 640 940 l 407 940 z "},"ቫ":{"ha":876,"x_min":107,"x_max":751,"o":"m 468 850 q 597 823 547 850 q 676 748 647 796 q 714 634 704 700 q 724 490 724 568 l 724 0 l 599 0 l 599 490 q 588 635 599 585 q 560 707 578 685 q 518 733 542 729 q 468 738 494 736 q 394 728 431 738 q 327 691 357 718 q 279 615 297 664 q 261 490 261 567 l 261 313 l 136 313 l 136 490 q 172 668 136 599 q 258 778 207 738 q 367 835 310 819 q 468 850 425 850 m 349 940 q 218 948 279 940 q 107 975 157 956 l 131 1093 q 210 1062 158 1074 q 349 1050 263 1050 l 514 1050 q 648 1061 597 1050 q 729 1092 699 1072 l 751 975 q 640 948 700 956 q 514 940 581 940 l 349 940 z "},"ቬ":{"ha":1199,"x_min":165,"x_max":1083,"o":"m 192 0 l 192 490 q 227 668 192 599 q 315 778 263 738 q 424 835 367 819 q 526 850 482 850 q 655 823 606 850 q 733 748 704 796 q 771 634 761 700 q 781 490 781 568 l 781 324 l 839 324 q 922 319 879 324 q 1001 300 965 315 q 1060 256 1038 285 q 1083 175 1083 226 q 1061 91 1083 125 q 1003 37 1039 57 q 926 8 968 17 q 842 -1 883 -1 q 774 3 807 -1 q 714 20 740 7 q 672 60 688 33 q 656 129 656 86 l 656 490 q 645 635 656 585 q 617 707 635 685 q 576 733 600 729 q 526 738 553 736 q 451 728 489 738 q 384 691 414 718 q 335 615 354 664 q 317 490 317 567 l 317 0 l 192 0 m 186 1093 q 268 1062 217 1074 q 404 1050 319 1050 l 572 1050 q 705 1061 654 1050 q 786 1092 756 1072 l 808 975 q 699 948 760 956 q 572 940 639 940 l 404 940 q 276 948 338 940 q 165 975 215 956 l 186 1093 m 781 240 l 781 131 q 804 97 781 110 q 860 83 828 83 q 926 104 894 83 q 957 175 957 125 q 929 230 957 219 q 860 240 901 240 l 781 240 z "},"ቭ":{"ha":1203,"x_min":121,"x_max":1022,"o":"m 121 471 q 233 496 172 489 q 360 503 293 503 l 404 503 q 444 674 407 607 q 531 781 481 742 q 639 835 582 819 q 739 850 696 850 q 867 823 818 850 q 945 748 917 796 q 983 634 974 700 q 993 490 993 568 l 993 0 l 868 0 l 868 490 q 858 635 868 585 q 830 707 847 685 q 789 733 813 729 q 739 738 765 736 q 664 728 701 738 q 597 691 626 718 q 548 615 567 664 q 529 490 529 567 l 529 0 l 404 0 l 404 393 l 360 393 q 225 382 276 393 q 143 351 174 371 l 121 471 m 378 975 l 401 1093 q 482 1062 429 1074 q 619 1050 535 1050 l 785 1050 q 919 1061 868 1050 q 1000 1092 969 1072 l 1022 975 q 912 948 972 956 q 785 940 851 940 l 619 940 q 489 948 550 940 q 378 975 428 956 z "},"ቮ":{"ha":868,"x_min":104,"x_max":747,"o":"m 464 850 q 594 823 543 850 q 672 748 644 796 q 710 634 700 700 q 721 490 721 568 l 721 313 l 596 313 l 596 490 q 585 635 596 585 q 557 707 575 685 q 515 733 539 729 q 464 738 490 736 q 390 728 426 738 q 323 691 353 718 q 275 615 293 664 q 257 490 257 567 l 257 0 l 132 0 l 132 490 q 167 668 132 599 q 254 778 203 738 q 363 835 306 819 q 464 850 421 850 m 344 940 q 216 948 276 940 q 104 975 156 956 l 126 1093 q 208 1062 156 1074 q 344 1050 260 1050 l 510 1050 q 644 1061 593 1050 q 726 1092 696 1072 l 747 975 q 637 948 697 956 q 510 940 576 940 l 344 940 z "},"ቯ":{"ha":1144,"x_min":126,"x_max":1007,"o":"m 488 850 q 616 823 567 850 q 694 748 665 796 q 732 634 722 700 q 742 490 742 568 l 742 108 l 768 108 q 897 101 836 108 q 1007 75 957 93 l 986 -43 q 905 -12 957 -24 q 768 -1 853 -1 l 590 -1 q 456 -12 507 -1 q 374 -42 404 -24 l 351 75 q 463 101 403 94 q 590 108 524 108 l 617 108 l 617 490 q 606 635 617 585 q 578 707 596 685 q 538 733 561 729 q 488 738 514 736 q 413 728 450 738 q 346 691 375 718 q 298 615 317 664 q 279 490 279 567 l 279 313 l 154 313 l 154 490 q 190 668 154 599 q 278 778 226 738 q 387 835 329 819 q 488 850 444 850 m 149 1093 q 231 1062 179 1074 q 367 1050 283 1050 l 533 1050 q 668 1061 617 1050 q 750 1092 719 1072 l 771 975 q 660 948 721 956 q 533 940 600 940 l 367 940 q 239 948 300 940 q 126 975 178 956 l 149 1093 z "},"ተ":{"ha":938,"x_min":88,"x_max":874,"o":"m 325 728 l 417 728 l 419 990 l 543 990 l 540 728 l 635 728 q 763 721 701 728 q 874 694 824 714 l 851 575 q 771 606 822 594 q 635 618 719 618 l 540 618 l 532 0 l 407 0 l 414 618 l 325 618 q 190 607 242 618 q 110 576 139 596 l 88 694 q 198 721 138 714 q 325 728 258 728 z "},"ቱ":{"ha":944,"x_min":71,"x_max":857,"o":"m 308 728 l 400 728 l 403 990 l 528 990 l 525 728 l 618 728 q 746 721 685 728 q 857 694 807 714 l 835 575 q 754 606 806 594 q 618 618 703 618 l 525 618 l 521 364 l 560 364 q 687 357 626 364 q 797 331 747 350 l 775 213 q 694 243 746 232 q 560 254 643 254 l 519 254 l 517 0 l 392 0 l 400 618 l 308 618 q 174 607 226 618 q 94 576 122 596 l 71 694 q 181 721 121 714 q 308 728 242 728 z "},"ቲ":{"ha":932,"x_min":81,"x_max":867,"o":"m 318 728 l 410 728 l 413 990 l 536 990 l 533 728 l 628 728 q 756 721 694 728 q 867 694 817 714 l 844 575 q 764 606 815 594 q 628 618 713 618 l 533 618 l 528 218 q 532 157 528 179 q 548 125 536 135 q 581 113 560 115 q 639 111 603 111 q 703 113 671 111 q 768 118 736 114 l 768 4 q 679 2 728 4 q 593 0 631 0 q 489 10 526 0 q 433 45 451 21 q 409 109 414 69 q 404 207 404 149 l 407 618 l 318 618 q 183 607 235 618 q 103 576 132 596 l 81 694 q 191 721 131 714 q 318 728 251 728 z "},"ታ":{"ha":960,"x_min":81,"x_max":865,"o":"m 317 728 l 408 728 l 411 990 l 536 990 l 533 728 l 625 728 q 753 721 693 728 q 865 694 814 714 l 843 575 q 761 606 813 594 q 625 618 710 618 l 532 618 l 526 247 q 508 124 525 172 q 463 49 490 76 q 400 10 436 21 q 325 0 364 0 q 217 1 271 0 q 111 10 164 3 l 111 125 q 148 121 125 124 q 196 117 171 118 q 245 114 221 115 q 286 113 269 113 q 347 120 325 113 q 381 143 369 128 q 396 183 392 158 q 401 242 400 208 l 407 618 l 317 618 q 183 607 233 618 q 101 576 132 596 l 81 694 q 190 721 129 714 q 317 728 250 728 z "},"ቴ":{"ha":982,"x_min":97,"x_max":883,"o":"m 335 728 l 426 728 l 429 990 l 554 990 l 551 728 l 644 728 q 772 721 711 728 q 883 694 833 714 l 861 575 q 780 606 832 594 q 644 618 728 618 l 550 618 l 544 324 l 628 324 q 711 319 669 324 q 786 300 753 315 q 841 256 819 285 q 863 175 863 226 q 835 83 863 117 q 767 31 808 49 q 676 7 725 13 q 581 1 626 1 q 513 13 543 6 q 462 34 483 19 q 428 73 440 49 q 417 136 417 97 l 425 618 l 335 618 q 200 607 251 618 q 119 576 149 596 l 97 694 q 208 721 147 714 q 335 728 268 728 m 542 135 q 567 97 542 111 q 625 83 592 83 q 665 89 644 83 q 701 106 685 94 q 728 137 718 118 q 739 182 739 156 q 718 231 739 221 q 669 242 697 242 q 647 241 658 242 q 624 240 635 240 l 543 240 l 542 135 z "},"ት":{"ha":913,"x_min":68,"x_max":853,"o":"m 304 613 l 400 613 l 401 768 l 354 772 q 278 788 314 776 q 216 822 243 800 q 173 876 189 844 q 156 951 157 908 l 151 1050 l 276 1050 l 281 951 q 292 906 282 924 q 318 878 303 889 q 352 864 333 868 q 388 857 371 860 l 526 850 l 525 613 l 613 613 q 741 605 681 613 q 853 578 801 597 l 831 458 q 750 490 803 478 q 613 503 697 503 l 524 503 l 518 0 l 393 0 l 399 503 l 304 503 q 170 491 221 503 q 89 461 119 479 l 68 578 q 177 605 117 597 q 304 613 238 613 z "},"ቶ":{"ha":936,"x_min":81,"x_max":867,"o":"m 318 613 l 413 613 l 413 683 q 404 749 413 725 q 385 796 396 774 q 367 842 375 818 q 360 908 358 867 q 376 985 361 957 q 415 1028 390 1014 q 474 1047 440 1043 q 546 1051 507 1051 q 629 1042 588 1051 q 704 1013 671 1033 q 758 959 738 993 q 776 875 779 925 q 756 806 775 831 q 706 771 738 782 q 634 758 675 760 q 546 756 593 756 l 531 756 q 538 704 536 732 q 539 642 539 676 q 539 632 539 640 q 538 613 539 624 l 625 613 q 756 605 694 613 q 867 578 817 597 l 843 458 q 763 490 815 478 q 625 503 710 503 l 536 503 l 529 0 l 404 0 l 411 503 l 318 503 q 183 491 235 503 q 103 461 132 479 l 81 578 q 191 605 131 597 q 318 613 251 613 m 510 828 q 535 825 522 826 q 558 824 547 824 q 590 828 574 824 q 620 840 607 832 q 642 861 633 849 q 651 890 651 874 q 622 949 651 925 q 557 972 593 972 q 503 953 525 972 q 482 901 482 933 q 492 865 482 878 q 510 828 501 851 z "},"ቷ":{"ha":981,"x_min":118,"x_max":903,"o":"m 354 731 l 447 731 l 450 992 l 574 992 l 571 731 l 663 731 q 791 723 731 731 q 903 696 851 715 l 881 576 q 799 608 850 596 q 663 621 747 621 l 569 621 l 564 110 l 586 110 q 715 102 656 110 q 826 75 775 94 l 804 -42 q 722 -11 774 -22 q 586 0 671 0 l 419 0 q 285 -11 336 0 q 206 -40 235 -22 l 183 75 q 291 102 233 94 q 415 110 349 110 l 439 110 l 446 621 l 354 621 q 220 610 271 621 q 139 579 169 599 l 118 696 q 227 723 167 715 q 354 731 288 731 z "},"ቸ":{"ha":903,"x_min":68,"x_max":854,"o":"m 90 1093 q 170 1063 119 1074 q 304 1051 221 1051 l 613 1051 q 750 1064 697 1051 q 831 1096 803 1076 l 854 976 q 743 949 804 957 q 613 942 682 942 l 524 942 l 521 728 l 615 728 q 743 721 682 728 q 854 694 804 714 l 832 575 q 751 606 803 594 q 615 618 700 618 l 521 618 l 513 0 l 388 0 l 394 618 l 306 618 q 171 607 222 618 q 90 576 119 596 l 68 694 q 178 721 118 714 q 306 728 239 728 l 397 728 l 400 942 l 304 942 q 178 949 238 942 q 68 975 118 957 l 90 1093 z "},"ቹ":{"ha":953,"x_min":68,"x_max":854,"o":"m 90 1093 q 170 1063 119 1074 q 304 1051 221 1051 l 613 1051 q 750 1064 697 1051 q 831 1096 803 1076 l 854 976 q 743 949 804 957 q 613 942 682 942 l 524 942 l 521 728 l 615 728 q 743 721 682 728 q 854 694 804 714 l 832 575 q 751 606 803 594 q 615 618 700 618 l 521 618 l 517 347 l 582 347 q 708 340 647 347 q 818 313 769 332 l 796 196 q 715 226 765 214 q 582 238 664 238 l 515 238 l 513 0 l 388 0 l 394 618 l 306 618 q 171 607 222 618 q 90 576 119 596 l 68 694 q 178 721 118 714 q 306 728 239 728 l 397 728 l 400 942 l 304 942 q 178 949 238 942 q 68 975 118 957 l 90 1093 z "},"ቺ":{"ha":928,"x_min":81,"x_max":867,"o":"m 318 731 l 410 731 l 413 942 l 318 942 q 191 949 251 942 q 81 975 131 957 l 104 1093 q 184 1063 132 1074 q 318 1051 236 1051 l 628 1051 q 764 1064 713 1051 q 844 1096 815 1076 l 867 976 q 756 949 817 957 q 628 942 694 942 l 538 942 l 536 731 l 628 731 q 756 723 694 731 q 867 696 817 715 l 844 576 q 764 608 815 596 q 628 621 713 621 l 535 621 l 529 229 q 533 167 532 190 q 544 131 535 143 q 577 116 554 119 q 644 113 600 113 q 718 114 676 113 q 783 118 760 115 l 783 6 q 739 5 764 6 q 688 3 714 4 q 638 2 661 3 q 596 1 614 1 q 492 13 531 1 q 435 49 454 24 q 410 113 415 74 q 404 208 404 153 l 410 621 l 318 621 q 184 609 236 621 q 104 579 132 597 l 81 696 q 191 723 131 715 q 318 731 251 731 z "},"ቻ":{"ha":1000,"x_min":117,"x_max":903,"o":"m 354 731 l 446 731 l 447 942 l 354 942 q 227 949 288 942 q 117 975 167 957 l 139 1093 q 219 1063 168 1074 q 354 1051 271 1051 l 661 1051 q 799 1064 746 1051 q 879 1096 851 1076 l 903 976 q 792 949 853 957 q 661 942 731 942 l 574 942 l 571 731 l 661 731 q 792 723 731 731 q 903 696 853 715 l 879 576 q 799 608 851 596 q 661 621 746 621 l 568 621 l 565 249 q 548 124 565 172 q 502 49 531 76 q 437 12 474 22 q 361 1 400 1 q 255 6 308 1 q 149 11 201 11 l 149 125 q 186 120 163 122 q 236 116 210 118 q 286 113 263 114 q 324 113 310 113 q 388 122 365 113 q 421 149 410 132 q 435 192 432 167 q 440 247 438 217 l 443 621 l 354 621 q 219 609 271 621 q 139 579 168 597 l 117 696 q 227 723 167 715 q 354 731 288 731 z "},"ቼ":{"ha":992,"x_min":92,"x_max":878,"o":"m 92 975 l 115 1093 q 195 1063 143 1074 q 329 1051 247 1051 l 639 1051 q 775 1064 724 1051 q 856 1096 826 1076 l 878 976 q 767 949 828 957 q 639 942 707 942 l 547 942 l 546 731 l 639 731 q 767 723 707 731 q 878 696 828 715 l 856 576 q 775 608 826 596 q 639 621 724 621 l 544 621 l 540 325 l 622 325 q 703 321 663 325 q 778 302 744 317 q 832 258 811 288 q 853 181 853 229 q 832 97 853 131 q 778 42 811 63 q 703 11 744 21 q 621 1 661 1 q 547 6 583 1 q 481 24 510 10 q 433 65 451 38 q 413 138 414 92 l 421 621 l 329 621 q 195 609 247 621 q 115 579 143 597 l 92 696 q 202 723 142 715 q 329 731 263 731 l 421 731 l 424 942 l 329 942 q 202 949 263 942 q 92 975 142 957 m 624 85 q 694 106 661 85 q 728 178 728 128 q 719 214 728 201 q 697 233 711 226 q 665 240 683 239 q 628 242 647 242 l 539 242 l 539 138 q 564 99 538 114 q 624 85 590 85 z "},"ች":{"ha":1221,"x_min":110,"x_max":1147,"o":"m 133 1099 q 213 1068 161 1079 q 347 1057 265 1057 l 669 1057 q 806 1069 754 1057 q 888 1101 857 1082 l 908 982 q 797 955 858 963 q 669 947 736 947 l 560 947 l 560 901 q 573 856 563 874 q 599 828 583 838 q 633 814 615 818 q 669 808 651 810 l 808 799 l 807 601 l 907 601 q 1035 593 974 601 q 1147 565 1096 585 l 1125 449 q 1043 480 1094 468 q 907 492 992 492 l 806 492 l 800 1 l 675 1 l 681 492 l 599 492 q 464 481 515 492 q 383 451 413 469 l 360 567 q 472 594 411 586 q 599 601 532 601 l 682 601 l 682 721 q 593 729 636 721 q 516 758 550 738 q 460 814 482 779 q 435 901 438 849 l 435 947 l 347 947 q 220 955 281 947 q 110 981 160 963 l 133 1099 z "},"ቾ":{"ha":1108,"x_min":132,"x_max":978,"o":"m 369 613 l 464 613 l 464 675 q 456 741 464 717 q 438 787 447 765 q 420 833 428 808 q 413 896 413 857 q 417 942 413 921 q 297 951 354 943 q 192 975 240 958 l 214 1093 q 294 1063 243 1074 q 428 1051 344 1051 l 736 1051 q 874 1064 821 1051 q 954 1096 926 1076 l 978 976 q 901 955 942 963 q 814 944 860 947 q 824 912 821 929 q 828 874 828 894 q 809 802 828 828 q 759 765 790 776 q 686 750 728 753 q 597 747 644 747 l 582 747 q 589 699 588 724 q 590 642 590 674 q 590 632 590 640 q 589 613 590 624 l 676 613 q 807 605 746 613 q 918 578 868 597 l 894 458 q 814 490 867 478 q 676 503 761 503 l 588 503 l 581 0 l 457 0 l 463 503 l 369 503 q 235 491 286 503 q 154 461 183 479 l 132 578 q 242 605 182 597 q 369 613 303 613 m 615 971 q 558 949 583 971 q 533 893 533 926 q 543 856 533 869 q 561 819 553 843 q 588 817 575 818 q 611 815 600 815 q 644 819 628 815 q 673 833 660 824 q 694 855 686 842 q 703 886 703 868 q 676 947 703 922 q 615 971 650 971 z "},"ቿ":{"ha":942,"x_min":92,"x_max":878,"o":"m 92 696 q 202 722 142 715 q 329 729 263 729 l 421 729 l 424 942 l 328 942 q 201 949 261 942 q 92 975 142 957 l 114 1093 q 194 1063 143 1074 q 328 1051 244 1051 l 636 1051 q 774 1064 721 1051 q 854 1096 826 1076 l 878 976 q 767 949 828 957 q 636 942 706 942 l 547 942 l 544 729 l 639 729 q 767 722 706 729 q 878 696 828 715 l 856 576 q 775 608 826 596 q 639 619 724 619 l 544 619 l 538 111 l 567 111 q 694 103 633 111 q 807 76 756 96 l 785 -42 q 703 -10 754 -22 q 567 1 651 1 l 400 1 q 266 -10 317 1 q 185 -40 215 -22 l 164 76 q 273 103 213 96 q 400 111 333 111 l 413 111 l 418 619 l 329 619 q 194 608 246 619 q 114 578 143 597 l 92 696 z "},"ኀ":{"ha":861,"x_min":104,"x_max":747,"o":"m 747 732 l 681 1 l 558 1 l 618 651 l 575 656 q 451 688 503 663 q 385 782 400 713 l 340 782 q 208 771 258 782 q 126 740 157 760 l 104 860 q 215 885 154 878 q 340 892 275 892 l 374 892 l 372 992 l 497 992 l 500 836 q 513 790 501 808 q 539 762 524 772 q 573 747 554 751 q 608 742 592 743 l 747 732 z "},"ኁ":{"ha":1143,"x_min":122,"x_max":1028,"o":"m 790 506 q 917 498 857 506 q 1028 472 978 490 l 1007 354 q 925 385 976 374 q 790 396 874 396 l 736 396 l 697 1 l 575 1 l 638 651 l 593 656 q 525 667 557 660 q 468 688 493 674 q 426 724 443 701 q 401 782 408 747 l 358 782 q 224 771 275 782 q 144 740 174 760 l 122 860 q 231 885 171 878 q 358 892 292 892 l 390 892 l 389 992 l 513 992 l 517 836 q 528 790 518 808 q 555 762 539 772 q 590 747 571 751 q 625 742 608 743 l 765 732 l 744 506 l 790 506 z "},"ኂ":{"ha":1169,"x_min":163,"x_max":983,"o":"m 758 238 q 758 176 756 200 q 772 137 760 151 q 810 116 785 122 q 881 110 836 110 q 930 111 900 110 q 983 115 960 113 l 983 6 q 904 3 943 6 q 831 1 865 1 q 726 13 767 1 q 665 49 686 24 q 637 113 643 74 q 635 208 631 153 l 676 651 l 632 656 q 564 667 596 660 q 507 688 532 674 q 465 724 482 701 q 440 782 449 747 l 399 782 q 265 771 315 782 q 183 740 214 760 l 163 860 q 272 885 211 878 q 399 892 332 892 l 431 892 l 428 992 l 554 992 l 556 836 q 569 790 558 808 q 595 762 579 772 q 629 747 611 751 q 665 742 647 743 l 803 732 l 758 238 z "},"ኃ":{"ha":856,"x_min":85,"x_max":728,"o":"m 681 208 q 611 52 672 104 q 450 0 550 0 q 364 1 410 0 q 272 3 318 1 q 180 10 225 6 q 96 22 135 15 l 96 139 q 251 113 171 119 q 411 106 332 106 q 465 110 440 106 q 510 127 490 114 q 542 163 529 140 q 558 224 554 186 l 600 651 l 556 656 q 488 666 519 658 q 431 688 456 674 q 388 726 406 703 q 364 783 371 749 l 324 783 q 189 772 240 783 q 107 742 138 761 l 85 860 q 197 885 136 878 q 324 892 257 892 l 354 892 l 353 992 l 478 992 l 481 836 q 493 790 482 808 q 519 762 504 772 q 553 747 535 751 q 589 742 572 743 l 728 732 l 681 208 z "},"ኄ":{"ha":1171,"x_min":133,"x_max":1042,"o":"m 817 325 q 897 321 857 325 q 969 301 936 317 q 1022 258 1001 286 q 1042 182 1042 231 q 1019 97 1042 132 q 963 41 997 63 q 886 10 929 19 q 801 0 843 0 q 724 4 763 0 q 657 22 686 8 q 612 63 628 36 q 600 135 596 89 l 646 651 l 601 656 q 534 665 565 658 q 478 687 503 672 q 436 724 453 701 q 411 782 419 747 l 371 782 q 237 771 288 782 q 156 740 186 760 l 133 860 q 244 885 183 878 q 371 892 304 892 l 400 892 l 399 992 l 524 992 l 528 836 q 540 790 529 808 q 565 762 550 772 q 599 747 581 751 q 635 742 618 743 l 775 732 l 736 325 l 817 325 m 721 131 q 746 94 721 107 q 803 82 771 82 q 844 88 824 82 q 880 105 864 93 q 906 135 896 117 q 917 181 917 154 q 892 232 917 222 q 826 242 867 242 l 731 242 l 721 131 z "},"ኅ":{"ha":849,"x_min":74,"x_max":733,"o":"m 733 732 l 668 1 l 544 1 l 607 651 l 563 656 q 453 685 500 663 q 381 757 406 708 l 369 757 q 322 750 346 757 q 275 721 297 743 q 234 656 253 699 q 203 543 215 614 l 200 526 l 74 526 l 81 567 q 117 683 93 629 q 175 778 140 738 q 256 842 210 818 q 361 869 303 867 l 357 992 l 483 992 l 485 836 q 498 790 488 808 q 524 762 508 772 q 559 747 540 751 q 596 742 578 743 l 733 732 z "},"ኆ":{"ha":1224,"x_min":118,"x_max":1072,"o":"m 904 992 q 1026 952 979 992 q 1072 833 1072 913 q 1058 753 1072 792 q 1017 685 1044 715 q 949 636 990 654 q 850 618 907 618 q 772 635 803 621 q 725 674 742 649 q 702 735 708 699 q 696 821 696 772 l 696 882 q 626 867 660 879 q 565 826 592 854 q 523 752 539 799 q 507 632 507 706 l 507 464 q 517 440 507 449 q 543 431 528 431 l 857 431 l 857 1 l 732 1 l 732 321 l 489 321 q 447 330 467 321 q 413 353 428 339 q 390 388 399 368 q 382 429 382 407 l 382 588 l 357 588 q 222 577 274 588 q 140 549 171 567 l 118 663 q 229 690 169 682 q 357 697 289 697 l 385 697 q 438 842 397 785 q 529 932 478 899 q 635 978 581 965 q 729 992 689 992 l 904 992 m 861 701 q 928 738 907 701 q 950 815 950 774 q 935 880 950 851 q 892 908 919 908 l 850 908 q 805 891 815 908 q 794 822 794 874 q 796 781 794 803 q 803 742 797 760 q 823 713 810 725 q 861 701 836 701 z "},"ኇ":{"ha":1161,"x_min":111,"x_max":1065,"o":"m 111 663 q 222 690 163 682 q 350 697 282 697 l 378 697 q 431 842 390 785 q 522 932 471 899 q 628 978 574 965 q 722 992 682 992 l 897 992 q 1019 952 972 992 q 1065 833 1065 913 q 1051 753 1065 792 q 1010 685 1038 715 q 942 636 983 654 q 843 618 900 618 q 765 635 796 621 q 718 674 735 649 q 695 735 701 699 q 689 821 689 772 l 689 882 q 619 867 653 879 q 558 826 585 854 q 516 752 532 799 q 500 632 500 706 l 500 464 q 510 440 500 449 q 536 431 521 431 l 850 431 l 850 0 l 699 0 q 564 -11 615 0 q 482 -40 513 -22 l 460 78 q 572 103 511 96 q 699 110 632 110 l 725 110 l 725 321 l 482 321 q 440 330 460 321 q 406 353 421 339 q 383 388 392 368 q 375 429 375 407 l 375 588 l 350 588 q 215 577 267 588 q 133 549 164 567 l 111 663 m 788 822 q 789 781 788 803 q 797 742 790 760 q 816 713 803 725 q 854 701 829 701 q 922 738 900 701 q 943 815 943 774 q 928 880 943 851 q 885 908 913 908 l 843 908 q 798 891 808 908 q 788 822 788 874 z "},"ኈ":{"ha":1285,"x_min":122,"x_max":1167,"o":"m 360 892 l 390 892 l 389 992 l 513 992 l 517 836 q 528 790 518 807 q 555 762 539 772 q 590 747 571 751 q 625 742 608 743 l 765 732 l 744 506 l 996 506 q 1119 465 1071 506 q 1167 342 1167 425 q 1154 263 1167 303 q 1117 189 1142 222 q 1053 135 1092 156 q 960 114 1014 114 q 840 179 871 121 q 808 335 808 238 l 808 422 l 736 422 l 697 0 l 575 0 l 638 651 l 592 656 q 524 665 556 658 q 468 687 493 672 q 426 724 443 701 q 400 782 408 747 l 360 782 q 225 771 276 782 q 143 740 174 760 l 122 860 q 233 885 172 878 q 360 892 293 892 m 897 338 q 899 296 897 317 q 908 257 901 275 q 928 228 914 239 q 964 217 942 217 q 1001 226 985 217 q 1027 252 1017 236 q 1043 288 1038 268 q 1049 326 1049 307 q 1032 393 1049 364 q 985 422 1015 422 l 897 422 l 897 338 z "},"ነ":{"ha":624,"x_min":114,"x_max":489,"o":"m 489 732 l 422 0 l 300 0 l 361 651 l 317 656 q 241 672 276 660 q 178 705 206 683 q 135 758 151 726 q 117 833 119 790 l 114 990 l 239 990 l 242 833 q 254 788 243 806 q 281 761 265 771 q 315 747 296 751 q 350 742 333 743 l 489 732 z "},"ኑ":{"ha":910,"x_min":150,"x_max":792,"o":"m 554 506 q 681 498 621 506 q 792 471 740 490 l 768 354 q 688 384 739 372 q 554 396 636 396 l 497 396 l 461 0 l 338 0 l 400 651 l 356 656 q 280 672 315 660 q 217 705 244 683 q 174 758 190 726 q 154 833 157 790 l 150 990 l 276 990 l 278 833 q 291 788 281 806 q 317 761 301 771 q 352 747 333 751 q 389 742 371 743 l 526 732 l 507 506 l 554 506 z "},"ኒ":{"ha":915,"x_min":186,"x_max":763,"o":"m 599 113 q 622 110 610 111 q 650 110 635 110 q 709 113 679 110 q 763 118 739 115 l 763 4 q 672 1 722 1 q 588 0 622 0 q 481 12 521 0 q 419 49 440 24 q 394 113 399 74 q 393 208 389 153 l 433 651 l 389 656 q 313 672 349 660 q 251 705 278 683 q 208 758 224 726 q 189 833 192 790 l 186 990 l 311 990 l 315 833 q 327 788 317 806 q 353 761 338 771 q 387 747 368 751 q 422 742 406 743 l 563 732 l 515 236 q 514 188 514 210 q 522 149 514 165 q 547 124 529 133 q 599 113 565 114 z "},"ና":{"ha":800,"x_min":136,"x_max":696,"o":"m 613 0 l 488 0 l 488 344 l 207 344 q 157 367 178 344 q 136 418 136 389 l 136 632 q 174 810 136 740 q 266 919 211 879 q 383 975 321 960 q 492 990 444 990 q 615 962 565 990 q 696 885 665 933 l 606 817 q 580 851 594 839 q 549 868 565 863 q 515 875 532 874 q 482 878 499 876 q 406 868 444 878 q 334 831 367 858 q 281 756 301 804 q 261 632 261 708 l 261 493 q 272 467 261 478 q 296 457 282 457 l 613 457 l 613 0 z "},"ኔ":{"ha":868,"x_min":113,"x_max":756,"o":"m 528 324 q 610 319 569 324 q 684 301 651 315 q 736 258 717 286 q 756 181 756 229 q 735 96 756 131 q 681 40 714 61 q 608 8 649 18 q 526 -1 567 -1 q 447 1 488 -1 q 376 16 407 3 q 328 57 346 29 q 315 135 311 85 l 361 651 l 317 656 q 241 672 276 660 q 178 705 206 683 q 135 758 151 726 q 117 833 119 790 l 113 990 l 239 990 l 242 833 q 253 788 243 806 q 280 761 264 771 q 314 747 296 751 q 349 742 332 743 l 489 732 l 454 324 l 528 324 m 436 131 q 463 94 436 107 q 524 81 489 81 q 562 85 543 81 q 596 101 581 90 q 621 129 611 113 q 631 169 631 146 q 622 207 631 193 q 597 228 613 221 q 563 238 582 236 q 524 240 544 240 l 447 240 l 436 131 z "},"ን":{"ha":810,"x_min":85,"x_max":749,"o":"m 749 596 l 694 0 l 572 0 l 619 508 l 426 508 l 426 632 q 412 773 426 724 q 374 845 397 822 q 324 872 351 868 q 271 878 297 876 q 199 869 235 878 q 129 840 163 861 l 85 939 q 184 979 133 968 q 278 990 235 990 q 406 962 354 990 q 491 885 458 933 q 538 771 524 836 q 551 632 551 706 l 551 596 l 749 596 z "},"ኖ":{"ha":900,"x_min":124,"x_max":806,"o":"m 644 990 q 765 950 724 990 q 806 825 806 910 q 754 676 806 733 q 590 618 703 618 q 470 674 503 625 q 438 819 438 722 l 438 879 q 367 866 401 878 q 307 826 333 854 q 265 752 281 799 q 249 632 249 706 l 249 465 q 258 440 249 450 q 283 429 268 429 l 599 429 l 599 0 l 474 0 l 474 321 l 228 321 q 154 352 185 321 q 124 429 124 383 l 124 632 q 141 759 124 704 q 188 853 158 814 q 253 919 217 893 q 328 962 289 946 q 403 984 367 978 q 469 990 440 990 l 644 990 m 610 701 q 673 733 654 701 q 692 803 692 764 q 674 874 692 842 q 628 907 657 907 l 592 907 q 545 883 556 907 q 535 822 535 858 q 537 781 535 801 q 547 742 539 760 q 570 713 556 724 q 610 701 585 701 z "},"ኗ":{"ha":965,"x_min":122,"x_max":864,"o":"m 122 418 l 122 631 q 160 809 122 739 q 252 919 197 879 q 369 975 307 960 q 478 990 431 990 q 601 962 551 990 q 682 885 651 933 l 593 817 q 565 851 581 839 q 534 868 550 863 q 501 875 518 874 q 469 878 485 876 q 392 868 432 878 q 321 831 353 858 q 268 756 289 804 q 247 631 247 708 l 247 492 q 258 466 247 476 q 283 456 268 456 l 599 456 l 599 110 l 624 110 q 751 103 690 110 q 864 76 813 96 l 842 -43 q 760 -12 811 -24 q 624 0 708 0 l 444 0 q 310 -12 361 0 q 229 -42 260 -24 l 208 76 q 317 103 257 96 q 444 110 378 110 l 474 110 l 474 343 l 193 343 q 142 366 163 344 q 122 418 122 388 z "},"ኘ":{"ha":836,"x_min":89,"x_max":724,"o":"m 111 1033 q 193 1002 142 1014 q 329 990 244 990 l 488 990 q 621 1001 569 990 q 701 1032 672 1013 l 724 914 q 615 888 675 896 q 488 881 554 881 l 469 881 l 474 744 q 485 699 475 717 q 512 672 496 682 q 547 657 528 661 q 582 650 565 653 l 714 642 l 654 0 l 532 0 l 586 561 l 549 565 q 473 582 508 569 q 410 616 438 594 q 367 669 383 638 q 349 744 351 701 l 346 881 l 329 881 q 201 888 261 881 q 89 915 140 896 l 111 1033 z "},"ኙ":{"ha":1139,"x_min":133,"x_max":1025,"o":"m 156 1033 q 238 1002 186 1014 q 374 990 289 990 l 532 990 q 665 1001 614 990 q 746 1032 717 1013 l 768 914 q 659 888 719 896 q 532 881 599 881 l 514 881 l 518 744 q 530 699 519 717 q 556 672 540 682 q 591 657 572 661 q 626 650 610 653 l 758 642 l 740 450 l 788 450 q 915 443 854 450 q 1025 418 975 436 l 1004 300 q 922 329 974 318 q 788 340 871 340 l 731 340 l 699 0 l 576 0 l 631 561 l 593 565 q 517 582 553 569 q 455 616 482 594 q 412 669 428 638 q 393 744 396 701 l 390 881 l 374 881 q 245 888 306 881 q 133 915 185 896 l 156 1033 z "},"ኚ":{"ha":1144,"x_min":168,"x_max":999,"o":"m 168 913 l 189 1032 q 271 1000 219 1013 q 407 988 322 988 l 567 988 q 701 999 650 988 q 782 1029 753 1011 l 806 913 q 694 885 754 893 q 567 878 633 878 l 550 878 l 553 743 q 566 698 556 715 q 592 670 576 681 q 626 656 608 660 q 661 650 644 651 l 793 642 l 754 236 q 753 174 750 199 q 772 136 757 150 q 813 117 786 122 q 883 113 840 113 q 940 114 906 113 q 999 118 975 115 l 999 4 q 910 2 958 4 q 832 0 863 0 q 724 15 767 0 q 659 57 682 29 q 630 126 636 85 q 632 222 624 168 l 665 561 l 629 563 q 552 579 588 567 q 490 613 517 592 q 447 667 463 635 q 429 743 431 700 l 424 878 l 407 878 q 279 885 340 878 q 168 913 218 893 z "},"ኛ":{"ha":825,"x_min":106,"x_max":740,"o":"m 106 303 l 106 424 q 130 570 106 511 q 192 667 154 629 q 276 724 229 704 q 367 750 322 743 l 367 878 l 350 878 q 224 885 282 878 q 115 913 165 893 l 139 1032 q 216 1000 167 1013 q 350 988 265 988 l 503 988 q 637 999 586 988 q 718 1029 688 1011 l 740 913 q 629 885 689 893 q 503 878 569 878 l 492 878 l 492 756 q 598 722 558 749 q 665 650 638 694 l 576 583 q 549 617 564 606 q 519 635 535 629 q 490 642 504 640 q 464 643 475 643 q 381 637 422 643 q 306 608 339 631 q 251 541 272 585 q 231 421 231 497 l 231 376 q 241 351 231 361 q 267 340 251 340 l 504 340 l 504 0 l 379 0 l 379 232 l 176 232 q 126 253 147 232 q 106 303 106 275 z "},"ኜ":{"ha":1157,"x_min":146,"x_max":1038,"o":"m 146 913 l 168 1032 q 250 1000 199 1013 q 386 988 301 988 l 544 988 q 677 999 626 988 q 758 1029 728 1011 l 781 913 q 672 885 732 893 q 544 878 611 878 l 519 878 l 522 743 q 535 698 524 715 q 561 671 546 681 q 595 657 576 661 q 631 650 614 653 l 764 642 l 733 322 l 807 322 q 890 318 849 322 q 964 299 931 314 q 1017 256 997 285 q 1038 179 1038 228 q 1016 94 1038 129 q 960 38 994 60 q 884 7 926 17 q 801 -3 842 -3 q 733 0 771 -3 q 665 15 696 3 q 614 55 633 28 q 599 132 594 82 l 636 561 l 599 565 q 523 582 558 569 q 460 615 488 594 q 417 668 433 636 q 399 743 401 700 l 394 878 l 386 878 q 258 885 318 878 q 146 913 197 893 m 800 81 q 877 103 842 81 q 913 175 913 125 q 904 212 913 199 q 881 231 896 225 q 847 239 867 238 q 807 240 828 240 l 728 240 l 719 133 q 744 92 718 104 q 800 81 769 81 z "},"ኝ":{"ha":896,"x_min":92,"x_max":829,"o":"m 113 1032 q 192 1000 143 1013 q 325 988 240 988 l 485 988 q 616 999 568 988 q 692 1029 664 1011 l 715 913 q 608 885 665 893 q 485 878 551 878 l 467 878 l 467 744 q 549 704 515 731 q 603 644 582 678 q 633 569 624 610 q 642 489 642 529 l 642 479 l 829 479 l 785 0 l 663 0 l 700 393 l 517 393 l 517 489 q 502 568 517 538 q 465 615 488 599 q 414 638 442 632 q 360 643 386 643 q 288 635 325 643 q 218 607 251 626 l 172 704 q 262 743 218 731 q 342 756 306 756 l 342 878 l 325 878 q 200 885 258 878 q 92 913 142 893 l 113 1032 z "},"ኞ":{"ha":950,"x_min":153,"x_max":867,"o":"m 432 814 l 432 958 l 419 958 q 289 966 350 958 q 178 993 228 974 l 201 1093 q 282 1062 229 1074 q 419 1050 335 1050 l 564 1050 q 699 1061 647 1050 q 781 1092 750 1072 l 803 992 q 691 966 751 974 q 564 958 631 958 l 544 958 l 544 817 l 719 817 q 831 774 794 817 q 867 653 867 731 q 808 500 867 550 q 644 450 749 450 q 526 503 558 457 q 493 647 493 549 l 493 707 l 472 707 q 401 692 436 704 q 338 653 365 681 q 294 581 311 626 q 278 465 278 536 l 278 361 q 288 336 278 346 q 311 326 297 326 l 550 326 l 550 0 l 425 0 l 425 214 l 224 214 q 173 236 193 214 q 153 288 153 258 l 153 485 q 179 635 153 575 q 247 733 206 696 q 337 789 288 771 q 432 814 386 807 m 660 535 q 698 544 682 535 q 724 570 714 554 q 740 606 735 586 q 746 646 746 625 q 731 706 746 679 q 690 733 717 733 l 644 733 q 603 717 617 733 q 590 649 590 701 q 593 609 590 629 q 603 572 596 589 q 624 545 610 556 q 660 535 638 535 z "},"ኟ":{"ha":982,"x_min":160,"x_max":822,"o":"m 421 750 l 421 881 l 403 881 q 278 888 336 881 q 168 915 219 896 l 190 1032 q 270 1001 221 1013 q 403 990 319 990 l 563 990 q 694 1001 646 990 q 771 1029 742 1011 l 793 914 q 686 888 743 896 q 563 881 629 881 l 546 881 l 546 756 q 651 722 613 749 q 718 650 690 694 l 629 585 q 602 619 617 607 q 571 636 588 631 q 538 643 554 642 q 504 644 521 644 q 428 638 467 644 q 357 609 389 632 q 305 542 325 586 q 285 421 285 497 l 285 376 q 295 351 285 361 q 321 342 306 342 l 564 342 l 564 110 l 582 110 q 710 103 649 110 q 822 76 772 96 l 800 -43 q 718 -12 769 -24 q 582 0 667 0 l 415 0 q 282 -12 333 0 q 201 -42 231 -24 l 179 76 q 288 103 228 96 q 415 110 349 110 l 439 110 l 439 229 l 231 229 q 180 252 200 229 q 160 303 160 275 l 160 424 q 184 570 160 511 q 246 667 208 629 q 330 724 283 704 q 421 750 376 743 z "},"አ":{"ha":876,"x_min":93,"x_max":789,"o":"m 93 992 l 218 992 l 222 860 q 240 798 224 824 q 293 769 257 772 l 444 754 l 388 538 l 483 538 q 565 523 526 538 q 635 483 604 508 q 688 421 667 457 q 717 342 708 385 l 789 0 l 665 0 l 594 326 q 550 414 585 379 q 463 449 515 449 l 364 449 l 247 0 l 122 0 l 299 679 l 258 685 q 196 704 225 689 q 145 742 167 719 q 111 795 124 765 q 97 860 99 825 l 93 992 z "},"ኡ":{"ha":1150,"x_min":119,"x_max":1042,"o":"m 119 992 l 244 992 l 247 860 q 265 798 247 824 q 317 769 282 772 l 469 754 l 413 538 l 507 538 q 589 523 550 538 q 659 483 628 508 q 711 422 690 457 q 740 344 732 386 l 804 344 q 931 338 871 344 q 1042 311 992 331 l 1019 193 q 938 224 989 213 q 804 235 888 235 l 760 235 l 813 0 l 689 0 l 618 326 q 574 414 610 379 q 486 449 539 449 l 389 449 l 271 0 l 146 0 l 325 679 l 285 685 q 170 742 215 694 q 122 860 125 790 l 119 992 z "},"ኢ":{"ha":1161,"x_min":136,"x_max":1064,"o":"m 1064 4 q 994 2 1029 4 q 925 0 960 0 q 826 9 869 0 q 751 41 782 18 q 699 101 719 64 q 665 194 678 139 l 638 326 q 592 414 628 379 q 503 449 556 449 l 407 449 l 290 0 l 165 0 l 343 679 l 301 685 q 188 742 233 694 q 140 860 142 790 l 136 992 l 261 992 l 265 860 q 283 798 265 824 q 335 769 300 772 l 488 754 l 431 538 l 526 538 q 608 523 569 538 q 678 483 647 508 q 729 421 708 457 q 757 342 750 385 l 786 235 q 806 172 794 196 q 835 133 818 147 q 879 115 853 119 q 943 110 906 110 q 1005 112 972 110 q 1060 118 1038 114 l 1064 4 z "},"ኣ":{"ha":847,"x_min":78,"x_max":774,"o":"m 774 0 l 650 0 l 579 326 q 535 414 571 379 q 447 449 500 449 l 350 449 l 279 182 l 154 182 l 285 679 l 244 685 q 131 742 176 694 q 82 860 85 790 l 78 992 l 204 992 l 206 860 q 224 798 206 824 q 278 769 242 772 l 431 754 l 372 538 l 468 538 q 550 523 511 538 q 620 483 589 508 q 672 421 651 457 q 701 342 693 385 l 774 0 z "},"ኤ":{"ha":1156,"x_min":119,"x_max":1081,"o":"m 843 324 q 926 319 885 324 q 1003 301 968 315 q 1059 257 1038 286 q 1081 178 1081 228 q 1058 93 1081 128 q 1002 38 1036 58 q 926 7 968 17 q 842 -3 883 -3 q 789 -1 817 -3 q 738 10 761 1 q 696 37 714 19 q 671 83 678 54 l 621 326 q 574 414 610 379 q 486 449 539 449 l 390 449 l 274 0 l 149 0 l 326 679 l 285 685 q 170 742 215 694 q 122 860 125 790 l 119 992 l 243 992 l 247 860 q 266 798 249 824 q 317 769 283 772 l 469 754 l 414 538 l 510 538 q 658 484 596 538 q 740 342 721 431 l 744 324 l 843 324 m 789 131 q 816 94 794 107 q 864 82 838 82 q 927 104 897 82 q 957 175 957 126 q 935 227 957 214 q 865 240 913 240 l 763 240 l 789 131 z "},"እ":{"ha":810,"x_min":81,"x_max":776,"o":"m 81 992 l 204 992 l 207 925 q 224 865 207 890 q 276 836 242 839 l 340 831 l 304 692 l 415 692 l 375 538 l 471 538 q 553 523 514 538 q 622 483 592 508 q 674 421 653 457 q 701 342 694 385 l 776 0 l 650 0 l 581 326 q 535 414 571 379 q 447 449 500 449 l 351 449 l 235 0 l 111 0 l 267 597 l 156 597 l 200 761 q 117 824 150 779 q 82 925 85 868 l 81 992 z "},"ኦ":{"ha":868,"x_min":101,"x_max":757,"o":"m 757 182 l 632 182 l 601 326 q 555 415 589 381 q 468 449 521 449 l 372 449 l 256 0 l 131 0 l 308 679 l 267 685 q 152 742 197 694 q 104 860 107 790 l 101 992 l 225 992 l 229 860 q 247 798 229 824 q 299 769 265 772 l 451 754 l 396 538 l 490 538 q 640 483 578 538 q 722 342 703 429 l 757 182 z "},"ኧ":{"ha":1208,"x_min":147,"x_max":1099,"o":"m 147 915 l 168 1033 q 250 1002 199 1014 q 386 990 301 990 l 567 990 q 699 1002 649 990 q 781 1032 750 1014 l 803 915 q 692 888 751 896 q 567 881 632 881 l 531 881 l 532 842 q 550 789 533 806 q 601 769 567 772 l 754 754 l 697 538 l 793 538 q 875 523 836 538 q 944 483 914 508 q 996 421 975 457 q 1024 342 1017 385 l 1099 0 l 986 0 l 915 326 q 865 414 906 379 q 769 449 825 449 l 674 449 l 557 0 l 432 0 l 608 679 l 568 685 q 456 733 500 694 q 407 842 413 772 l 404 881 l 386 881 q 258 888 318 881 q 147 915 197 896 z "},"ከ":{"ha":1011,"x_min":114,"x_max":814,"o":"m 115 1050 l 239 1050 l 239 854 q 256 789 239 810 q 308 765 274 768 l 332 763 q 389 804 358 788 q 449 831 419 821 q 508 846 479 842 q 560 850 536 850 q 688 823 639 850 q 766 748 738 796 q 804 634 794 700 q 814 490 814 568 l 814 0 l 689 0 l 689 490 q 679 632 689 582 q 653 706 669 682 q 614 733 636 729 q 567 738 592 738 q 400 671 449 738 q 351 490 351 604 l 351 0 l 226 0 l 226 490 q 238 597 226 549 q 268 681 249 644 q 158 734 203 689 q 114 854 114 779 l 115 1050 z "},"ኩ":{"ha":1239,"x_min":124,"x_max":1110,"o":"m 124 854 l 125 1050 l 249 1050 l 249 854 q 266 789 249 810 q 319 765 283 768 l 340 763 q 458 831 396 811 q 569 850 521 850 q 697 824 647 850 q 774 751 746 797 q 813 642 801 706 q 824 506 824 579 l 871 506 q 998 498 938 506 q 1110 471 1058 490 l 1088 354 q 1006 384 1057 372 q 871 396 954 396 l 826 396 l 826 0 l 701 0 l 701 490 q 691 632 701 582 q 664 706 681 682 q 624 733 647 729 q 576 738 601 738 q 410 671 458 738 q 361 490 361 604 l 361 0 l 236 0 l 236 490 q 247 597 236 549 q 278 681 258 644 q 168 734 213 689 q 124 854 124 779 z "},"ኪ":{"ha":1233,"x_min":156,"x_max":1104,"o":"m 857 232 q 862 165 857 189 q 879 128 867 140 q 915 114 892 117 q 974 111 938 111 q 1045 113 1010 111 q 1104 117 1081 114 l 1104 4 q 1026 1 1065 4 q 947 -1 986 -1 q 783 42 833 -1 q 732 199 732 86 l 732 490 q 722 635 732 585 q 693 707 711 685 q 651 732 675 729 q 601 736 628 735 q 526 726 564 736 q 460 690 489 717 q 412 615 431 663 q 393 490 393 567 l 393 -1 l 268 -1 l 268 490 q 280 596 268 549 q 311 679 292 643 q 200 734 244 689 q 156 854 156 779 l 158 1050 l 282 1050 l 282 854 q 299 789 282 810 q 350 765 317 768 l 374 763 q 430 804 400 788 q 490 831 460 821 q 549 846 521 842 q 601 850 578 850 q 731 823 681 850 q 809 747 781 796 q 847 633 838 699 q 857 490 857 568 l 857 232 z "},"ካ":{"ha":1050,"x_min":149,"x_max":851,"o":"m 596 850 q 725 823 675 850 q 803 747 775 796 q 842 633 832 699 q 851 490 851 568 l 851 -1 l 726 -1 l 726 490 q 715 635 726 585 q 686 707 704 685 q 644 732 668 729 q 596 736 621 735 q 521 726 558 736 q 453 690 483 717 q 405 615 424 663 q 386 490 386 567 l 386 311 l 261 311 l 261 490 q 272 596 261 549 q 303 679 283 643 q 194 734 239 689 q 149 854 149 779 l 150 1050 l 274 1050 l 274 854 q 291 789 274 810 q 344 765 308 768 l 367 763 q 484 831 421 811 q 596 850 547 850 z "},"ኬ":{"ha":1249,"x_min":142,"x_max":1132,"o":"m 143 1050 l 267 1050 l 267 854 q 284 789 267 810 q 336 765 301 768 l 360 763 q 416 804 386 788 q 476 831 446 821 q 534 846 506 842 q 586 850 563 850 q 716 823 665 850 q 794 747 767 796 q 833 633 822 699 q 843 490 843 568 l 843 321 l 901 321 q 981 317 940 321 q 1056 299 1022 314 q 1110 256 1089 285 q 1132 178 1132 228 q 1110 94 1132 129 q 1054 38 1089 60 q 975 7 1019 17 q 883 -3 931 -3 q 825 2 854 -3 q 772 21 796 7 q 733 60 747 35 q 718 128 718 86 l 718 490 q 708 635 718 585 q 679 707 697 685 q 637 732 661 729 q 586 736 613 735 q 512 726 549 736 q 445 690 475 717 q 397 615 415 663 q 379 490 379 567 l 379 -1 l 254 -1 l 254 490 q 265 596 254 549 q 296 679 276 643 q 185 734 229 689 q 142 854 142 779 l 143 1050 m 843 238 l 843 128 q 863 93 843 106 q 911 81 883 81 q 976 104 944 81 q 1007 179 1007 128 q 988 229 1007 219 q 942 239 969 239 q 919 238 931 239 q 897 238 908 238 l 843 238 z "},"ክ":{"ha":936,"x_min":115,"x_max":815,"o":"m 117 1050 l 240 1050 l 240 854 q 258 789 240 810 q 310 765 275 768 l 333 763 q 390 804 360 788 q 449 831 419 821 q 508 846 479 842 q 560 850 536 850 q 689 823 639 850 q 767 747 739 796 q 806 633 796 699 q 815 490 815 568 l 815 -1 l 690 -1 l 690 490 q 680 635 690 585 q 651 707 669 685 q 610 732 633 729 q 560 736 586 735 q 485 726 522 736 q 419 690 449 717 q 371 615 389 663 q 353 490 353 567 l 353 482 q 389 498 367 489 q 431 508 411 507 l 496 414 q 439 399 465 410 q 394 368 413 389 q 364 313 375 347 q 353 224 353 278 l 353 -1 l 228 -1 l 228 224 q 241 338 228 290 q 278 419 254 385 l 228 447 l 228 490 q 239 596 228 549 q 269 679 250 643 q 159 734 203 689 q 115 854 115 779 l 117 1050 z "},"ኮ":{"ha":942,"x_min":119,"x_max":819,"o":"m 564 850 q 693 823 643 850 q 772 747 743 796 q 810 633 800 699 q 819 490 819 568 l 819 311 l 694 311 l 694 490 q 684 635 694 585 q 656 707 674 685 q 614 732 638 729 q 564 736 590 735 q 490 726 526 736 q 423 690 453 717 q 375 615 393 663 q 357 490 357 567 l 357 -1 l 232 -1 l 232 490 q 243 596 232 549 q 274 679 254 643 q 163 734 207 689 q 119 854 119 779 l 121 1050 l 244 1050 l 244 854 q 262 789 244 810 q 314 765 279 768 l 338 763 q 394 804 364 788 q 453 831 424 821 q 512 846 483 842 q 564 850 540 850 z "},"ኯ":{"ha":1119,"x_min":132,"x_max":983,"o":"m 132 331 q 241 356 181 349 q 368 363 301 363 l 396 363 l 396 490 q 438 679 396 607 q 327 734 371 689 q 283 854 283 779 l 283 1050 l 408 1050 l 408 854 q 426 789 408 810 q 476 765 443 768 l 499 763 q 616 831 553 811 q 728 850 679 850 q 857 823 807 850 q 935 747 907 796 q 974 633 964 699 q 983 490 983 568 l 983 311 l 858 311 l 858 490 q 848 635 858 585 q 819 707 838 685 q 778 732 801 729 q 728 736 754 735 q 653 726 690 736 q 587 690 617 717 q 539 615 557 663 q 521 490 521 567 l 521 -1 l 396 -1 l 396 253 l 368 253 q 235 242 286 253 q 154 213 183 231 l 132 331 z "},"ኰ":{"ha":1403,"x_min":135,"x_max":1276,"o":"m 135 854 l 138 1050 l 261 1050 l 261 854 q 329 765 261 769 l 353 763 q 409 803 379 788 q 469 830 439 819 q 528 844 500 840 q 581 849 557 849 q 708 823 658 849 q 785 751 757 797 q 825 641 814 704 q 836 503 836 578 l 1100 503 q 1226 466 1176 503 q 1276 347 1276 429 q 1231 188 1276 246 q 1083 129 1186 129 q 999 145 1031 129 q 949 188 967 161 q 925 253 931 215 q 919 332 919 290 l 919 419 l 836 419 l 836 -1 l 711 -1 l 711 490 q 701 635 711 585 q 672 707 690 685 q 631 732 654 729 q 581 736 607 735 q 506 726 543 736 q 440 690 469 717 q 392 615 410 663 q 374 490 374 567 l 374 -1 l 249 -1 l 249 490 q 260 596 249 549 q 290 679 271 643 q 179 734 224 689 q 135 854 135 779 m 1017 335 q 1018 297 1017 318 q 1026 256 1019 275 q 1044 225 1032 238 q 1079 213 1057 213 q 1114 222 1099 213 q 1140 248 1129 232 q 1156 283 1150 264 q 1161 324 1161 303 q 1143 390 1161 360 q 1093 419 1125 419 l 1015 419 l 1017 335 z "},"ኸ":{"ha":1251,"x_min":115,"x_max":1085,"o":"m 136 1093 q 219 1062 167 1074 q 354 1050 271 1050 l 536 1050 q 671 1062 619 1050 q 751 1092 722 1074 l 774 975 q 663 948 724 956 q 536 940 603 940 l 510 940 l 510 854 q 527 789 510 810 q 578 765 544 768 l 601 763 q 658 804 628 788 q 719 831 689 821 q 778 846 749 842 q 831 850 807 850 q 959 823 910 850 q 1037 748 1008 796 q 1075 634 1065 700 q 1085 490 1085 568 l 1085 0 l 960 0 l 960 490 q 949 635 960 585 q 922 707 939 685 q 881 732 904 729 q 831 736 857 735 q 756 726 793 736 q 688 690 718 717 q 640 615 658 663 q 621 490 621 567 l 621 0 l 496 0 l 496 490 q 507 596 496 549 q 538 681 518 643 q 428 734 474 689 q 383 854 383 779 l 386 940 l 354 940 q 226 948 288 940 q 115 975 165 956 l 136 1093 z "},"ኹ":{"ha":1522,"x_min":126,"x_max":1378,"o":"m 126 975 l 150 1093 q 231 1062 179 1074 q 368 1050 283 1050 l 546 1050 q 681 1062 629 1050 q 763 1092 732 1074 l 783 975 q 673 948 733 956 q 546 940 613 940 l 517 940 l 517 854 q 534 789 517 810 q 588 765 551 768 l 610 763 q 727 831 664 811 q 839 850 790 850 q 966 824 917 850 q 1043 751 1015 797 q 1082 642 1071 706 q 1093 503 1093 578 l 1142 503 q 1269 496 1208 503 q 1378 471 1329 489 l 1356 353 q 1276 382 1326 371 q 1142 393 1225 393 l 1094 393 l 1094 0 l 969 0 l 969 490 q 958 635 969 585 q 929 707 947 685 q 888 732 911 729 q 839 736 864 735 q 764 726 801 736 q 697 690 726 717 q 648 615 667 663 q 629 490 629 567 l 629 0 l 504 0 l 504 490 q 515 596 504 549 q 546 681 526 643 q 437 734 482 689 q 392 854 392 779 l 393 940 l 368 940 q 239 948 300 940 q 126 975 178 956 z "},"ኺ":{"ha":1522,"x_min":143,"x_max":1361,"o":"m 165 1093 q 247 1062 194 1074 q 383 1050 299 1050 l 563 1050 q 697 1062 646 1050 q 778 1092 747 1074 l 799 975 q 689 948 749 956 q 563 940 629 940 l 538 940 l 538 854 q 555 789 538 810 q 607 765 572 768 l 629 763 q 747 831 683 811 q 857 850 810 850 q 987 823 936 850 q 1065 748 1038 796 q 1103 634 1093 700 q 1114 490 1114 568 l 1114 232 q 1119 166 1114 190 q 1138 130 1124 142 q 1176 115 1151 118 q 1239 111 1200 111 q 1303 113 1268 111 q 1361 117 1338 114 l 1361 4 q 1283 2 1321 4 q 1210 0 1244 0 q 1042 42 1094 0 q 989 194 989 83 l 989 490 q 978 635 989 585 q 950 707 968 685 q 908 732 932 729 q 857 736 883 735 q 783 726 819 736 q 716 690 746 717 q 668 615 686 663 q 650 490 650 567 l 650 0 l 525 0 l 525 490 q 536 596 525 549 q 567 681 547 643 q 456 734 500 689 q 413 854 413 779 l 413 940 l 383 940 q 255 948 315 940 q 143 975 194 956 l 165 1093 z "},"ኻ":{"ha":1226,"x_min":126,"x_max":1093,"o":"m 126 975 l 149 1093 q 231 1062 179 1074 q 367 1050 283 1050 l 547 1050 q 682 1062 631 1050 q 764 1092 733 1074 l 786 975 q 674 948 735 956 q 547 940 614 940 l 518 940 l 518 854 q 535 789 518 810 q 586 765 553 768 l 610 763 q 667 804 636 788 q 727 831 697 821 q 786 846 757 842 q 839 850 815 850 q 967 823 918 850 q 1045 748 1017 796 q 1083 634 1074 700 q 1093 490 1093 568 l 1093 0 l 968 0 l 968 490 q 958 635 968 585 q 930 707 947 685 q 889 732 913 729 q 839 736 865 735 q 764 726 801 736 q 697 690 726 717 q 648 615 667 663 q 629 490 629 567 l 629 313 l 504 313 l 504 490 q 515 596 504 549 q 546 681 526 643 q 436 734 481 689 q 392 854 392 779 l 394 940 l 367 940 q 239 948 300 940 q 126 975 178 956 z "},"ኼ":{"ha":1533,"x_min":142,"x_max":1399,"o":"m 163 1093 q 244 1062 192 1074 q 381 1050 296 1050 l 558 1050 q 693 1062 642 1050 q 775 1092 744 1074 l 797 975 q 685 948 746 956 q 558 940 625 940 l 535 940 l 535 854 q 553 789 535 810 q 604 765 571 768 l 626 763 q 744 831 681 811 q 856 850 807 850 q 985 823 935 850 q 1063 748 1035 796 q 1101 634 1092 700 q 1111 490 1111 568 l 1111 324 l 1169 324 q 1253 319 1211 324 q 1326 300 1294 315 q 1378 255 1358 285 q 1399 174 1399 225 q 1373 81 1399 115 q 1306 28 1347 46 q 1217 6 1265 11 q 1122 1 1168 1 q 1067 11 1092 4 q 1024 33 1042 18 q 996 71 1006 47 q 986 129 986 94 l 986 490 q 976 635 986 585 q 947 707 965 685 q 906 732 929 729 q 856 736 882 735 q 781 726 818 736 q 714 690 743 717 q 666 615 685 663 q 647 490 647 567 l 647 0 l 522 0 l 522 490 q 533 596 522 549 q 564 681 544 643 q 454 734 499 689 q 410 854 410 779 l 410 940 l 381 940 q 252 948 313 940 q 142 975 192 956 l 163 1093 m 1111 129 q 1131 96 1111 108 q 1179 83 1151 83 q 1243 106 1213 83 q 1274 179 1274 128 q 1250 231 1274 221 q 1188 240 1226 240 l 1111 240 l 1111 129 z "},"ኽ":{"ha":1233,"x_min":132,"x_max":1085,"o":"m 154 1094 q 236 1064 185 1075 q 372 1053 288 1053 l 539 1053 q 673 1064 622 1053 q 753 1093 724 1075 l 775 975 q 666 950 726 957 q 539 943 606 943 l 510 943 l 510 856 q 527 790 510 811 q 579 767 544 769 l 603 764 q 659 806 629 789 q 719 833 689 822 q 777 847 749 843 q 829 851 806 851 q 958 824 908 851 q 1037 749 1008 797 q 1075 635 1065 700 q 1085 492 1085 569 l 1085 0 l 960 0 l 960 492 q 949 636 960 586 q 921 708 939 686 q 879 733 903 731 q 829 738 856 736 q 755 728 792 738 q 688 691 718 718 q 640 616 658 664 q 622 492 622 568 l 622 483 q 658 499 636 490 q 700 510 681 508 l 765 415 q 708 401 735 411 q 663 369 682 390 q 633 314 644 349 q 622 225 622 279 l 622 0 l 497 0 l 497 225 q 510 339 497 292 q 547 421 524 386 l 497 449 l 497 492 q 508 597 497 550 q 539 681 519 644 q 428 735 472 690 q 385 856 385 781 l 385 943 l 372 943 q 244 951 306 943 q 132 978 183 958 l 154 1094 z "},"ኾ":{"ha":1233,"x_min":126,"x_max":1089,"o":"m 126 976 l 149 1093 q 230 1063 178 1074 q 367 1051 282 1051 l 547 1051 q 680 1063 629 1051 q 761 1092 731 1074 l 783 974 q 674 949 735 956 q 547 942 614 942 l 514 942 l 514 854 q 531 790 514 810 q 582 767 549 769 l 606 763 q 663 805 632 788 q 723 832 693 822 q 782 846 753 842 q 835 850 811 850 q 963 823 914 850 q 1041 748 1013 796 q 1079 634 1069 700 q 1089 490 1089 568 l 1089 313 l 964 313 l 964 490 q 954 632 964 582 q 928 706 944 682 q 889 733 911 729 q 842 738 867 738 q 674 672 722 738 q 625 490 625 606 l 625 0 l 500 0 l 500 490 q 511 598 500 551 q 542 681 522 644 q 432 735 476 692 q 388 854 388 779 l 390 942 l 367 942 q 238 949 300 942 q 126 976 176 957 z "},"ዀ":{"ha":1675,"x_min":128,"x_max":1528,"o":"m 150 1096 q 232 1065 181 1076 q 368 1054 283 1054 l 535 1054 q 669 1065 618 1054 q 750 1094 721 1076 l 774 976 q 662 951 722 958 q 535 944 601 944 l 513 944 l 513 857 q 581 768 513 772 l 604 765 q 722 833 657 814 q 842 851 786 851 q 963 826 915 851 q 1038 753 1011 800 q 1076 644 1065 707 q 1088 506 1088 581 l 1351 506 q 1478 469 1428 506 q 1528 350 1528 432 q 1483 190 1528 249 q 1335 132 1438 132 q 1250 148 1282 132 q 1200 191 1218 164 q 1176 256 1182 218 q 1171 335 1171 293 l 1171 422 l 1088 422 l 1088 1 l 963 1 l 963 493 q 952 638 963 588 q 924 710 942 688 q 882 735 906 732 q 832 739 858 738 q 758 729 794 739 q 691 692 721 719 q 643 617 661 665 q 625 493 625 569 l 625 1 l 500 1 l 500 493 q 511 599 500 551 q 542 682 522 646 q 431 737 475 692 q 386 857 386 782 l 388 944 l 368 944 q 240 952 301 944 q 128 979 179 960 l 150 1096 m 1326 215 q 1363 225 1347 215 q 1390 251 1379 235 q 1407 286 1401 267 q 1413 326 1413 306 q 1394 392 1413 363 q 1344 422 1376 422 l 1267 422 l 1268 338 q 1268 300 1268 321 q 1273 260 1268 279 q 1290 228 1278 242 q 1326 215 1303 215 z "},"ወ":{"ha":1104,"x_min":104,"x_max":1006,"o":"m 671 990 q 773 975 715 990 q 882 919 831 960 q 969 810 933 879 q 1006 632 1006 740 l 1006 478 q 989 351 1006 406 q 944 256 972 296 q 882 190 917 217 q 810 147 847 163 q 736 124 772 131 q 671 118 700 118 q 640 119 656 118 q 611 124 625 121 q 592 65 611 89 q 547 28 574 42 q 490 8 519 14 q 439 1 461 1 q 341 16 397 1 q 234 68 285 31 q 146 170 183 106 q 104 335 108 235 l 104 632 q 142 810 106 740 q 229 919 178 879 q 338 975 281 960 q 439 990 396 990 q 502 985 474 990 q 556 968 531 979 q 607 985 579 979 q 671 990 635 990 m 439 114 q 466 117 456 115 q 482 122 476 118 q 490 133 488 126 q 492 153 492 140 l 492 872 q 465 877 476 876 q 439 878 454 878 q 364 868 401 878 q 297 831 326 858 q 248 756 267 804 q 229 632 229 708 l 229 361 q 248 236 229 285 q 297 160 267 188 q 364 124 326 133 q 439 114 401 114 m 881 632 q 862 756 881 708 q 813 831 843 804 q 746 868 783 858 q 671 878 708 878 q 643 877 656 878 q 617 872 631 876 l 617 238 q 643 233 631 233 q 671 231 656 232 q 746 240 708 231 q 813 277 783 250 q 862 353 843 304 q 881 478 881 401 l 881 632 z "},"ዉ":{"ha":1271,"x_min":110,"x_max":1172,"o":"m 110 632 q 126 759 110 704 q 171 853 143 814 q 234 919 199 893 q 306 962 269 946 q 379 984 343 978 q 444 990 415 990 q 560 968 508 990 q 612 985 583 979 q 676 990 640 990 q 778 975 721 990 q 886 919 835 960 q 973 810 938 879 q 1008 632 1008 740 l 1008 478 q 990 326 1008 382 q 929 229 971 269 l 940 229 q 1065 222 1007 229 q 1172 194 1124 214 l 1136 78 q 1055 108 1106 96 q 922 119 1004 119 l 676 119 q 647 120 661 119 q 617 124 632 121 l 615 124 q 597 65 615 89 q 552 28 579 42 q 496 8 525 14 q 444 1 467 1 q 347 16 403 1 q 240 68 292 31 q 152 170 189 106 q 110 335 115 235 l 110 632 m 235 632 l 235 361 q 253 236 235 285 q 302 160 272 188 q 369 124 332 133 q 444 114 407 114 q 486 122 476 117 q 497 153 496 128 l 497 872 q 471 877 482 876 q 444 878 460 878 q 369 868 407 878 q 302 831 332 858 q 253 756 272 804 q 235 632 235 708 m 622 872 l 622 238 q 649 233 636 233 q 676 231 661 232 q 751 240 714 231 q 817 277 788 250 q 865 353 847 304 q 883 478 883 401 l 883 632 q 865 756 883 708 q 817 831 847 804 q 751 868 788 858 q 676 878 714 878 q 649 877 661 878 q 622 872 636 876 z "},"ዊ":{"ha":1117,"x_min":99,"x_max":985,"o":"m 431 990 q 495 985 467 990 q 547 968 524 979 q 663 990 599 990 q 780 972 722 990 q 883 917 838 953 q 957 831 929 882 q 985 713 985 779 q 957 598 985 647 q 885 515 929 549 q 783 464 840 482 q 665 442 725 446 q 607 447 633 442 l 607 217 q 614 157 607 178 q 635 126 621 136 q 671 113 649 115 q 724 111 693 111 l 736 111 q 814 113 772 111 q 876 118 856 115 l 876 4 q 784 2 836 4 q 697 0 732 0 q 594 10 636 0 q 528 45 553 21 q 492 109 503 69 q 482 207 482 149 l 482 332 q 455 327 467 329 q 431 325 443 325 q 369 328 404 325 q 299 342 335 332 q 228 374 263 353 q 165 428 193 394 q 119 513 138 463 q 99 632 101 563 q 134 810 99 740 q 221 919 169 879 q 330 975 272 960 q 431 990 388 990 m 431 438 q 468 442 458 439 q 482 461 478 446 l 482 872 q 457 877 468 876 q 431 878 446 878 q 357 868 393 878 q 292 832 321 858 q 244 759 263 806 q 224 639 225 713 q 244 531 225 571 q 292 471 263 492 q 357 444 321 450 q 431 438 393 438 m 607 869 l 607 561 q 635 556 622 557 q 665 556 649 556 q 742 564 707 556 q 804 591 778 572 q 845 642 831 610 q 860 719 860 674 q 843 787 860 757 q 799 837 826 817 q 736 867 771 857 q 665 878 701 878 q 635 877 649 878 q 607 869 622 876 z "},"ዋ":{"ha":1063,"x_min":72,"x_max":963,"o":"m 413 990 q 522 968 471 990 q 574 985 546 979 q 636 990 603 990 q 759 969 700 990 q 863 909 818 947 q 935 817 908 871 q 963 700 963 764 q 935 581 963 635 q 862 487 907 526 q 759 425 817 447 q 640 403 701 403 q 610 404 622 403 q 585 408 599 406 l 585 0 l 460 0 l 460 294 q 431 289 443 290 q 407 288 419 288 q 308 303 365 288 q 198 358 250 318 q 109 465 146 397 q 72 640 72 533 q 108 808 72 740 q 197 916 144 875 q 308 974 250 957 q 413 990 367 990 m 197 639 q 217 519 199 565 q 266 446 236 472 q 333 410 296 419 q 407 400 369 400 q 449 407 439 400 q 460 438 458 414 l 460 872 q 433 877 444 876 q 407 878 422 878 q 333 868 369 878 q 266 832 296 858 q 217 759 236 806 q 197 639 199 713 m 585 524 q 611 516 599 517 q 639 515 624 515 q 718 528 682 515 q 781 564 754 540 q 822 621 807 588 q 838 696 838 654 q 822 773 838 739 q 778 830 806 807 q 715 865 751 853 q 639 878 679 878 q 611 877 624 878 q 585 872 599 876 l 585 524 z "},"ዌ":{"ha":1082,"x_min":74,"x_max":960,"o":"m 411 990 q 524 968 471 990 q 638 990 572 990 q 756 971 699 990 q 859 915 814 951 q 932 828 904 879 q 960 711 960 776 q 932 598 960 647 q 860 515 904 549 q 758 464 815 482 q 640 442 700 446 q 612 442 624 442 q 586 444 600 442 l 586 324 l 638 324 q 722 319 681 324 q 795 300 763 315 q 847 256 828 285 q 867 178 867 228 q 841 85 867 119 q 774 31 815 50 q 685 7 733 13 q 590 1 636 1 q 496 34 531 8 q 461 129 461 60 l 461 335 q 432 328 444 331 q 406 325 419 325 q 344 328 379 325 q 272 342 308 332 q 199 374 235 353 q 136 430 164 394 q 91 516 108 465 q 74 639 74 567 q 110 814 74 746 q 198 921 146 882 q 308 975 250 960 q 411 990 367 990 m 406 438 q 450 444 440 438 q 461 476 460 451 l 461 872 q 435 877 447 876 q 406 878 422 878 q 332 868 368 878 q 267 832 296 858 q 219 759 238 806 q 199 639 200 713 q 219 531 200 571 q 267 471 238 492 q 332 444 296 450 q 406 438 368 438 m 586 872 l 586 561 q 613 556 600 557 q 640 556 625 556 q 718 564 682 556 q 780 592 754 572 q 821 642 806 611 q 836 719 836 674 q 819 786 836 757 q 773 836 801 815 q 710 867 744 857 q 640 878 675 878 q 613 877 625 878 q 586 872 600 876 m 586 240 l 586 128 q 606 94 586 107 q 653 82 626 82 q 713 103 685 82 q 742 176 742 125 q 735 211 742 199 q 718 230 729 224 q 691 238 707 236 q 656 240 675 240 l 586 240 z "},"ው":{"ha":1447,"x_min":157,"x_max":1339,"o":"m 157 335 l 157 632 q 193 810 157 740 q 280 919 229 879 q 388 975 331 960 q 490 990 446 990 q 553 985 525 990 q 607 968 582 979 q 724 990 656 990 q 824 975 767 990 q 933 919 882 960 q 1020 810 985 879 q 1056 632 1056 740 l 1056 615 l 1103 615 q 1230 608 1169 615 q 1339 581 1290 600 l 1317 463 q 1236 494 1288 482 q 1103 506 1185 506 l 1056 506 l 1056 478 q 1020 300 1056 369 q 933 190 985 231 q 824 133 882 149 q 724 118 767 118 q 664 124 688 118 q 645 65 664 89 q 599 28 626 42 q 542 8 572 14 q 490 1 513 1 q 392 16 447 1 q 286 68 336 31 q 199 170 236 106 q 157 335 163 235 m 282 361 q 300 236 282 285 q 348 160 318 188 q 415 124 378 133 q 490 114 453 114 q 533 122 524 117 q 544 153 543 128 l 544 872 q 517 877 529 876 q 490 878 506 878 q 415 868 453 878 q 348 831 378 858 q 300 756 318 804 q 282 632 282 708 l 282 361 m 669 872 l 669 238 q 696 233 683 233 q 724 231 708 232 q 798 240 761 231 q 865 277 835 250 q 913 353 894 304 q 931 478 931 401 l 931 632 q 913 756 931 708 q 865 831 894 804 q 798 868 835 858 q 724 878 761 878 q 696 877 708 878 q 669 872 683 876 z "},"ዎ":{"ha":1068,"x_min":83,"x_max":969,"o":"m 650 990 q 767 971 710 990 q 869 916 824 951 q 942 829 914 881 q 969 715 969 778 q 940 600 969 651 q 865 513 911 549 q 762 459 819 478 q 646 440 704 440 q 596 444 621 440 q 583 400 592 422 l 401 0 l 271 0 l 425 326 q 316 335 374 326 q 208 374 258 343 q 123 467 158 406 q 83 632 88 528 q 119 810 83 740 q 208 919 156 879 q 318 975 260 960 q 421 990 376 990 q 533 968 485 990 q 650 990 582 990 m 468 872 q 443 877 454 876 q 417 878 432 878 q 342 868 379 878 q 276 832 306 858 q 227 759 246 806 q 208 639 208 713 q 227 531 208 571 q 276 471 246 492 q 342 444 306 450 q 417 438 379 438 q 454 442 444 439 q 468 461 464 446 l 468 872 m 650 556 q 728 565 692 556 q 790 593 764 574 q 830 644 815 613 q 844 722 844 676 q 827 789 844 760 q 782 838 810 818 q 719 867 754 857 q 650 878 685 878 q 621 877 633 878 q 593 869 608 876 l 593 561 q 621 556 608 557 q 650 556 633 556 z "},"ዏ":{"ha":1443,"x_min":149,"x_max":1310,"o":"m 990 990 q 1109 972 1051 990 q 1211 917 1167 953 q 1283 828 1256 881 q 1310 711 1310 776 q 1283 597 1310 646 q 1211 514 1256 547 q 1109 463 1167 481 q 990 442 1051 446 q 960 442 975 442 q 932 444 946 442 q 925 422 929 433 q 917 400 921 410 l 743 0 l 611 0 l 760 325 q 668 331 721 325 q 566 361 615 336 q 479 437 517 386 q 432 576 442 488 l 386 576 q 251 565 303 576 q 169 535 200 554 l 149 651 q 259 678 199 671 q 386 686 319 686 l 428 686 q 475 837 438 778 q 562 930 513 896 q 665 977 611 964 q 763 990 719 990 q 875 968 824 990 q 990 990 924 990 m 810 872 q 785 877 796 876 q 758 878 774 878 q 684 868 721 878 q 618 832 647 858 q 570 759 589 806 q 551 639 551 713 q 570 531 551 571 q 618 471 589 492 q 684 444 647 450 q 758 438 721 438 q 796 442 786 439 q 810 461 806 446 l 810 872 m 990 556 q 1068 564 1032 556 q 1131 592 1104 572 q 1172 644 1157 613 q 1186 721 1186 675 q 1169 789 1186 760 q 1124 838 1151 818 q 1061 868 1096 858 q 990 878 1026 878 q 963 877 975 878 q 935 869 950 876 l 935 561 q 963 556 950 557 q 990 556 975 556 z "},"ዐ":{"ha":849,"x_min":110,"x_max":724,"o":"m 456 993 q 587 965 535 993 q 669 888 639 936 q 712 773 700 839 q 724 633 724 707 l 724 360 q 706 233 724 288 q 660 138 689 178 q 595 72 632 99 q 520 28 558 44 q 444 6 482 13 q 378 0 407 0 q 247 28 299 0 q 165 106 194 57 q 122 219 135 154 q 110 360 110 285 l 110 633 q 127 760 110 706 q 174 855 144 815 q 239 922 203 894 q 314 965 275 949 q 390 987 353 981 q 456 993 426 993 m 599 633 q 586 775 599 725 q 553 848 574 825 q 508 875 533 871 q 456 879 482 879 q 379 869 418 879 q 308 833 340 860 q 255 758 275 806 q 235 633 235 710 l 235 360 q 247 217 235 268 q 280 144 260 167 q 326 117 300 121 q 378 113 351 113 q 455 122 415 113 q 526 159 494 132 q 578 235 558 186 q 599 360 599 283 l 599 633 z "},"ዑ":{"ha":1107,"x_min":110,"x_max":1008,"o":"m 457 993 q 588 965 536 993 q 671 888 640 936 q 713 773 701 839 q 725 633 725 707 l 725 581 l 771 581 q 898 574 838 581 q 1008 547 958 567 l 988 431 q 906 460 957 449 q 771 471 854 471 l 725 471 l 725 360 q 688 182 725 251 q 596 72 650 113 q 482 15 542 31 q 379 0 422 0 q 248 28 300 0 q 165 106 196 57 q 122 219 135 154 q 110 360 110 285 l 110 633 q 127 760 110 706 q 174 855 144 815 q 240 922 203 894 q 315 965 276 949 q 391 987 354 981 q 457 993 428 993 m 235 360 q 247 217 235 268 q 281 144 260 167 q 327 117 301 121 q 379 113 353 113 q 456 122 417 113 q 527 159 494 132 q 580 235 560 186 q 600 360 600 283 l 600 633 q 588 775 600 725 q 555 848 575 825 q 509 875 535 871 q 457 879 483 879 q 380 869 419 879 q 308 833 340 860 q 256 758 276 806 q 235 633 235 710 l 235 360 z "},"ዒ":{"ha":1197,"x_min":150,"x_max":1013,"o":"m 767 219 q 751 160 754 182 q 754 128 749 139 q 774 114 760 117 q 810 111 788 111 l 851 111 q 894 112 871 111 q 940 114 918 113 q 981 117 963 115 q 1013 119 1000 118 l 1010 4 q 957 3 986 4 q 898 2 928 3 q 840 1 868 1 q 792 0 813 0 q 679 10 719 0 q 624 45 639 21 q 615 108 610 69 q 636 206 619 147 l 686 371 l 463 371 q 419 364 440 367 q 376 361 399 361 q 213 428 272 361 q 150 632 153 494 l 150 692 q 191 848 154 789 q 278 938 228 907 q 378 980 328 969 q 460 990 429 990 q 517 983 479 990 q 592 947 554 976 q 657 859 629 918 q 685 696 685 800 l 685 671 q 669 563 683 608 q 632 483 656 518 l 844 483 l 767 219 m 560 681 q 558 740 560 706 q 548 804 557 774 q 519 856 539 835 q 463 878 499 878 q 319 822 363 878 q 275 671 275 767 l 275 642 q 287 547 275 581 q 315 496 299 513 q 350 476 332 479 q 381 472 368 472 q 517 528 475 472 q 560 681 560 585 z "},"ዓ":{"ha":829,"x_min":44,"x_max":740,"o":"m 740 483 l 615 0 l 490 0 l 586 371 l 357 371 q 315 363 335 365 q 275 361 294 361 q 108 428 169 361 q 44 632 47 496 l 44 692 q 86 848 49 789 q 174 938 124 907 q 274 980 224 969 q 356 990 325 990 q 413 983 375 990 q 489 947 451 976 q 554 859 526 918 q 582 696 582 800 l 582 671 q 566 563 581 608 q 528 483 551 518 l 740 483 m 457 708 q 444 803 457 769 q 415 854 432 838 q 380 874 399 871 q 349 878 361 878 q 213 822 256 878 q 169 671 169 767 l 169 642 q 181 547 169 581 q 210 496 193 513 q 246 476 228 479 q 276 472 264 472 q 414 528 371 472 q 457 681 457 585 l 457 708 z "},"ዔ":{"ha":1129,"x_min":101,"x_max":1022,"o":"m 799 324 q 881 319 840 324 q 952 301 921 315 q 1003 258 983 286 q 1022 179 1022 229 q 997 86 1022 121 q 931 33 971 51 q 841 8 890 14 q 746 1 792 1 q 682 10 715 4 q 623 31 649 17 q 585 69 597 44 q 582 135 572 93 l 643 371 l 413 371 q 369 364 390 367 q 326 361 349 361 q 164 429 224 361 q 101 632 104 497 l 101 694 q 143 851 106 792 q 230 941 181 910 q 329 982 279 972 q 410 992 379 992 q 469 985 431 992 q 544 949 507 978 q 610 860 582 919 q 639 697 639 801 l 639 672 q 622 564 636 610 q 583 485 607 518 l 799 485 l 756 324 l 799 324 m 514 710 q 502 805 514 771 q 473 855 490 839 q 438 874 456 871 q 407 878 419 878 q 269 822 313 878 q 226 671 226 767 l 226 643 q 238 548 226 582 q 267 497 250 514 q 301 477 283 481 q 332 474 319 474 q 471 529 428 474 q 514 681 514 585 l 514 710 m 706 132 q 708 108 701 118 q 728 92 715 99 q 756 84 740 86 q 785 82 772 82 q 826 88 806 82 q 862 105 846 93 q 888 135 878 117 q 897 181 897 154 q 874 231 897 221 q 813 240 850 240 l 735 240 l 706 132 z "},"ዕ":{"ha":803,"x_min":93,"x_max":707,"o":"m 464 850 q 585 816 538 846 q 659 738 632 786 q 697 626 686 690 q 707 490 707 563 l 707 360 q 669 182 707 251 q 578 72 632 113 q 466 15 525 31 q 363 0 407 0 q 231 28 283 0 q 149 106 179 57 q 106 219 118 154 q 93 360 93 285 l 93 490 q 115 634 93 574 q 173 736 138 694 q 252 802 208 778 q 339 838 296 826 l 339 1051 l 464 1051 l 464 850 m 582 489 q 569 631 582 581 q 537 706 557 682 q 492 733 517 729 q 440 738 467 738 q 363 728 403 738 q 292 690 324 718 q 239 615 260 663 q 218 489 218 567 l 218 360 q 231 217 218 268 q 264 144 243 167 q 310 117 285 121 q 363 113 336 113 q 439 122 400 113 q 510 159 478 132 q 562 235 542 186 q 582 360 582 283 l 582 489 z "},"ዖ":{"ha":719,"x_min":104,"x_max":674,"o":"m 449 990 q 506 983 468 990 q 581 947 543 976 q 646 859 618 918 q 674 696 674 800 l 674 671 q 649 538 672 592 q 592 449 626 483 q 517 395 557 414 q 440 368 476 376 q 365 336 403 360 q 298 274 328 313 q 249 183 268 236 q 229 61 229 129 l 229 0 l 104 0 l 104 61 q 147 254 104 174 q 253 388 190 335 q 211 419 232 400 q 174 467 190 438 q 149 537 158 496 q 138 632 139 578 l 138 692 q 179 848 142 789 q 267 938 217 907 q 367 980 317 969 q 449 990 418 990 m 549 681 q 547 741 549 707 q 536 806 546 775 q 507 857 526 836 q 450 878 488 878 q 306 822 350 878 q 263 671 263 767 q 264 607 263 642 q 276 542 265 572 q 308 492 286 513 q 369 472 329 472 q 506 528 464 472 q 549 681 549 585 z "},"ዘ":{"ha":818,"x_min":124,"x_max":697,"o":"m 135 990 l 261 990 l 256 569 l 567 569 l 572 990 l 697 990 l 686 0 l 561 0 l 567 460 l 254 460 l 249 0 l 124 0 l 135 990 z "},"ዙ":{"ha":1090,"x_min":131,"x_max":982,"o":"m 143 990 l 267 990 l 261 569 l 576 569 l 579 990 l 707 990 l 701 569 l 744 569 q 872 562 811 569 q 982 535 932 554 l 961 418 q 879 448 931 436 q 744 460 828 460 l 699 460 l 693 0 l 568 0 l 574 460 l 261 460 l 256 0 l 131 0 l 143 990 z "},"ዚ":{"ha":1039,"x_min":153,"x_max":968,"o":"m 165 990 l 289 990 l 283 569 l 599 569 l 603 990 l 728 990 l 719 236 q 723 165 719 190 q 740 128 726 140 q 778 114 753 117 q 846 111 803 111 q 912 113 878 111 q 968 118 946 115 l 968 4 q 925 3 949 4 q 878 2 901 3 q 831 1 854 1 q 790 0 808 0 q 686 11 725 0 q 626 47 647 22 q 599 112 606 72 q 593 208 593 151 l 597 460 l 283 460 l 278 0 l 153 0 l 165 990 z "},"ዛ":{"ha":751,"x_min":79,"x_max":651,"o":"m 79 240 l 88 990 l 213 990 l 207 569 l 521 569 l 525 990 l 651 990 l 639 0 l 514 0 l 519 460 l 207 460 l 204 240 l 79 240 z "},"ዜ":{"ha":1114,"x_min":121,"x_max":1004,"o":"m 133 990 l 258 990 l 253 569 l 565 569 l 571 990 l 694 990 l 688 324 l 774 324 q 856 319 815 324 q 931 300 897 315 q 984 256 964 285 q 1004 175 1004 226 q 978 83 1004 117 q 913 31 953 49 q 824 7 872 13 q 729 1 775 1 q 661 13 692 6 q 608 34 631 19 q 573 74 586 49 q 560 136 560 99 l 565 460 l 251 460 l 246 0 l 121 0 l 133 990 m 685 133 q 710 96 685 110 q 769 82 736 82 q 809 88 789 82 q 845 105 829 93 q 871 135 861 117 q 881 179 881 153 q 873 213 881 201 q 853 231 865 225 q 823 239 840 238 q 786 240 806 240 l 688 240 l 685 133 z "},"ዝ":{"ha":1053,"x_min":119,"x_max":931,"o":"m 119 871 l 119 986 q 208 988 160 986 q 292 990 256 990 q 397 979 357 990 q 457 944 436 968 q 485 880 478 919 q 492 783 492 840 l 488 569 l 800 569 l 806 990 l 931 990 l 918 0 l 793 0 l 799 460 l 488 460 l 482 0 l 357 0 l 365 772 q 361 833 365 811 q 346 865 357 854 q 315 877 335 875 q 264 879 296 879 l 244 879 q 178 877 213 879 q 119 871 143 875 z "},"ዞ":{"ha":849,"x_min":117,"x_max":690,"o":"m 117 0 l 128 990 l 254 990 l 249 569 l 560 569 l 565 990 l 690 990 l 682 240 l 557 240 l 560 460 l 247 460 l 242 0 l 117 0 z "},"ዟ":{"ha":1049,"x_min":99,"x_max":931,"o":"m 107 990 l 232 990 l 228 569 l 542 569 l 547 990 l 671 990 l 660 110 l 690 110 q 818 103 757 110 q 931 76 879 96 l 908 -42 q 826 -11 878 -22 q 690 0 774 0 l 513 0 q 378 -11 429 0 q 296 -40 326 -22 l 275 78 q 385 103 325 96 q 513 110 446 110 l 536 110 l 539 460 l 228 460 l 224 240 l 99 240 l 107 990 z "},"ዠ":{"ha":1350,"x_min":168,"x_max":1188,"o":"m 322 990 q 427 979 388 990 q 488 943 467 968 q 515 879 508 918 q 521 783 521 840 l 517 569 l 832 569 l 833 783 q 840 879 833 840 q 868 943 847 918 q 928 979 889 968 q 1033 990 968 990 q 1108 988 1069 990 q 1188 986 1147 986 l 1188 871 q 1135 876 1164 874 q 1074 878 1106 878 q 1013 874 1036 878 q 978 856 990 869 q 963 817 967 842 q 958 751 958 793 l 949 0 l 824 0 l 829 460 l 517 460 l 511 0 l 386 0 l 396 772 q 392 834 396 813 q 376 866 388 856 q 343 878 364 876 q 289 881 322 881 q 228 879 258 881 q 168 874 199 878 l 168 986 q 247 988 208 986 q 322 990 286 990 z "},"ዡ":{"ha":1340,"x_min":154,"x_max":1224,"o":"m 307 990 q 412 979 372 990 q 472 944 451 968 q 499 880 493 919 q 506 783 506 840 l 504 569 l 817 569 l 819 783 q 825 880 819 840 q 851 944 831 919 q 911 979 872 968 q 1017 990 950 990 q 1092 988 1053 990 q 1171 986 1131 986 l 1171 872 q 1119 877 1149 875 q 1058 879 1089 879 q 997 875 1019 879 q 962 857 974 871 q 947 818 950 843 q 943 753 943 793 l 940 569 l 985 569 q 1113 563 1053 569 q 1224 538 1172 556 l 1201 418 q 1119 449 1171 438 q 985 460 1068 460 l 940 460 l 935 0 l 811 0 l 814 460 l 501 460 l 497 0 l 371 0 l 381 772 q 376 834 381 813 q 357 866 371 856 q 320 878 343 876 q 260 881 297 881 q 204 878 233 881 q 154 874 175 876 l 154 986 q 233 988 194 986 q 307 990 271 990 z "},"ዢ":{"ha":1408,"x_min":181,"x_max":1200,"o":"m 964 236 q 969 173 964 197 q 987 135 974 149 q 1024 116 1000 121 q 1085 111 1047 111 q 1140 113 1111 111 q 1192 118 1168 115 l 1192 4 q 1112 2 1151 4 q 1036 0 1072 0 q 932 11 971 0 q 872 47 893 22 q 845 112 851 72 q 839 208 839 151 l 842 460 l 529 460 l 524 0 l 399 0 l 408 772 q 405 834 408 813 q 389 865 401 856 q 351 877 376 875 q 282 879 326 879 q 231 878 257 879 q 181 874 206 878 l 181 986 q 260 988 221 986 q 335 990 299 990 q 440 979 401 990 q 500 943 479 968 q 527 879 521 918 q 533 783 533 840 l 531 569 l 842 569 l 846 783 q 853 880 846 840 q 881 944 860 919 q 941 979 901 968 q 1046 990 981 990 q 1121 988 1082 990 q 1200 986 1160 986 l 1200 872 q 1145 876 1176 875 q 1086 878 1114 878 q 1023 876 1046 878 q 988 863 1000 874 q 974 832 976 853 q 971 772 971 811 l 964 236 z "},"ዣ":{"ha":1413,"x_min":188,"x_max":1207,"o":"m 1207 872 q 1135 877 1171 876 q 1063 878 1099 878 q 1015 872 1032 878 q 989 854 997 867 q 979 822 981 842 q 978 772 978 801 l 968 0 l 843 0 l 849 460 l 535 460 l 533 240 l 407 240 l 415 772 q 412 834 415 813 q 396 865 408 856 q 358 877 383 875 q 289 879 333 879 q 238 878 264 879 q 188 874 213 878 l 188 986 q 267 988 228 986 q 342 990 306 990 q 447 979 408 990 q 506 944 486 968 q 533 880 526 919 q 539 783 539 840 l 536 569 l 850 569 l 854 783 q 860 880 854 840 q 886 944 865 919 q 946 979 907 968 q 1051 990 985 990 q 1126 988 1088 990 q 1204 986 1164 986 l 1207 872 z "},"ዤ":{"ha":1401,"x_min":139,"x_max":1242,"o":"m 1011 325 q 1097 321 1056 325 q 1170 301 1138 317 q 1222 258 1203 286 q 1242 179 1242 229 q 1215 84 1242 119 q 1146 31 1188 49 q 1056 7 1104 13 q 965 1 1007 1 q 898 13 929 6 q 844 34 867 19 q 810 74 822 49 q 797 136 797 99 l 800 460 l 489 460 l 483 0 l 358 0 l 367 772 q 365 819 367 800 q 356 851 364 839 q 332 871 349 864 q 283 879 315 878 q 264 881 274 881 q 244 881 254 881 q 191 878 217 881 q 139 874 165 876 l 139 986 q 218 988 179 986 q 293 990 257 990 q 398 979 358 990 q 458 943 438 968 q 486 879 479 918 q 493 783 493 840 l 489 569 l 803 569 l 804 783 q 811 879 804 840 q 839 943 818 918 q 899 979 860 968 q 1004 990 939 990 q 1079 988 1040 990 q 1158 986 1118 986 l 1158 874 q 1103 878 1135 876 q 1043 879 1072 879 q 989 876 1011 879 q 953 863 967 874 q 935 829 940 851 q 929 767 929 807 l 924 325 l 1011 325 m 922 135 q 949 98 922 111 q 1010 85 975 85 q 1049 90 1029 85 q 1083 106 1068 94 q 1108 134 1099 117 q 1118 176 1118 151 q 1110 213 1118 200 q 1088 231 1101 225 q 1056 239 1074 238 q 1017 240 1038 240 l 924 240 l 922 135 z "},"ዥ":{"ha":1488,"x_min":135,"x_max":1317,"o":"m 156 1093 q 237 1063 185 1074 q 374 1051 289 1051 l 531 1051 q 665 1063 614 1051 q 746 1093 715 1074 l 767 974 q 658 949 718 956 q 531 942 597 942 l 511 942 l 511 815 q 592 794 564 810 q 634 753 621 779 q 649 692 647 728 q 651 608 651 656 l 650 454 l 961 454 l 963 608 q 969 705 963 665 q 996 769 975 744 q 1056 806 1017 794 q 1163 817 1096 817 q 1238 815 1199 817 q 1317 813 1276 813 l 1317 700 q 1251 704 1283 703 q 1185 706 1218 706 q 1138 703 1157 706 q 1108 691 1119 701 q 1092 659 1097 681 q 1088 600 1088 638 l 1079 0 l 954 0 l 960 344 l 649 344 l 643 0 l 518 0 l 526 600 q 522 659 526 638 q 508 691 518 681 q 478 703 497 701 q 432 706 460 706 q 364 704 397 706 q 297 700 331 703 l 297 813 q 335 813 311 813 q 386 815 360 814 l 386 942 l 374 942 q 245 949 306 942 q 135 976 185 957 l 156 1093 z "},"ዦ":{"ha":1350,"x_min":163,"x_max":1182,"o":"m 1182 872 q 1127 876 1158 875 q 1065 878 1096 878 q 1003 875 1025 878 q 969 861 981 872 q 956 829 958 850 q 953 772 953 808 l 947 240 l 822 240 l 824 460 l 511 460 l 506 0 l 381 0 l 390 772 q 388 832 390 811 q 373 863 385 853 q 338 876 361 874 q 274 878 315 878 q 217 876 247 878 q 163 872 186 875 l 163 986 q 242 988 203 986 q 317 990 281 990 q 422 979 382 990 q 482 943 461 968 q 509 879 503 918 q 515 783 515 840 l 513 569 l 825 569 l 828 783 q 835 879 828 840 q 863 943 842 918 q 923 979 883 968 q 1028 990 963 990 q 1103 988 1064 990 q 1182 986 1142 986 l 1182 872 z "},"ዧ":{"ha":1358,"x_min":150,"x_max":1201,"o":"m 150 874 l 150 986 q 229 988 190 986 q 304 990 268 990 q 408 979 369 990 q 468 943 447 968 q 496 879 489 918 q 503 783 503 840 l 500 550 l 813 550 l 814 783 q 821 879 814 840 q 849 943 828 918 q 909 979 869 968 q 1014 990 949 990 q 1089 988 1050 990 q 1168 986 1128 986 l 1168 872 q 1114 876 1144 875 q 1054 878 1083 878 q 991 874 1014 878 q 956 860 968 871 q 942 829 944 850 q 939 772 939 808 l 932 110 l 960 110 q 1089 103 1028 110 q 1201 76 1150 96 l 1178 -42 q 1097 -11 1149 -22 q 960 0 1044 0 l 782 0 q 647 -11 699 0 q 565 -40 596 -22 l 543 78 q 655 103 594 96 q 782 110 715 110 l 807 110 l 811 460 l 500 460 l 496 240 l 371 240 l 378 772 q 374 834 378 813 q 358 865 369 856 q 326 877 347 875 q 268 879 304 879 q 209 878 239 879 q 150 874 179 878 z "},"የ":{"ha":679,"x_min":79,"x_max":593,"o":"m 364 990 q 469 972 425 990 q 540 922 513 954 q 581 845 568 889 q 593 750 593 801 q 572 631 593 682 q 515 546 551 581 q 427 494 478 511 q 315 476 376 476 q 290 478 300 476 q 260 483 279 479 l 394 0 l 269 0 l 93 632 q 79 725 79 678 q 99 830 79 782 q 156 914 119 878 q 246 970 193 950 q 364 990 299 990 m 313 589 q 371 596 343 589 q 420 621 399 603 q 455 671 442 639 q 469 754 468 703 q 454 826 468 801 q 422 863 440 851 q 388 876 404 875 q 364 878 371 878 q 305 871 333 878 q 254 845 276 864 q 219 794 232 826 q 204 713 206 763 q 220 641 206 667 q 253 604 235 615 q 288 591 271 593 q 313 589 306 589 z "},"ዩ":{"ha":668,"x_min":90,"x_max":610,"o":"m 593 179 q 511 210 563 199 q 376 222 460 222 l 344 222 l 406 0 l 281 0 l 103 632 q 90 722 90 678 q 110 828 90 779 q 167 913 131 876 q 257 969 204 949 q 375 990 310 990 q 548 926 492 990 q 604 754 604 863 q 588 643 604 694 q 538 555 571 592 q 455 497 504 518 q 340 476 406 476 q 308 478 325 476 q 271 483 290 479 l 313 332 l 371 332 q 498 324 438 332 q 610 299 558 317 l 593 179 m 215 713 q 231 641 217 667 q 264 604 246 615 q 299 591 282 593 q 322 589 315 589 q 381 596 353 589 q 430 621 408 603 q 465 671 451 639 q 479 754 478 703 q 464 826 478 801 q 433 863 450 851 q 399 876 415 875 q 375 878 382 878 q 316 871 344 878 q 265 845 288 864 q 230 794 243 826 q 215 713 217 763 z "},"ዪ":{"ha":846,"x_min":96,"x_max":779,"o":"m 96 725 q 116 830 96 782 q 174 914 136 878 q 264 970 211 950 q 381 990 317 990 q 484 972 440 990 q 556 922 528 954 q 597 845 583 890 q 611 747 611 800 q 541 548 611 619 q 347 476 471 476 q 315 478 332 476 q 276 483 297 479 l 324 313 l 496 313 l 496 397 l 589 397 l 589 213 q 691 202 643 210 q 779 179 739 194 l 758 76 q 676 106 728 94 q 542 117 625 117 l 496 117 l 496 221 l 349 221 l 411 0 l 286 0 l 110 632 q 96 725 96 678 m 329 589 q 388 596 360 589 q 437 621 415 603 q 472 671 458 639 q 486 754 485 703 q 471 826 485 801 q 440 863 457 851 q 406 876 422 875 q 382 878 389 878 q 322 871 351 878 q 271 845 293 864 q 235 794 249 826 q 219 713 221 763 q 235 641 221 667 q 269 604 250 615 q 305 591 288 593 q 329 589 322 589 z "},"ያ":{"ha":969,"x_min":168,"x_max":803,"o":"m 574 990 q 681 973 638 990 q 752 924 725 956 q 791 849 779 893 q 803 754 803 806 q 728 545 803 614 q 529 476 654 476 q 501 478 514 476 q 469 483 489 479 l 547 206 q 564 94 569 135 q 535 33 558 53 q 472 7 511 13 q 386 1 432 1 l 311 1 q 277 3 299 3 q 234 4 256 4 q 194 4 213 4 q 169 4 176 4 l 168 119 q 199 117 181 118 q 240 115 218 115 q 283 114 261 114 q 325 114 306 114 q 397 115 372 114 q 429 127 421 117 q 433 159 438 138 q 418 219 429 181 l 307 615 q 297 669 300 643 q 293 722 293 694 q 310 828 293 779 q 363 913 328 876 q 450 969 397 949 q 574 990 503 990 m 524 589 q 581 596 553 589 q 631 621 610 603 q 666 671 653 639 q 679 754 679 703 q 665 826 679 801 q 633 863 650 851 q 598 876 615 875 q 574 878 581 878 q 515 871 543 878 q 465 845 486 864 q 431 794 443 826 q 418 713 418 763 q 433 641 418 667 q 465 604 447 615 q 499 591 482 593 q 524 589 517 589 z "},"ዬ":{"ha":913,"x_min":89,"x_max":800,"o":"m 89 721 q 107 828 89 779 q 160 914 125 878 q 248 970 196 950 q 367 990 300 990 q 544 926 489 990 q 600 750 600 861 q 533 551 600 625 q 335 476 467 476 q 303 478 319 476 q 267 483 286 479 l 292 393 l 624 393 q 693 384 661 393 q 749 356 725 375 q 786 307 772 338 q 800 235 800 276 q 790 168 800 201 q 755 108 779 135 q 690 65 731 82 q 592 49 650 49 q 519 65 547 51 q 474 104 490 79 q 450 166 457 129 q 443 251 443 203 l 443 310 l 314 310 l 400 0 l 275 0 l 100 632 q 91 678 93 656 q 89 721 89 701 m 214 713 q 228 641 214 667 q 260 604 243 615 q 295 591 278 593 q 319 589 313 589 q 377 596 349 589 q 427 621 406 603 q 462 671 449 639 q 475 754 475 703 q 460 826 475 801 q 428 863 446 851 q 394 876 411 875 q 369 878 376 878 q 310 871 339 878 q 260 845 282 864 q 226 794 239 826 q 214 713 214 763 m 539 310 l 540 254 q 541 221 540 242 q 547 180 542 200 q 562 146 551 160 q 593 132 572 132 q 666 161 646 132 q 686 222 686 190 q 667 283 686 257 q 617 310 649 310 l 539 310 z "},"ይ":{"ha":1039,"x_min":124,"x_max":943,"o":"m 943 344 q 905 179 940 244 q 818 74 869 114 q 710 19 767 35 q 610 0 654 3 l 124 0 l 124 114 l 371 114 l 226 624 q 213 719 213 671 q 232 826 213 776 q 289 913 251 876 q 380 969 326 949 q 501 990 433 990 q 606 973 563 990 q 675 924 649 956 q 713 850 701 893 q 725 754 725 807 q 653 547 725 617 q 450 476 581 476 q 423 478 435 476 q 392 483 411 479 l 469 206 q 492 157 479 175 q 518 130 504 139 q 548 118 532 121 q 582 114 564 115 q 756 170 696 114 q 818 344 815 226 l 943 344 m 336 713 q 352 641 338 667 q 385 604 367 615 q 420 591 403 593 q 444 589 438 589 q 501 596 474 589 q 551 621 529 603 q 587 671 574 639 q 600 754 600 703 q 585 826 599 801 q 555 863 572 851 q 521 876 538 875 q 497 878 504 878 q 436 871 465 878 q 385 845 407 864 q 350 794 364 826 q 336 713 336 763 z "},"ዮ":{"ha":953,"x_min":101,"x_max":897,"o":"m 660 792 q 787 784 726 792 q 897 757 847 776 l 876 644 q 796 674 847 663 q 661 685 744 685 l 610 685 q 563 572 597 614 q 487 510 528 531 q 405 483 446 489 q 338 476 364 476 q 313 478 324 476 q 281 483 301 479 l 417 0 l 292 0 l 114 632 q 101 721 101 676 q 119 822 101 774 q 172 908 136 871 q 260 968 207 946 q 386 990 314 990 q 440 987 406 990 q 511 965 475 983 q 576 906 547 946 q 614 792 606 865 l 660 792 m 333 589 q 392 596 364 589 q 442 621 421 603 q 478 671 464 639 q 492 754 492 703 q 476 826 490 801 q 444 863 463 851 q 410 876 426 875 q 386 878 393 878 q 326 871 356 878 q 276 845 297 864 q 240 794 254 826 q 226 713 226 763 q 242 641 228 667 q 274 604 256 615 q 309 591 292 593 q 333 589 326 589 z "},"ዯ":{"ha":1286,"x_min":108,"x_max":1175,"o":"m 939 778 q 1066 770 1006 778 q 1175 743 1126 763 l 1153 628 q 1072 657 1122 646 q 939 668 1021 668 l 892 668 q 853 549 888 594 q 775 479 819 504 q 685 446 731 454 q 611 438 640 438 q 590 439 600 438 q 558 444 579 440 l 682 0 l 557 0 l 399 567 q 397 574 399 568 q 394 586 396 579 l 351 586 q 218 576 269 586 q 138 547 167 565 l 108 663 q 219 688 160 681 q 346 696 279 696 l 381 696 l 381 708 q 413 862 381 806 q 491 947 446 918 q 584 983 536 975 q 663 990 632 990 q 719 987 683 990 q 792 963 756 983 q 858 900 829 943 q 892 778 888 857 l 939 778 m 611 550 q 670 557 642 550 q 720 583 699 564 q 755 634 742 601 q 768 719 768 667 l 768 749 q 744 843 768 808 q 657 878 719 878 q 601 871 628 878 q 552 845 574 864 q 518 793 531 826 q 506 708 506 760 l 506 681 q 519 606 506 632 q 551 567 533 579 q 587 552 569 554 q 611 550 604 550 z "},"ደ":{"ha":900,"x_min":108,"x_max":825,"o":"m 318 114 q 278 226 289 163 q 267 360 267 289 l 267 722 q 282 826 267 783 q 322 899 297 869 q 377 947 346 929 q 440 975 408 965 q 500 988 471 985 q 549 990 529 990 q 722 924 667 990 q 778 736 778 857 q 762 619 776 667 q 726 539 747 571 q 677 489 704 507 q 622 463 650 471 q 567 452 593 454 q 521 450 540 450 q 452 454 481 450 q 392 474 424 458 l 392 360 q 403 225 392 274 q 432 152 414 176 q 474 122 450 128 q 522 114 497 115 l 825 114 l 825 0 l 108 0 l 108 114 l 318 114 m 392 708 q 416 599 392 635 q 519 563 440 563 q 571 567 547 563 q 613 588 594 571 q 642 638 632 604 q 653 732 653 672 q 649 790 653 764 q 632 836 644 817 q 597 867 619 856 q 538 878 575 878 q 485 871 511 878 q 438 845 458 864 q 404 793 417 826 q 392 708 392 760 z "},"ዱ":{"ha":1274,"x_min":69,"x_max":1129,"o":"m 892 200 q 1019 192 958 200 q 1129 165 1079 185 l 1106 49 q 1026 79 1078 68 q 892 90 974 90 l 838 90 l 838 0 l 713 0 l 713 165 q 701 213 713 196 q 668 239 690 231 q 613 249 646 247 q 535 250 579 250 l 69 250 l 69 365 l 256 365 q 225 557 225 436 q 225 593 225 564 q 226 656 225 622 q 226 716 226 689 q 226 746 226 743 q 242 842 226 801 q 281 909 257 882 q 337 952 306 936 q 399 976 368 968 q 459 988 431 985 q 507 990 488 990 q 674 938 614 990 q 733 772 733 886 q 702 642 735 690 q 624 568 669 593 q 529 536 578 543 q 450 529 481 529 q 409 532 435 529 q 350 550 383 535 q 365 444 351 482 q 401 389 379 407 q 449 368 422 371 q 500 365 475 365 l 556 365 q 649 361 601 365 q 735 341 696 357 q 802 292 775 325 q 835 200 829 258 l 892 200 m 513 878 q 449 872 479 878 q 398 852 419 867 q 364 813 376 838 q 351 747 351 788 q 372 670 351 699 q 444 642 393 642 q 507 647 478 642 q 559 667 536 653 q 595 706 582 682 q 608 769 608 731 q 585 848 608 818 q 513 878 563 878 z "},"ዲ":{"ha":1258,"x_min":125,"x_max":1131,"o":"m 1008 111 q 1072 113 1038 111 q 1131 117 1107 114 l 1131 6 q 1044 3 1088 6 q 958 0 1001 0 q 886 2 921 0 q 826 16 851 4 q 784 53 800 28 q 768 122 768 78 l 768 165 q 756 215 768 197 q 719 242 743 233 q 661 251 696 250 q 582 253 626 253 l 571 253 l 125 253 l 125 367 l 311 367 q 289 450 296 403 q 282 560 282 497 l 282 749 q 315 880 282 832 q 394 953 349 928 q 489 985 440 978 q 568 992 538 992 q 734 937 679 992 q 789 765 789 882 q 756 640 789 686 q 678 568 724 593 q 584 536 632 543 q 507 529 536 529 q 466 532 492 529 q 407 550 440 535 q 420 444 408 482 q 451 390 432 407 q 495 369 471 372 q 546 367 519 367 l 604 367 q 708 362 657 367 q 801 338 760 357 q 867 279 842 318 q 893 171 893 240 l 893 149 q 912 117 893 122 q 956 111 931 111 l 1008 111 m 569 878 q 506 872 536 878 q 454 852 476 867 q 419 813 432 838 q 407 747 407 788 q 428 671 407 700 q 500 642 449 642 q 562 647 532 642 q 615 666 592 651 q 651 706 638 681 q 664 769 664 731 q 642 847 664 817 q 569 878 621 878 z "},"ዳ":{"ha":967,"x_min":86,"x_max":854,"o":"m 506 367 l 564 367 q 669 362 617 367 q 762 338 721 357 q 828 277 803 318 q 854 165 854 236 l 854 0 l 729 0 l 729 165 q 717 215 729 197 q 681 242 704 233 q 622 251 657 250 q 542 253 588 253 l 531 253 l 86 253 l 86 367 l 274 367 q 242 560 242 436 l 244 749 q 276 880 243 832 q 354 953 308 928 q 448 985 400 978 q 525 992 496 992 q 690 939 629 992 q 751 772 751 886 q 719 642 751 690 q 640 569 686 594 q 546 537 594 544 q 467 529 497 529 q 425 532 451 529 q 367 550 399 535 q 379 444 367 482 q 412 390 392 407 q 456 369 432 372 q 506 367 481 367 m 531 878 q 466 872 496 878 q 415 851 436 865 q 381 810 393 836 q 369 746 369 785 q 381 688 369 708 q 407 656 392 667 q 440 644 422 646 q 471 642 457 642 q 529 647 501 642 q 578 667 557 653 q 613 706 600 682 q 626 769 626 731 q 603 849 626 819 q 531 878 579 878 z "},"ዴ":{"ha":1336,"x_min":69,"x_max":1154,"o":"m 1154 175 q 1132 86 1154 119 q 1074 34 1110 53 q 994 9 1039 15 q 907 3 950 3 q 847 6 881 3 q 783 19 813 8 q 733 51 753 31 q 713 107 713 72 l 713 172 q 706 217 713 201 q 682 241 699 233 q 638 251 665 249 q 569 253 611 253 l 69 253 l 69 368 l 257 368 q 233 451 240 404 q 226 560 226 497 q 226 596 226 567 q 227 658 226 625 q 228 717 228 690 q 228 749 228 744 q 243 844 228 804 q 283 910 258 883 q 338 953 307 936 q 401 978 369 969 q 460 989 432 986 q 508 992 489 992 q 674 939 614 992 q 735 772 735 886 q 703 642 736 690 q 624 569 669 594 q 529 537 578 544 q 450 529 481 529 q 409 532 435 529 q 351 550 383 535 q 364 445 351 482 q 395 391 376 408 q 438 371 414 374 q 486 368 461 368 l 489 368 q 556 369 522 368 q 617 369 589 369 q 683 367 651 369 q 739 359 714 365 q 780 340 764 353 q 800 308 796 328 l 925 308 q 1015 306 974 308 q 1088 290 1057 303 q 1137 250 1119 276 q 1154 175 1154 224 m 514 878 q 449 872 479 878 q 398 851 419 865 q 365 811 376 836 q 353 747 353 786 q 364 689 353 710 q 391 658 375 668 q 424 644 407 647 q 456 642 442 642 q 513 647 485 642 q 562 667 540 653 q 597 706 583 682 q 610 769 610 731 q 586 849 610 819 q 514 878 563 878 m 838 147 q 864 99 838 115 q 922 83 890 83 q 960 88 942 83 q 994 103 979 93 q 1019 129 1010 114 q 1029 165 1029 144 q 1019 199 1029 188 q 992 217 1008 211 q 956 224 975 222 q 921 225 938 225 l 829 225 q 833 189 832 204 q 838 147 835 174 z "},"ድ":{"ha":1085,"x_min":89,"x_max":1040,"o":"m 296 115 q 256 226 268 164 q 244 360 244 289 l 244 681 q 260 813 244 756 q 310 910 275 871 q 401 971 344 950 q 538 992 457 992 q 586 988 553 992 q 653 966 619 985 q 717 908 688 947 q 753 796 746 868 l 804 796 q 931 788 871 796 q 1040 761 990 781 l 1018 644 q 938 675 989 664 q 804 686 886 686 l 756 686 q 718 551 751 599 q 641 481 685 504 q 551 454 597 458 q 475 450 504 450 q 428 455 456 450 q 369 476 401 460 l 369 360 q 381 225 369 274 q 410 153 392 176 q 452 123 428 129 q 501 115 476 117 l 803 115 l 803 0 l 89 0 l 89 115 l 296 115 m 510 565 q 555 569 533 565 q 593 590 576 574 q 620 640 610 607 q 631 733 631 674 q 626 790 631 764 q 610 836 622 817 q 576 867 599 856 q 515 878 553 878 q 463 871 489 878 q 415 845 436 864 q 382 794 394 826 q 369 710 369 761 q 376 640 369 668 q 397 596 382 613 q 440 572 413 579 q 510 565 467 565 z "},"ዶ":{"ha":974,"x_min":111,"x_max":879,"o":"m 879 368 l 879 253 l 435 253 l 424 253 q 343 251 378 253 q 285 242 308 250 q 249 215 261 233 q 236 165 236 197 l 236 0 l 111 0 l 111 165 q 126 256 111 219 q 166 314 140 292 q 226 347 192 336 q 301 361 261 357 q 276 448 283 399 q 269 560 269 497 l 264 710 q 338 922 264 851 q 546 992 411 992 l 549 992 q 720 938 663 992 q 778 767 778 885 q 756 662 778 707 q 695 588 733 617 q 606 544 657 558 q 496 529 554 529 q 455 532 481 529 q 394 550 429 535 q 408 445 396 482 q 438 391 419 408 q 481 371 457 374 q 529 368 504 368 l 532 368 l 879 368 m 557 878 q 490 872 521 878 q 438 852 460 867 q 403 812 415 838 q 390 746 390 786 q 415 667 390 693 q 506 642 440 642 q 563 648 536 642 q 609 669 589 654 q 641 709 629 683 q 653 772 653 735 q 643 828 653 807 q 619 860 633 849 q 589 874 606 871 q 557 878 572 878 z "},"ዷ":{"ha":1200,"x_min":114,"x_max":1147,"o":"m 114 253 l 114 368 l 300 368 q 278 451 285 404 q 271 560 271 499 l 271 749 q 286 844 271 804 q 326 910 301 883 q 381 953 350 938 q 444 978 413 969 q 503 989 475 986 q 551 992 532 992 q 719 939 660 992 q 778 772 778 886 q 747 642 779 690 q 668 569 714 594 q 574 537 622 544 q 494 529 525 529 q 455 532 479 529 q 396 550 431 535 q 409 445 397 482 q 440 391 421 408 q 484 371 460 374 q 533 368 508 368 l 558 368 q 677 365 619 368 q 781 342 735 361 q 854 282 826 324 q 882 165 882 240 l 882 110 l 907 110 q 1035 103 974 110 q 1147 76 1096 96 l 1125 -42 q 1043 -11 1094 -22 q 907 0 992 0 l 728 0 q 594 -11 644 0 q 513 -40 543 -22 l 492 78 q 601 103 540 96 q 728 110 661 110 l 757 110 l 757 165 q 744 215 757 197 q 708 242 732 233 q 649 251 685 250 q 567 253 613 253 l 114 253 m 492 642 q 554 648 525 642 q 606 669 583 654 q 640 708 628 683 q 653 771 653 733 q 629 849 653 819 q 556 879 606 879 q 493 873 522 879 q 442 852 464 867 q 408 812 421 838 q 396 747 396 786 q 418 670 396 699 q 492 642 440 642 z "},"ዸ":{"ha":879,"x_min":103,"x_max":819,"o":"m 103 115 l 313 115 q 272 226 283 164 q 261 360 261 289 l 261 618 q 305 796 261 722 q 454 892 349 869 l 454 1051 l 579 1051 l 579 899 q 671 876 633 896 q 731 822 708 856 q 764 744 754 789 q 774 649 774 700 q 742 491 774 547 q 667 409 711 435 q 575 378 622 383 q 496 374 528 374 q 440 378 461 374 q 386 397 418 383 l 386 360 q 397 225 386 274 q 426 153 408 176 q 468 123 444 129 q 517 115 492 117 l 819 115 l 819 0 l 103 0 l 103 115 m 386 619 q 417 513 386 540 q 526 486 449 486 q 572 490 550 486 q 611 511 594 494 q 638 562 628 528 q 649 656 649 596 l 649 657 q 625 752 649 715 q 543 789 601 789 q 484 782 513 789 q 433 756 456 775 q 399 704 411 738 q 386 619 386 671 z "},"ዹ":{"ha":1274,"x_min":108,"x_max":1168,"o":"m 932 200 q 1059 192 999 200 q 1168 167 1119 185 l 1146 49 q 1065 79 1115 68 q 932 90 1014 90 l 878 90 l 878 0 l 753 0 l 753 165 q 740 215 753 197 q 703 242 728 233 q 644 251 679 250 q 565 253 610 253 l 554 253 l 108 253 l 108 368 l 296 368 q 272 451 279 404 q 265 560 265 497 l 265 675 q 283 776 265 736 q 329 843 301 817 q 392 883 357 869 q 460 903 426 897 l 460 1051 l 585 1051 l 585 908 q 726 844 679 901 q 774 700 774 788 q 740 577 774 622 q 661 508 707 532 q 567 478 615 485 q 490 472 519 472 q 449 475 475 472 q 392 492 424 478 q 430 394 401 419 q 528 368 458 368 l 589 368 q 684 364 636 368 q 772 343 732 360 q 841 292 813 326 q 875 200 869 258 l 932 200 m 557 797 q 497 793 526 797 q 443 777 467 789 q 405 742 419 765 q 390 682 390 719 q 485 586 390 586 q 545 590 517 586 q 597 607 574 594 q 633 642 619 619 q 649 703 647 665 q 637 755 647 736 q 613 783 626 774 q 583 794 599 792 q 557 797 568 797 z "},"ዺ":{"ha":1338,"x_min":149,"x_max":1154,"o":"m 999 111 q 1076 112 1038 111 q 1154 117 1115 113 l 1154 6 q 1067 3 1110 6 q 981 0 1025 0 q 908 2 943 0 q 848 16 874 4 q 807 53 822 28 q 792 122 792 78 l 792 165 q 779 215 792 197 q 743 242 767 233 q 685 251 719 250 q 604 253 650 253 l 593 253 l 149 253 l 149 368 l 338 368 q 315 451 321 404 q 308 560 308 497 l 308 681 q 326 778 308 739 q 371 844 343 818 q 432 883 399 869 q 499 903 465 897 l 499 1051 l 624 1051 l 624 910 q 767 849 721 901 q 814 708 814 796 q 781 582 814 629 q 701 510 747 535 q 608 479 656 486 q 532 472 561 472 q 488 475 518 472 q 424 492 457 478 q 467 393 435 418 q 569 368 500 368 l 624 368 q 728 363 676 368 q 822 339 781 358 q 890 280 864 319 q 917 171 917 240 l 917 153 q 919 131 917 139 q 928 119 921 124 q 953 114 936 115 q 999 111 969 113 m 599 797 q 538 793 568 797 q 485 776 508 789 q 447 740 461 764 q 433 678 433 717 q 446 627 435 646 q 472 599 457 608 q 506 588 488 590 q 540 586 525 586 q 592 590 565 586 q 640 607 618 594 q 675 642 661 619 q 689 703 689 665 q 679 755 689 736 q 656 783 669 774 q 626 794 642 792 q 599 797 610 797 z "},"ዻ":{"ha":1025,"x_min":115,"x_max":883,"o":"m 535 368 l 589 368 q 696 363 643 368 q 790 338 749 358 q 858 278 832 318 q 883 165 883 238 l 883 0 l 758 0 l 758 165 q 746 215 758 197 q 710 242 733 233 q 651 251 686 250 q 571 253 617 253 l 560 253 l 115 253 l 115 367 l 303 367 q 271 560 271 436 l 271 672 q 289 774 271 733 q 335 842 307 815 q 397 883 363 868 q 465 903 432 897 l 465 1051 l 590 1051 l 590 908 q 733 847 688 901 q 779 707 779 793 q 746 581 779 628 q 667 510 713 535 q 573 479 621 486 q 496 472 525 472 q 451 475 481 472 q 389 492 422 478 q 405 430 394 454 q 433 392 415 406 q 475 374 450 379 q 535 368 500 368 m 564 797 q 504 793 535 797 q 450 776 474 789 q 411 741 426 764 q 396 679 396 718 q 490 586 396 586 q 551 590 521 586 q 603 607 581 594 q 640 642 626 619 q 654 703 654 665 q 644 755 654 736 q 620 783 635 774 q 590 794 606 792 q 564 797 575 797 z "},"ዼ":{"ha":1310,"x_min":111,"x_max":1197,"o":"m 111 368 l 299 368 q 275 451 282 404 q 268 560 268 497 l 268 672 q 286 774 268 733 q 332 842 304 815 q 394 883 360 868 q 463 903 429 897 l 463 1051 l 588 1051 l 588 908 q 729 847 682 901 q 776 704 776 792 q 760 615 776 653 q 719 551 744 578 q 663 510 694 525 q 601 486 632 494 q 541 475 569 478 q 493 472 513 472 q 449 475 479 472 q 386 492 418 478 q 401 431 392 454 q 428 393 411 407 q 471 374 446 379 q 531 368 496 368 l 629 368 q 697 366 664 368 q 757 356 729 364 q 807 335 785 349 q 842 296 829 321 l 1006 296 q 1077 294 1043 296 q 1138 281 1111 292 q 1181 246 1165 269 q 1197 178 1197 222 q 1172 86 1197 121 q 1106 33 1146 51 q 1017 8 1065 14 q 922 1 968 1 q 869 7 899 3 q 815 22 840 11 q 772 53 789 33 q 754 104 754 72 l 754 165 q 745 213 754 196 q 719 240 736 231 q 675 251 701 249 q 615 253 649 253 l 557 253 l 111 253 l 111 368 m 501 586 q 553 590 526 586 q 602 607 581 594 q 638 642 624 619 q 651 703 651 665 q 642 755 651 736 q 617 783 632 774 q 587 794 603 792 q 560 797 571 797 q 499 793 529 797 q 445 776 468 789 q 408 740 422 764 q 393 678 393 717 q 406 627 394 646 q 434 599 418 608 q 468 588 450 590 q 501 586 486 586 m 871 214 q 876 178 875 194 q 879 142 878 163 q 908 90 882 107 q 969 72 933 72 q 1006 77 988 72 q 1038 92 1024 82 q 1063 120 1053 103 q 1072 161 1072 138 q 1061 192 1072 181 q 1033 208 1050 203 q 998 213 1017 213 q 965 214 979 214 l 871 214 z "},"ዽ":{"ha":1176,"x_min":88,"x_max":1043,"o":"m 88 0 l 88 115 l 294 115 q 256 226 267 164 q 244 360 244 289 l 244 644 q 263 753 244 708 q 309 826 281 797 q 372 869 338 854 q 438 892 406 885 l 438 1051 l 563 1051 l 563 899 q 690 854 642 894 q 749 736 738 814 l 806 736 q 933 728 872 736 q 1043 701 993 721 l 1021 586 q 940 615 992 604 q 806 626 889 626 l 756 626 q 722 483 753 533 q 650 408 692 432 q 565 378 608 383 q 494 374 522 374 q 428 378 454 374 q 369 397 401 382 l 369 360 q 381 225 369 274 q 410 153 392 176 q 451 123 428 129 q 500 115 475 117 l 801 115 l 801 0 l 88 0 m 369 615 q 402 512 369 538 q 508 486 435 486 q 554 490 532 486 q 593 511 576 494 q 620 562 610 528 q 631 656 631 596 q 608 750 631 711 q 528 789 586 789 q 467 781 496 789 q 417 753 439 774 q 382 700 394 733 q 369 615 369 667 z "},"ዾ":{"ha":951,"x_min":86,"x_max":854,"o":"m 854 250 l 407 250 l 376 250 q 306 249 338 250 q 254 239 275 247 q 222 213 233 231 q 211 165 211 196 l 211 0 l 86 0 l 86 165 q 101 256 86 219 q 140 314 115 292 q 200 347 165 336 q 275 361 235 357 q 249 448 257 399 q 242 560 242 497 l 242 675 q 260 776 242 736 q 306 843 278 817 q 368 883 333 869 q 436 903 403 897 l 436 1051 l 561 1051 l 561 908 q 704 847 658 901 q 750 707 750 793 q 717 581 750 628 q 638 510 683 535 q 544 479 592 486 q 467 472 496 472 q 422 475 451 472 q 360 492 393 478 q 381 419 367 444 q 416 381 396 393 q 460 367 436 369 q 506 365 483 365 l 854 365 l 854 250 m 535 797 q 474 793 504 797 q 419 776 443 789 q 381 740 396 764 q 367 678 367 717 q 379 627 368 646 q 407 599 390 608 q 442 588 424 590 q 475 586 460 586 q 527 590 500 586 q 576 607 554 594 q 611 642 597 619 q 625 703 625 665 q 615 755 625 736 q 592 783 606 774 q 562 794 578 792 q 535 797 546 797 z "},"ዿ":{"ha":1246,"x_min":104,"x_max":1135,"o":"m 292 365 q 269 450 275 401 q 263 560 263 499 l 263 675 q 280 776 263 736 q 325 843 297 817 q 388 883 353 869 q 456 903 422 897 l 456 1051 l 581 1051 l 581 910 q 722 846 675 903 q 769 701 769 789 q 736 578 769 624 q 658 508 703 532 q 567 478 613 485 q 497 472 522 472 q 448 476 475 472 q 389 492 421 481 q 409 420 396 446 q 440 382 422 394 q 480 367 458 369 q 524 365 501 365 l 588 365 q 691 360 640 365 q 782 335 742 356 q 847 276 822 315 q 872 165 872 236 l 872 110 l 894 110 q 1023 101 963 110 q 1135 75 1083 93 l 1113 -42 q 1032 -11 1085 -22 q 894 0 979 0 l 717 0 q 582 -11 633 0 q 500 -40 531 -22 l 479 75 q 590 102 529 94 q 717 110 650 110 l 747 110 l 747 165 q 736 213 747 196 q 703 239 725 231 q 648 249 681 247 q 571 250 615 250 l 104 250 l 104 365 l 292 365 m 388 678 q 400 627 389 646 q 427 599 411 608 q 461 588 443 590 q 493 586 479 586 q 545 590 518 586 q 594 607 572 594 q 629 642 615 619 q 643 703 643 665 q 633 755 643 736 q 610 783 624 774 q 580 794 596 792 q 553 797 564 797 q 492 793 522 797 q 439 776 463 789 q 401 740 415 764 q 388 678 388 717 z "},"ጀ":{"ha":986,"x_min":108,"x_max":917,"o":"m 108 1 l 108 117 l 318 117 q 278 227 289 165 q 267 360 267 289 l 267 644 q 285 752 267 708 q 331 825 303 796 q 394 869 360 854 q 460 892 428 885 l 460 957 l 367 957 q 240 965 300 957 q 131 990 179 972 l 153 1107 q 233 1078 182 1089 q 367 1067 285 1067 l 675 1067 q 813 1078 760 1067 q 893 1108 865 1089 l 917 992 q 806 965 867 972 q 675 957 744 957 l 585 957 l 585 899 q 675 876 638 896 q 735 822 713 856 q 769 744 758 789 q 779 646 779 699 q 748 490 779 544 q 672 409 717 435 q 581 378 628 383 q 501 374 533 374 q 445 378 469 374 q 392 397 421 383 l 392 360 q 403 226 392 274 q 432 153 414 178 q 474 124 450 129 q 522 117 497 118 l 825 117 l 825 1 l 108 1 m 528 485 q 578 490 556 485 q 618 513 601 496 q 644 565 635 531 q 654 656 654 599 l 654 657 q 649 708 654 683 q 631 750 643 732 q 599 778 619 768 q 550 789 579 789 q 490 781 518 789 q 439 753 461 774 q 404 700 417 733 q 392 615 392 667 q 428 510 392 536 q 528 485 465 485 z "},"ጁ":{"ha":1224,"x_min":106,"x_max":1165,"o":"m 106 365 l 293 365 q 269 450 276 401 q 263 560 263 499 l 263 675 q 281 776 263 736 q 326 843 299 817 q 389 883 354 869 q 457 903 424 897 l 457 957 l 363 957 q 235 965 296 957 q 126 990 175 972 l 147 1108 q 228 1078 178 1089 q 363 1067 279 1067 l 671 1067 q 808 1079 756 1067 q 889 1111 861 1092 l 913 992 q 801 965 863 972 q 671 957 739 957 l 582 957 l 582 908 q 724 845 678 901 q 771 701 771 789 q 738 578 771 624 q 660 508 704 532 q 569 478 615 485 q 499 472 524 472 q 449 476 475 472 q 390 492 422 481 q 410 420 397 446 q 442 382 424 394 q 481 367 460 369 q 525 365 503 365 l 596 365 q 688 361 642 365 q 774 340 735 357 q 839 290 813 324 q 872 200 865 257 l 929 200 q 1056 192 996 200 q 1165 167 1117 185 l 1143 49 q 1063 79 1115 68 q 929 90 1011 90 l 875 90 l 875 1 l 750 1 l 750 165 q 739 213 750 196 q 706 239 728 231 q 650 249 683 247 q 572 250 617 250 l 106 250 l 106 365 m 388 678 q 417 604 390 622 q 492 586 444 586 q 544 590 517 586 q 593 607 571 594 q 630 644 615 619 q 644 708 644 668 q 617 780 644 763 q 542 797 590 797 q 488 792 515 797 q 438 775 460 788 q 401 739 415 763 q 388 678 388 715 z "},"ጂ":{"ha":1293,"x_min":139,"x_max":1144,"o":"m 139 249 l 139 364 l 329 364 q 306 449 313 400 q 299 557 299 497 l 299 674 q 316 774 299 733 q 361 841 333 815 q 422 881 389 867 q 489 901 456 896 l 489 956 l 396 956 q 269 963 329 956 q 158 990 208 971 l 181 1107 q 263 1077 211 1089 q 396 1065 314 1065 l 706 1065 q 842 1077 790 1065 q 924 1108 893 1089 l 944 990 q 833 964 894 972 q 706 956 772 956 l 614 956 l 614 908 q 758 844 708 901 q 807 699 807 788 q 774 577 807 622 q 694 508 740 532 q 601 478 649 485 q 525 472 553 472 q 479 475 510 472 q 417 490 449 478 q 438 419 424 444 q 473 381 453 393 q 516 366 493 368 q 561 364 539 364 l 668 364 q 776 357 731 364 q 850 330 821 350 q 893 272 879 310 q 907 172 907 235 q 909 142 907 154 q 919 124 911 131 q 943 115 928 118 q 985 111 958 113 q 1065 112 1025 111 q 1144 118 1104 113 l 1144 4 q 1065 2 1104 4 q 982 0 1025 0 l 972 0 q 902 2 936 0 q 841 16 868 4 q 798 52 814 28 q 782 119 782 76 l 782 164 q 772 211 782 194 q 740 236 761 228 q 686 247 718 244 q 611 249 654 249 l 139 249 m 425 678 q 436 626 425 644 q 463 599 447 608 q 496 587 478 589 q 529 585 514 585 q 582 589 556 585 q 631 606 608 593 q 667 641 653 618 q 682 701 681 664 q 669 753 681 735 q 643 782 658 772 q 610 794 628 792 q 576 796 592 796 q 523 792 550 796 q 474 775 496 788 q 438 739 451 763 q 425 678 425 715 z "},"ጃ":{"ha":1019,"x_min":83,"x_max":890,"o":"m 272 364 q 249 449 256 400 q 242 557 242 497 l 242 674 q 260 774 242 733 q 306 842 278 815 q 368 883 333 868 q 436 903 403 897 l 436 956 l 342 956 q 215 963 275 956 q 103 990 154 971 l 126 1107 q 207 1077 156 1089 q 342 1065 258 1065 l 650 1065 q 786 1077 735 1065 q 868 1108 838 1089 l 890 990 q 778 964 839 972 q 650 956 717 956 l 561 956 l 561 908 q 702 844 654 901 q 750 699 750 786 q 717 577 750 622 q 638 508 683 532 q 544 478 592 485 q 468 472 497 472 q 422 475 453 472 q 360 490 392 478 q 381 419 367 444 q 416 381 396 393 q 459 366 436 368 q 504 364 482 364 l 568 364 q 672 359 621 364 q 763 334 722 354 q 827 274 803 314 q 851 164 851 235 l 851 0 l 726 0 l 726 164 q 715 213 726 196 q 682 239 704 231 q 627 249 660 247 q 551 250 594 250 l 83 250 l 83 364 l 272 364 m 367 678 q 379 626 368 644 q 406 599 390 608 q 440 587 422 589 q 474 585 458 585 q 525 589 499 585 q 573 606 551 593 q 608 641 594 618 q 624 701 622 664 q 612 753 622 735 q 585 782 601 772 q 552 794 569 792 q 519 796 535 796 q 465 792 493 796 q 416 775 438 788 q 381 739 394 763 q 367 678 367 715 z "},"ጄ":{"ha":1169,"x_min":11,"x_max":1100,"o":"m 11 249 l 11 364 l 199 364 q 176 449 182 400 q 169 557 169 497 l 169 672 q 188 773 169 732 q 233 841 206 814 q 295 883 261 868 q 363 903 329 897 l 363 956 l 269 956 q 142 963 203 956 q 32 990 82 971 l 53 1107 q 135 1077 83 1089 q 269 1065 186 1065 l 578 1065 q 714 1077 663 1065 q 796 1108 765 1089 l 818 990 q 706 964 768 972 q 578 956 644 956 l 488 956 l 488 908 q 631 844 583 901 q 678 699 678 786 q 644 577 678 622 q 565 508 611 532 q 472 478 519 485 q 394 472 424 472 q 353 475 379 472 q 296 490 328 478 q 317 419 303 444 q 349 381 331 393 q 390 366 368 368 q 433 364 411 364 l 500 364 q 568 362 533 364 q 635 353 603 360 q 695 332 667 346 q 742 294 724 318 l 917 294 q 992 290 958 294 q 1051 270 1026 285 q 1088 227 1075 256 q 1100 150 1100 199 q 1078 72 1100 103 q 1022 22 1057 40 q 940 -5 986 3 q 844 -12 893 -12 q 783 -9 817 -12 q 722 7 750 -6 q 674 42 693 19 q 654 104 654 65 l 654 164 q 644 211 654 194 q 613 236 633 228 q 560 247 592 244 q 485 249 528 249 l 11 249 m 294 678 q 307 626 296 644 q 334 599 318 608 q 368 587 350 589 q 400 585 386 585 q 453 589 426 585 q 501 606 479 593 q 538 641 524 618 q 551 701 551 664 q 540 753 551 735 q 514 782 529 772 q 481 794 499 792 q 447 796 463 796 q 394 792 421 796 q 344 775 367 788 q 308 739 322 763 q 294 678 294 715 m 771 211 q 774 188 774 196 q 776 174 775 181 q 777 160 776 168 q 779 138 778 153 q 808 88 779 103 q 872 72 836 72 q 942 90 911 72 q 974 149 974 108 q 964 182 974 169 q 939 201 954 194 q 904 209 924 207 q 864 211 885 211 l 771 211 z "},"ጅ":{"ha":1117,"x_min":85,"x_max":1043,"o":"m 294 115 q 254 226 265 164 q 243 360 243 288 l 243 644 q 266 753 247 708 q 313 826 285 797 q 373 869 340 854 q 438 892 406 885 l 438 956 l 343 956 q 216 963 276 956 q 107 988 156 969 l 129 1107 q 210 1076 160 1088 q 343 1065 261 1065 l 651 1065 q 789 1077 736 1065 q 869 1108 842 1089 l 892 990 q 781 963 842 971 q 651 956 721 956 l 563 956 l 563 899 q 689 853 644 894 q 749 736 733 813 l 804 736 q 931 729 871 736 q 1043 704 992 722 l 1019 586 q 939 617 990 606 q 804 628 888 628 l 756 628 q 724 485 753 536 q 655 408 694 433 q 572 378 615 383 q 494 372 528 372 q 368 396 429 372 l 368 360 q 381 225 368 274 q 413 153 393 176 q 458 123 432 129 q 508 115 483 117 l 801 115 l 801 0 l 85 0 l 85 115 l 294 115 m 368 618 l 368 615 q 396 515 368 543 q 490 486 424 486 q 543 490 518 486 q 588 511 568 494 q 619 561 607 528 q 631 654 631 594 l 631 657 q 608 753 631 719 q 525 786 586 786 q 466 779 494 786 q 415 753 438 772 q 381 702 393 735 q 368 618 368 669 z "},"ጆ":{"ha":983,"x_min":103,"x_max":910,"o":"m 103 0 l 103 164 q 117 254 103 218 q 158 312 132 290 q 218 344 183 333 q 293 360 253 356 q 268 446 275 396 q 261 557 261 496 l 261 674 q 279 774 261 733 q 325 842 297 815 q 388 883 353 868 q 456 903 422 897 l 456 956 l 361 956 q 234 963 294 956 q 122 990 174 971 l 146 1107 q 226 1077 175 1089 q 361 1065 278 1065 l 669 1065 q 806 1077 754 1065 q 888 1108 857 1089 l 910 990 q 797 964 858 972 q 669 956 736 956 l 581 956 l 581 908 q 722 844 674 901 q 769 699 769 786 q 736 577 769 622 q 657 508 703 532 q 564 478 611 485 q 488 472 517 472 q 442 475 472 472 q 378 490 411 478 q 400 419 385 444 q 435 381 415 393 q 478 366 456 368 q 524 364 501 364 l 871 364 l 871 249 l 386 249 q 318 247 347 249 q 269 236 289 244 q 238 211 249 228 q 228 164 228 194 l 228 0 l 103 0 m 386 678 q 399 626 388 644 q 426 599 410 608 q 460 587 442 589 q 493 585 478 585 q 544 589 518 585 q 592 606 571 593 q 628 641 614 618 q 643 701 642 664 q 631 753 642 735 q 605 782 621 772 q 572 794 589 792 q 539 796 554 796 q 485 792 513 796 q 435 775 457 788 q 400 739 414 763 q 386 678 386 715 z "},"ጇ":{"ha":1189,"x_min":42,"x_max":1074,"o":"m 42 365 l 229 365 q 206 449 213 401 q 200 557 200 497 l 200 675 q 217 776 200 736 q 263 843 235 817 q 325 883 290 869 q 393 903 360 897 l 393 957 l 300 957 q 173 965 233 957 q 63 990 113 972 l 83 1107 q 165 1078 114 1089 q 300 1067 217 1067 l 608 1067 q 744 1078 692 1067 q 826 1108 797 1089 l 849 992 q 737 965 799 972 q 608 957 675 957 l 518 957 l 518 908 q 660 845 614 901 q 707 701 707 789 q 674 578 707 624 q 594 508 640 532 q 501 478 549 485 q 425 472 454 472 q 385 475 410 472 q 328 492 360 478 q 349 419 335 444 q 380 381 363 393 q 419 367 397 369 q 461 365 440 365 l 525 365 q 629 360 578 365 q 721 335 681 356 q 786 276 761 315 q 811 165 811 236 l 811 110 l 832 110 q 963 103 901 110 q 1074 76 1024 96 l 1050 -43 q 969 -12 1022 -24 q 832 0 917 0 l 663 0 q 528 -11 579 0 q 447 -42 476 -22 l 425 78 q 535 103 475 96 q 663 110 596 110 l 686 110 l 686 165 q 675 213 686 196 q 642 239 664 231 q 586 249 619 247 q 508 250 553 250 l 42 250 l 42 365 m 325 678 q 338 626 326 644 q 366 598 350 607 q 400 587 382 589 q 431 585 418 585 q 484 589 457 585 q 533 606 511 593 q 568 642 554 619 q 582 703 582 665 q 572 753 582 735 q 549 782 563 772 q 519 794 535 792 q 493 796 504 796 q 432 792 463 796 q 378 776 401 789 q 340 740 354 764 q 325 678 325 717 z "},"ገ":{"ha":789,"x_min":108,"x_max":718,"o":"m 386 990 q 488 975 431 990 q 596 919 544 960 q 683 808 647 878 q 718 631 718 739 l 693 0 l 568 0 l 593 631 q 575 756 593 708 q 527 831 557 804 q 460 868 497 858 q 386 878 424 878 q 331 876 361 878 q 272 869 301 875 q 215 853 242 864 q 168 822 188 842 l 108 915 q 233 972 158 954 q 386 990 307 990 z "},"ጉ":{"ha":1082,"x_min":121,"x_max":1008,"o":"m 772 506 q 899 497 839 506 q 1008 471 960 489 l 988 356 q 906 385 957 374 q 772 396 856 396 l 724 396 l 706 0 l 582 0 l 607 631 q 588 756 607 708 q 540 831 569 804 q 474 868 511 858 q 399 878 436 878 q 344 876 374 878 q 285 869 314 875 q 228 853 256 864 q 181 822 201 842 l 121 915 q 245 972 171 954 q 399 990 319 990 q 464 984 428 990 q 538 962 500 978 q 610 919 575 946 q 672 852 644 892 q 717 758 700 813 q 733 631 733 703 l 728 506 l 772 506 z "},"ጊ":{"ha":1043,"x_min":142,"x_max":979,"o":"m 736 218 q 740 158 736 179 q 754 126 743 136 q 785 113 765 115 q 838 111 804 111 q 979 119 908 111 l 979 4 q 891 2 939 4 q 807 0 843 0 q 706 10 746 0 q 642 45 665 21 q 612 109 619 69 q 610 207 604 149 l 628 631 q 609 756 628 708 q 560 831 590 804 q 493 868 531 858 q 418 878 456 878 q 364 876 393 878 q 306 869 335 875 q 249 853 276 864 q 200 822 221 842 l 142 915 q 265 972 192 954 q 418 990 339 990 q 520 975 463 990 q 630 919 578 960 q 717 808 682 878 q 753 631 753 739 l 736 218 z "},"ጋ":{"ha":775,"x_min":65,"x_max":714,"o":"m 696 208 q 633 51 688 103 q 465 0 578 0 q 265 4 365 0 q 65 28 164 8 l 65 160 q 233 121 149 132 q 403 110 318 110 q 467 113 438 110 q 519 128 497 115 q 554 165 540 140 q 572 231 568 189 l 589 631 q 570 756 589 708 q 522 831 551 804 q 454 868 492 858 q 379 878 417 878 q 325 876 354 878 q 267 869 296 875 q 210 853 238 864 q 161 822 182 842 l 101 915 q 226 972 153 954 q 379 990 300 990 q 481 975 424 990 q 591 919 539 960 q 678 808 643 878 q 714 631 714 739 l 696 208 z "},"ጌ":{"ha":1124,"x_min":132,"x_max":1040,"o":"m 810 325 q 891 321 850 325 q 965 301 932 317 q 1019 256 999 286 q 1040 175 1040 226 q 1021 93 1040 126 q 969 39 1001 60 q 895 8 936 18 q 811 -1 854 -1 q 735 1 774 -1 q 665 17 696 4 q 616 58 635 31 q 597 135 597 85 l 617 631 q 599 756 617 708 q 551 831 581 804 q 484 868 521 858 q 410 878 447 878 q 355 876 385 878 q 296 869 325 875 q 240 853 267 864 q 192 822 213 842 l 132 915 q 256 972 182 954 q 410 990 331 990 q 511 975 454 990 q 619 919 568 960 q 706 808 671 878 q 742 631 742 739 l 729 325 l 810 325 m 722 135 q 746 97 719 111 q 807 82 772 82 q 846 87 826 82 q 881 103 865 92 q 906 133 896 115 q 915 175 915 150 q 906 213 915 200 q 882 233 897 226 q 847 240 867 239 q 808 242 828 242 l 726 242 l 722 135 z "},"ግ":{"ha":910,"x_min":67,"x_max":854,"o":"m 447 985 q 483 989 465 988 q 517 990 500 990 q 653 966 592 990 q 760 896 715 942 q 829 783 804 850 q 854 631 854 717 l 829 0 l 703 0 l 729 631 q 711 757 729 708 q 665 833 693 806 q 601 870 636 860 q 531 881 565 881 q 478 876 503 881 q 433 869 453 872 l 433 760 q 400 611 433 663 q 279 557 367 560 q 174 572 215 557 q 110 617 133 588 q 76 690 86 646 q 67 792 67 733 q 106 900 69 854 q 225 956 142 946 l 447 985 m 335 761 q 333 817 335 794 q 327 855 332 840 q 310 876 322 869 q 278 882 299 882 q 208 849 226 882 q 189 764 189 817 q 193 717 189 739 q 206 677 197 694 q 231 649 215 660 q 272 639 247 639 q 310 650 297 639 q 328 679 322 661 q 333 719 333 697 q 335 761 333 740 z "},"ጎ":{"ha":781,"x_min":92,"x_max":701,"o":"m 451 815 q 539 783 494 806 q 619 718 583 760 q 678 615 656 676 q 701 465 701 553 l 683 0 l 558 0 l 576 465 q 558 591 576 543 q 510 666 540 639 q 444 703 481 693 q 369 713 407 713 q 315 711 344 713 q 255 704 285 710 q 198 688 225 699 q 151 657 171 676 l 92 750 q 196 801 136 785 q 326 822 256 818 l 326 1050 l 451 1050 l 451 815 z "},"ጏ":{"ha":764,"x_min":82,"x_max":692,"o":"m 672 0 l 674 0 l 515 0 q 381 -11 432 0 q 300 -42 329 -22 l 279 78 q 391 103 331 96 q 518 110 451 110 l 553 110 l 567 465 q 549 591 567 543 q 501 666 531 639 q 434 703 471 693 q 360 713 397 713 q 305 711 335 713 q 245 704 275 710 q 188 688 215 699 q 142 657 161 676 l 82 750 q 186 803 126 785 q 317 822 246 822 l 317 1050 l 442 1050 l 442 815 q 529 783 485 806 q 610 718 574 760 q 669 615 646 676 q 692 465 692 553 l 674 0 l 672 0 z "},"ጐ":{"ha":1250,"x_min":122,"x_max":1151,"o":"m 400 990 q 501 975 444 990 q 610 919 558 960 q 697 808 661 878 q 732 631 732 739 l 729 506 l 997 506 q 1114 463 1076 506 q 1151 340 1151 419 q 1141 264 1151 301 q 1106 197 1131 226 q 1042 149 1082 167 q 943 131 1003 131 q 872 149 899 135 q 829 188 844 163 q 808 249 814 213 q 803 335 803 285 l 803 422 l 725 422 l 707 0 l 583 0 l 608 631 q 590 755 608 707 q 542 830 571 803 q 475 867 513 857 q 400 878 438 878 q 345 876 375 878 q 285 869 315 875 q 228 853 256 864 q 182 822 201 842 l 122 915 q 247 972 172 954 q 400 990 321 990 m 960 214 q 1019 247 999 214 q 1041 318 1039 279 q 1027 390 1043 357 q 978 422 1011 422 l 900 422 l 900 336 q 901 295 900 317 q 907 256 901 274 q 925 226 913 238 q 960 214 938 214 z "},"ጘ":{"ha":800,"x_min":86,"x_max":711,"o":"m 379 821 q 481 806 424 821 q 589 750 538 790 q 676 640 640 710 q 711 463 711 571 l 690 0 l 565 0 l 586 463 q 568 587 586 539 q 520 662 550 635 q 453 699 490 689 q 379 708 417 708 q 324 707 354 708 q 265 700 294 706 q 208 684 235 694 q 160 654 181 674 l 101 746 q 224 803 150 785 q 379 821 299 821 m 328 911 q 199 918 260 911 q 86 944 138 925 l 110 1063 q 191 1032 139 1043 q 328 1021 243 1021 l 474 1021 q 608 1032 557 1021 q 690 1061 660 1043 l 711 943 q 601 918 661 925 q 474 911 540 911 l 328 911 z "},"ጙ":{"ha":1086,"x_min":92,"x_max":994,"o":"m 757 364 q 884 357 824 364 q 994 331 944 350 l 971 213 q 892 243 943 232 q 757 254 840 254 l 706 254 l 697 0 l 571 0 l 589 463 q 571 588 589 540 q 524 663 553 636 q 458 700 494 690 q 383 710 421 710 q 328 708 358 710 q 269 702 299 707 q 212 686 239 697 q 165 656 185 675 l 106 749 q 229 804 154 786 q 383 822 304 822 q 484 807 426 822 q 593 751 542 792 q 680 640 644 710 q 714 463 715 571 l 710 364 l 757 364 m 332 911 q 203 918 264 911 q 92 944 143 925 l 114 1063 q 196 1032 144 1043 q 332 1021 247 1021 l 479 1021 q 613 1032 561 1021 q 693 1061 664 1043 l 715 943 q 606 918 667 925 q 479 911 546 911 l 332 911 z "},"ጚ":{"ha":1157,"x_min":146,"x_max":975,"o":"m 388 911 q 257 918 318 911 q 146 944 196 925 l 169 1063 q 249 1032 197 1043 q 388 1021 301 1021 l 532 1021 q 667 1032 615 1021 q 749 1061 718 1043 l 769 943 q 659 918 719 925 q 532 911 599 911 l 388 911 m 831 111 q 903 112 867 111 q 975 119 939 113 l 975 4 q 896 2 935 4 q 818 0 857 0 q 710 10 750 0 q 651 45 671 21 q 626 109 631 69 q 624 207 621 149 l 636 463 q 617 587 636 539 q 569 662 599 635 q 501 699 539 689 q 426 708 464 708 q 372 707 401 708 q 313 700 343 706 q 256 684 283 694 q 208 654 229 674 l 149 746 q 274 803 200 785 q 426 821 347 821 q 528 806 471 821 q 638 750 586 790 q 725 640 689 710 q 761 463 761 571 l 750 218 q 749 174 750 193 q 753 142 747 154 q 777 122 760 129 q 831 111 794 114 z "},"ጛ":{"ha":811,"x_min":72,"x_max":714,"o":"m 314 911 q 185 918 246 911 q 72 944 124 925 l 96 1063 q 177 1032 125 1043 q 314 1021 229 1021 l 460 1021 q 594 1032 543 1021 q 675 1061 646 1043 l 697 943 q 587 918 647 925 q 460 911 526 911 l 314 911 m 704 208 q 641 51 696 103 q 474 0 586 0 q 273 4 374 0 q 74 28 172 8 l 74 160 q 242 121 157 132 q 411 110 326 110 q 475 113 446 110 q 526 128 504 115 q 563 165 549 140 q 581 231 576 189 l 589 461 q 570 587 589 539 q 522 662 551 635 q 454 699 492 689 q 379 708 417 708 q 325 707 354 708 q 267 700 296 706 q 210 683 238 694 q 161 653 182 672 l 101 746 q 226 803 153 785 q 379 821 300 821 q 481 806 424 821 q 591 749 539 790 q 678 639 643 708 q 714 461 714 569 l 704 208 z "},"ጜ":{"ha":1114,"x_min":89,"x_max":1001,"o":"m 771 325 q 852 321 811 325 q 926 301 893 317 q 981 256 960 286 q 1001 175 1001 226 q 982 93 1001 126 q 930 39 963 60 q 856 8 897 18 q 772 -1 815 -1 q 695 1 735 -1 q 624 17 656 4 q 574 58 593 31 q 557 135 556 86 l 572 463 q 554 588 572 540 q 507 663 536 636 q 441 700 478 690 q 367 710 404 710 q 312 708 342 710 q 253 701 282 707 q 197 685 224 696 q 149 654 169 674 l 89 747 q 213 804 139 786 q 367 822 288 822 q 432 816 396 822 q 505 794 468 810 q 577 751 542 778 q 640 684 613 724 q 683 590 667 644 q 699 463 700 535 l 690 325 l 771 325 m 683 135 q 707 97 681 111 q 768 82 733 82 q 807 87 788 82 q 842 103 826 92 q 867 133 857 115 q 876 175 876 150 q 867 213 876 200 q 843 233 858 226 q 808 240 828 239 q 769 242 789 242 l 688 242 l 683 135 m 332 911 q 203 918 264 911 q 90 944 142 925 l 114 1063 q 195 1032 143 1043 q 332 1021 247 1021 l 478 1021 q 613 1032 561 1021 q 693 1061 664 1043 l 715 943 q 605 918 665 925 q 478 911 544 911 l 332 911 z "},"ጝ":{"ha":901,"x_min":64,"x_max":851,"o":"m 372 911 q 243 918 304 911 q 131 944 182 925 l 154 1063 q 235 1032 183 1043 q 372 1021 288 1021 l 518 1021 q 653 1032 601 1021 q 733 1061 704 1043 l 756 943 q 645 918 706 925 q 518 911 585 911 l 372 911 m 501 819 q 520 822 511 821 q 539 822 529 822 q 649 803 593 822 q 749 741 704 783 q 823 630 794 699 q 851 461 851 561 l 833 0 l 707 0 l 726 461 q 708 588 726 539 q 662 663 690 636 q 598 701 633 690 q 528 711 563 711 q 475 707 500 711 q 431 700 450 703 l 431 590 q 397 442 431 493 q 276 388 364 390 q 172 403 213 388 q 107 447 131 418 q 74 520 83 476 q 64 622 64 564 q 103 731 67 685 q 222 786 139 776 l 501 819 m 332 592 q 332 643 332 621 q 328 680 332 665 q 313 702 324 694 q 279 710 303 710 q 262 710 271 710 q 242 707 253 710 q 212 685 225 704 q 192 639 199 665 q 186 583 186 613 q 195 528 186 553 q 222 486 204 503 q 268 469 240 469 l 274 469 q 309 482 297 471 q 326 510 321 493 q 331 549 331 528 q 332 592 331 571 z "},"ጞ":{"ha":808,"x_min":85,"x_max":711,"o":"m 458 686 q 547 653 503 676 q 628 590 592 631 q 688 486 665 549 q 711 336 711 424 l 696 0 l 571 0 l 586 336 q 567 460 586 413 q 519 534 549 507 q 451 571 489 561 q 376 581 414 581 q 322 580 351 581 q 264 574 293 579 q 207 558 235 568 q 158 529 179 549 l 99 619 q 203 672 143 654 q 333 694 263 690 l 333 869 l 458 869 l 458 686 m 324 926 q 196 933 257 926 q 85 960 135 940 l 106 1079 q 188 1048 136 1060 q 324 1036 240 1036 l 471 1036 q 606 1047 554 1036 q 688 1078 657 1058 l 710 960 q 598 933 658 940 q 471 926 538 926 l 324 926 z "},"ጟ":{"ha":953,"x_min":44,"x_max":918,"o":"m 293 694 l 293 869 l 418 869 l 418 686 q 506 654 461 676 q 588 592 551 632 q 647 490 624 551 q 671 343 671 429 l 661 110 l 678 110 q 807 103 747 110 q 918 76 867 96 l 896 -43 q 814 -12 865 -24 q 678 0 763 0 l 511 0 q 377 -11 428 0 q 297 -42 326 -22 l 275 76 q 385 103 325 96 q 511 110 444 110 l 536 110 l 546 343 q 527 463 546 417 q 478 536 508 510 q 411 572 449 563 q 336 581 374 581 q 282 580 311 581 q 224 574 253 579 q 167 558 194 568 q 118 529 139 549 l 58 619 q 163 672 103 654 q 293 694 222 690 m 44 960 l 65 1079 q 148 1048 96 1060 q 283 1036 200 1036 l 431 1036 q 565 1047 514 1036 q 647 1078 617 1058 l 669 960 q 558 933 618 940 q 431 926 497 926 l 283 926 q 156 933 217 926 q 44 960 94 940 z "},"ጠ":{"ha":1356,"x_min":128,"x_max":1244,"o":"m 485 992 q 608 968 560 992 q 685 903 657 944 q 762 968 714 944 q 885 992 810 992 q 990 976 929 992 q 1108 921 1051 961 q 1205 811 1165 881 q 1244 633 1244 742 l 1244 0 l 1119 0 l 1119 633 q 1058 817 1119 756 q 878 879 997 879 q 829 875 853 879 q 788 847 806 871 q 758 774 769 824 q 747 633 747 724 l 747 0 l 622 0 l 622 633 q 611 774 622 724 q 582 847 600 824 q 540 875 564 871 q 492 879 517 879 q 313 817 372 879 q 253 633 253 754 l 253 0 l 128 0 l 128 633 q 167 811 128 742 q 263 921 207 881 q 381 976 319 961 q 485 992 442 992 z "},"ጡ":{"ha":1615,"x_min":121,"x_max":1521,"o":"m 481 992 q 603 968 556 992 q 681 903 650 944 q 756 968 708 944 q 879 992 804 992 q 946 985 908 992 q 1023 963 983 979 q 1101 921 1063 947 q 1170 855 1140 894 q 1219 760 1200 815 q 1238 633 1238 706 l 1238 522 l 1285 522 q 1413 515 1353 522 q 1521 490 1472 508 l 1500 372 q 1419 401 1469 390 q 1285 413 1368 413 l 1238 413 l 1238 0 l 1113 0 l 1113 633 q 1052 817 1113 754 q 872 879 992 879 q 824 875 847 879 q 782 847 800 871 q 753 774 764 824 q 742 633 742 724 l 742 0 l 617 0 l 617 633 q 606 774 617 724 q 577 847 594 824 q 536 875 560 871 q 488 879 513 879 q 307 817 368 879 q 246 633 246 756 l 246 0 l 121 0 l 121 633 q 140 760 121 706 q 188 855 158 815 q 257 921 218 894 q 335 963 296 947 q 413 985 375 979 q 481 992 451 992 z "},"ጢ":{"ha":1664,"x_min":147,"x_max":1531,"o":"m 147 633 q 188 811 147 742 q 285 921 228 881 q 407 976 343 961 q 518 992 471 992 q 632 968 585 992 q 707 903 679 944 q 783 968 736 944 q 896 992 829 992 q 1008 976 944 992 q 1128 921 1071 961 q 1226 811 1186 881 q 1265 633 1265 742 l 1265 217 q 1273 156 1265 178 q 1297 124 1281 133 q 1338 112 1313 114 q 1396 110 1363 110 q 1469 112 1429 110 q 1531 118 1508 114 l 1531 4 q 1443 2 1490 4 q 1360 0 1396 0 q 1258 10 1300 0 q 1190 43 1217 19 q 1152 105 1164 67 q 1140 200 1140 143 l 1140 633 q 1079 817 1140 756 q 899 879 1018 879 q 850 875 874 879 q 808 847 826 871 q 779 774 790 824 q 768 633 768 724 l 768 0 l 643 0 l 643 633 q 632 774 643 724 q 603 847 621 824 q 563 875 586 871 q 514 879 539 879 q 333 817 394 879 q 271 633 271 756 l 271 0 l 147 0 l 147 633 z "},"ጣ":{"ha":1322,"x_min":121,"x_max":1236,"o":"m 490 992 q 603 968 557 992 q 679 903 650 944 q 753 968 707 944 q 867 992 800 992 q 978 976 915 992 q 1099 921 1042 961 q 1197 811 1157 881 q 1236 633 1236 742 l 1236 0 l 1111 0 l 1111 633 q 1051 817 1111 754 q 872 879 992 879 q 824 875 847 879 q 782 847 800 871 q 753 774 764 824 q 742 633 742 724 l 742 313 l 617 313 l 617 633 q 606 774 617 724 q 576 847 594 824 q 535 875 558 871 q 486 879 511 879 q 306 817 367 879 q 246 633 246 754 l 246 313 l 121 313 l 121 633 q 140 760 121 706 q 188 855 158 815 q 258 921 218 894 q 338 963 297 947 q 419 985 379 979 q 490 992 458 992 z "},"ጤ":{"ha":1592,"x_min":142,"x_max":1546,"o":"m 501 992 q 623 968 575 992 q 699 903 671 944 q 776 968 728 944 q 899 992 824 992 q 1004 976 943 992 q 1122 921 1065 961 q 1219 811 1179 881 q 1258 633 1258 742 l 1258 322 l 1317 322 q 1398 319 1357 322 q 1472 301 1439 315 q 1525 256 1504 286 q 1546 175 1546 226 q 1526 92 1546 125 q 1474 38 1507 58 q 1401 8 1442 17 q 1317 -1 1360 -1 q 1250 3 1283 -1 q 1191 21 1217 7 q 1149 60 1165 35 q 1133 129 1133 86 l 1132 633 q 1072 817 1132 754 q 892 879 1011 879 q 843 875 867 879 q 802 847 819 871 q 774 774 785 824 q 763 633 763 724 l 763 0 l 638 0 l 638 633 q 626 774 638 724 q 597 847 615 824 q 556 875 579 871 q 508 879 533 879 q 267 633 267 879 l 267 0 l 142 0 l 142 633 q 181 811 142 742 q 277 921 221 881 q 395 976 333 961 q 501 992 457 992 m 1326 83 q 1390 105 1360 83 q 1421 175 1421 126 q 1413 212 1421 199 q 1390 231 1404 225 q 1358 239 1376 238 q 1321 240 1340 240 l 1258 240 l 1258 129 q 1278 96 1258 108 q 1326 83 1299 83 z "},"ጥ":{"ha":1333,"x_min":110,"x_max":1226,"o":"m 426 993 q 540 969 493 993 q 615 903 588 944 q 658 940 631 924 q 718 969 685 957 q 788 987 751 981 q 857 993 824 993 q 928 987 889 993 q 1009 965 968 981 q 1089 922 1050 949 q 1158 855 1128 894 q 1208 760 1189 815 q 1226 633 1226 706 l 1226 313 l 1101 313 l 1101 633 q 1041 818 1101 756 q 860 881 981 881 q 801 876 833 881 q 742 849 769 872 q 697 775 715 825 q 679 633 679 725 l 679 585 l 824 585 l 824 0 l 699 0 l 699 494 l 554 494 l 554 633 q 543 775 554 725 q 514 849 532 825 q 472 876 496 872 q 424 881 449 881 q 327 862 364 881 q 269 810 290 843 q 241 731 249 776 q 233 633 233 686 l 233 313 l 110 313 l 110 633 q 142 811 110 742 q 221 922 174 881 q 324 978 268 963 q 426 993 379 993 z "},"ጦ":{"ha":1321,"x_min":111,"x_max":1228,"o":"m 111 0 l 111 633 q 151 811 111 742 q 248 922 190 881 q 369 978 306 963 q 479 993 432 993 q 593 969 546 993 q 668 903 640 944 q 744 969 697 944 q 858 993 792 993 q 930 987 890 993 q 1010 965 969 981 q 1090 922 1051 949 q 1160 855 1129 894 q 1209 760 1190 815 q 1228 633 1228 706 l 1228 313 l 1103 313 l 1103 633 q 1042 818 1103 756 q 861 881 982 881 q 813 876 836 881 q 772 849 789 872 q 743 775 754 825 q 732 633 732 725 l 732 313 l 607 313 l 607 633 q 596 775 607 725 q 567 849 585 825 q 526 876 549 872 q 478 881 503 881 q 236 633 236 881 l 236 0 l 111 0 z "}}}
